<?xml version="1.0" encoding="UTF-8" standalone="no"?>
<!-- Created with Inkscape (http://www.inkscape.org/) -->

<svg
   width="306.77768mm"
   height="624.62628mm"
   viewBox="0 0 306.77768 624.62629"
   version="1.1"
   id="svg17179"
   inkscape:version="1.2.2 (b0a8486541, 2022-12-01)"
   sodipodi:docname="body.svg"
   xmlns:inkscape="http://www.inkscape.org/namespaces/inkscape"
   xmlns:sodipodi="http://sodipodi.sourceforge.net/DTD/sodipodi-0.dtd"
   xmlns="http://www.w3.org/2000/svg"
   xmlns:svg="http://www.w3.org/2000/svg">
  <sodipodi:namedview
     id="namedview17181"
     pagecolor="#ffffff"
     bordercolor="#000000"
     borderopacity="0.25"
     inkscape:showpageshadow="2"
     inkscape:pageopacity="0.0"
     inkscape:pagecheckerboard="0"
     inkscape:deskcolor="#d1d1d1"
     inkscape:document-units="mm"
     showgrid="false"
     inkscape:zoom="0.25827055"
     inkscape:cx="-377.5111"
     inkscape:cy="1444.2219"
     inkscape:window-width="1920"
     inkscape:window-height="1012"
     inkscape:window-x="0"
     inkscape:window-y="0"
     inkscape:window-maximized="1"
     inkscape:current-layer="layer1" />
  <defs
     id="defs17176">
    <inkscape:path-effect
       effect="mirror_symmetry"
       start_point="255.60853,54.652661"
       end_point="255.60853,119.83185"
       center_point="255.60853,87.242257"
       id="path-effect18073"
       is_visible="true"
       lpeversion="1.2"
       lpesatellites=""
       mode="vertical"
       discard_orig_path="false"
       fuse_paths="false"
       oposite_fuse="false"
       split_items="false"
       split_open="false"
       link_styles="false" />
    <inkscape:path-effect
       effect="mirror_symmetry"
       start_point="57.866823,363.80465"
       end_point="57.866823,430.65225"
       center_point="57.866823,397.22845"
       id="path-effect18071"
       is_visible="true"
       lpeversion="1.2"
       lpesatellites=""
       mode="vertical"
       discard_orig_path="false"
       fuse_paths="false"
       oposite_fuse="false"
       split_items="false"
       split_open="false"
       link_styles="false" />
    <inkscape:path-effect
       effect="mirror_symmetry"
       start_point="129.60486,266.54168"
       end_point="129.60486,365.09734"
       center_point="129.60486,315.81951"
       id="path-effect18069"
       is_visible="true"
       lpeversion="1.2"
       lpesatellites=""
       mode="vertical"
       discard_orig_path="false"
       fuse_paths="false"
       oposite_fuse="false"
       split_items="false"
       split_open="false"
       link_styles="false" />
    <inkscape:path-effect
       effect="mirror_symmetry"
       start_point="86.442102,323.77578"
       end_point="86.442102,410.40097"
       center_point="86.442102,367.08837"
       id="path-effect18067"
       is_visible="true"
       lpeversion="1.2"
       lpesatellites=""
       mode="vertical"
       discard_orig_path="false"
       fuse_paths="false"
       oposite_fuse="false"
       split_items="false"
       split_open="false"
       link_styles="false" />
    <inkscape:path-effect
       effect="mirror_symmetry"
       start_point="335.70623,277.41866"
       end_point="335.70623,423.91877"
       center_point="335.70623,350.66872"
       id="path-effect18065"
       is_visible="true"
       lpeversion="1.2"
       lpesatellites=""
       mode="vertical"
       discard_orig_path="false"
       fuse_paths="false"
       oposite_fuse="false"
       split_items="false"
       split_open="false"
       link_styles="false" />
    <inkscape:path-effect
       effect="mirror_symmetry"
       start_point="323.95338,367.60226"
       end_point="323.95338,548.48017"
       center_point="323.95338,458.04122"
       id="path-effect18031"
       is_visible="true"
       lpeversion="1.2"
       lpesatellites=""
       mode="vertical"
       discard_orig_path="false"
       fuse_paths="false"
       oposite_fuse="false"
       split_items="false"
       split_open="false"
       link_styles="false" />
    <inkscape:path-effect
       effect="mirror_symmetry"
       start_point="-425.46125,374.2625"
       end_point="-425.46125,671.2625"
       center_point="-425.46125,522.7625"
       id="path-effect16684-9"
       is_visible="true"
       lpeversion="1.2"
       lpesatellites=""
       mode="vertical"
       discard_orig_path="false"
       fuse_paths="true"
       oposite_fuse="false"
       split_items="false"
       split_open="false"
       link_styles="false" />
    <inkscape:path-effect
       effect="mirror_symmetry"
       start_point="337.06287,-215.00053"
       end_point="337.06287,548.48018"
       center_point="337.06287,166.73983"
       id="path-effect1675"
       is_visible="true"
       lpeversion="1.2"
       lpesatellites=""
       mode="vertical"
       discard_orig_path="false"
       fuse_paths="true"
       oposite_fuse="false"
       split_items="false"
       split_open="false"
       link_styles="false" />
  </defs>
  <g
     inkscape:label="Layer 1"
     inkscape:groupmode="layer"
     id="layer1"
     transform="translate(-226.56531,309.07028)">
    <path
       style="display:inline;fill:#e7b29b;stroke-width:0.264583;fill-opacity:1"
       d="m 235.83306,119.56683 c -22.74364,-3.38541 -39.06218,-34.6346 -27.13738,-51.96671 3.52204,-5.11912 9.94203,-9.39548 18.37588,-12.2402 3.38959,-1.1433 7.88623,-0.87311 10.19385,0.61252 1.87534,1.20734 4.86196,3.96927 5.49341,5.08014 0.38465,0.67667 1.27244,2.18281 1.97288,3.34698 2.38613,3.96586 7.96617,20.21846 8.67522,25.26771 0.1737,1.23693 0.60707,3.99399 0.96304,6.12682 0.35597,2.13282 0.66359,4.21642 0.6836,4.63021 0.02,0.41379 0.20517,1.9681 0.41147,3.45402 1.40915,10.14966 -7.73749,17.45902 -19.63197,15.68851 z m 202.45962,0 c 22.74364,-3.38541 39.06218,-34.6346 27.13738,-51.96671 -3.52204,-5.11912 -9.94203,-9.39548 -18.37588,-12.2402 -3.38959,-1.1433 -7.88623,-0.87311 -10.19385,0.61252 -1.87534,1.20734 -4.86196,3.96927 -5.49341,5.08014 -0.38465,0.67667 -1.27244,2.18281 -1.97288,3.34698 -2.38613,3.96586 -7.96617,20.21846 -8.67522,25.26771 -0.1737,1.23693 -0.60707,3.99399 -0.96304,6.12682 -0.35597,2.13282 -0.66359,4.21642 -0.6836,4.63021 -0.02,0.41379 -0.20517,1.9681 -0.41147,3.45402 -1.40915,10.14966 7.73749,17.45902 19.63197,15.68851 z"
       id="path1816"
       inkscape:label="ear"
       transform="translate(42.891279,-232.92415)"
       inkscape:path-effect="#path-effect18073"
       inkscape:original-d="m 235.83306,119.56683 c -22.74364,-3.38541 -39.06218,-34.6346 -27.13738,-51.96671 3.52204,-5.11912 9.94203,-9.39548 18.37588,-12.2402 3.38959,-1.1433 7.88623,-0.87311 10.19385,0.61252 1.87534,1.20734 4.86196,3.96927 5.49341,5.08014 0.38465,0.67667 1.27244,2.18281 1.97288,3.34698 2.38613,3.96586 7.96617,20.21846 8.67522,25.26771 0.1737,1.23693 0.60707,3.99399 0.96304,6.12682 0.35597,2.13282 0.66359,4.21642 0.6836,4.63021 0.02,0.41379 0.20517,1.9681 0.41147,3.45402 1.40915,10.14966 -7.73749,17.45902 -19.63197,15.68851 z"
       class="UnoptimicedTransforms" />
    <path
       style="display:inline;fill:#e7b29b;stroke-width:0.264583;fill-opacity:1"
       d="m 329.30481,156.67266 c -7.73767,-0.45886 -13.25635,-1.16503 -18.53746,-2.37206 -2.25557,-0.51552 -6.00604,-1.28948 -8.33437,-1.7199 -30.75007,-5.68456 -47.96267,-18.93221 -55.01276,-42.3405 -1.76071,-5.84601 -5.17137,-19.411192 -7.14833,-28.430912 -0.95687,-4.36562 -2.50601,-11.15219 -3.44254,-15.08125 -9.59353,-40.2481 -8.91983,-63.7923704 2.41844,-84.51905 13.90902,-25.426089 27.36467,-37.375377 55.54705,-49.328517 27.48415,-11.657 55.06902,-12.02603 81.8501,-1.09499 28.88525,11.78988 43.02849,23.648198 56.49211,47.365478 12.89022,22.7071986 14.11406,45.481479 4.59243,85.460419 -0.72782,3.05593 -2.33174,10.08062 -3.56428,15.61041 -6.12832,27.494872 -9.54193,38.353202 -14.2652,45.376042 -6.85554,10.19323 -15.29685,16.40481 -29.22848,21.50792 -9.214,3.37506 -12.36259,4.26599 -20.24062,5.72737 -2.32834,0.4319 -5.06677,0.97872 -6.08542,1.21514 -6.18771,1.43617 -10.88086,2.08963 -17.85937,2.48668 -8.57283,0.48776 -10.95646,0.50687 -17.1813,0.13772 z"
       id="path1830"
       inkscape:label="head"
       inkscape:transform-center-y="-116.30724"
       transform="translate(42.891279,-232.92415)" />
    <path
       id="path445"
       style="display:inline;fill:#e7b29b;stroke-width:0.264583;fill-opacity:1"
       inkscape:label="arm"
       inkscape:transform-center-x="24.27199"
       inkscape:transform-center-y="31.483935"
       d="m 111.73411,266.54197 c -12.24816,-0.0701 -21.768855,12.4879 -34.484195,28.99203 -1.572085,2.04053 0.59445,-0.48329 -0.73469,1.18122 -1.329141,1.66451 -3.838015,4.98125 -5.57537,7.37061 -9.516205,13.08751 -11.652819,15.9686 -14.155725,19.08669 -4.940396,6.15467 -6.025853,7.50323 -7.049699,8.75967 -9.596101,11.77628 -2.731122,29.49039 12.720671,32.82332 5.204529,1.12261 12.010107,-0.58909 16.376777,-4.11913 2.555037,-2.06552 3.264089,-2.99187 10.889258,-14.22135 3.737759,-5.50456 8.531177,-12.55647 10.652063,-15.67088 2.12089,-3.11443 4.52775,-6.66997 5.34799,-7.90133 2.27788,-3.4196 4.92777,-8.39049 7.55237,-12.14747 3.43421,-4.91588 8.86648,-10.37923 12.25248,-15.05697 2.63394,-3.18288 4.07572,-7.17795 4.07882,-11.30215 2.1e-4,-9.82757 -8.00091,-17.79445 -17.87075,-17.79426 z m 74.98174,0 c 12.24816,-0.0701 21.76885,12.4879 34.48419,28.99203 1.57209,2.04053 -0.59445,-0.48329 0.73469,1.18122 1.32915,1.66451 3.83802,4.98125 5.57537,7.37061 9.51621,13.08751 11.65282,15.9686 14.15573,19.08669 4.9404,6.15467 6.02585,7.50323 7.0497,8.75967 9.5961,11.77628 2.73112,29.49039 -12.72067,32.82332 -5.20453,1.12261 -12.01011,-0.58909 -16.37678,-4.11913 -2.55504,-2.06552 -3.26409,-2.99187 -10.88926,-14.22135 -3.73776,-5.50456 -8.53117,-12.55647 -10.65206,-15.67088 -2.12089,-3.11443 -4.52775,-6.66997 -5.34799,-7.90133 -2.27788,-3.4196 -4.92777,-8.39049 -7.55237,-12.14747 -3.43421,-4.91588 -8.86648,-10.37923 -12.25248,-15.05697 -2.63394,-3.18288 -4.07572,-7.17795 -4.07882,-11.30215 -2.1e-4,-9.82757 8.00091,-17.79445 17.87075,-17.79426 z"
       sodipodi:nodetypes="csssscssssssccc"
       transform="translate(230.72917,-333.99606)"
       inkscape:path-effect="#path-effect18069"
       inkscape:original-d="m 111.73411,266.54197 c -12.24816,-0.0701 -21.768855,12.4879 -34.484195,28.99203 -1.572085,2.04053 0.59445,-0.48329 -0.73469,1.18122 -1.329141,1.66451 -3.838015,4.98125 -5.57537,7.37061 -9.516205,13.08751 -11.652819,15.9686 -14.155725,19.08669 -4.940396,6.15467 -6.025853,7.50323 -7.049699,8.75967 -9.596101,11.77628 -2.731122,29.49039 12.720671,32.82332 5.204529,1.12261 12.010107,-0.58909 16.376777,-4.11913 2.555037,-2.06552 3.264089,-2.99187 10.889258,-14.22135 3.737759,-5.50456 8.531177,-12.55647 10.652063,-15.67088 2.12089,-3.11443 4.52775,-6.66997 5.34799,-7.90133 2.27788,-3.4196 4.92777,-8.39049 7.55237,-12.14747 3.43421,-4.91588 8.86648,-10.37923 12.25248,-15.05697 2.63394,-3.18288 4.07572,-7.17795 4.07882,-11.30215 2.1e-4,-9.82757 -8.00091,-17.79445 -17.87075,-17.79426 z"
       class="UnoptimicedTransforms" />
    <path
       style="display:inline;fill:#e7b29b;stroke-width:0.264583;fill-opacity:1"
       d="m 30.317312,410.22279 c -0.77651,-0.13807 -2.32432,-0.55608 -3.43958,-0.92892 -1.11526,-0.37283 -2.77248,-1.09287 -3.68271,-1.60008 -0.91022,-0.5072 -2.51757,-1.61831 -3.57187,-2.46911 -1.05431,-0.85081 -2.57176,-2.33963 -3.37213,-3.3085 -0.80036,-0.96887 -1.90336,-2.55856 -2.4511,-3.53263 -0.54774,-0.97407 -1.3481,-2.90214 -1.77857,-4.28459 -0.43048,-1.38244 -0.96879,-5.49278 -1.0615,-6.51142 0.0661,-6.53128 1.47893,-11.47881 6.82817,-18.22712 1.96781,-2.47385 4.53981,-5.62901 5.71555,-7.01145 1.17574,-1.38245 4.09718,-4.77573 6.49208,-7.54063 2.39491,-2.7649 6.21596,-7.11745 8.49122,-9.67235 2.27528,-2.5549 5.01345,-5.76959 6.08485,-7.14375 1.0714,-1.37417 2.87134,-3.63733 3.99988,-5.02926 1.12854,-1.39193 2.8758,-3.26303 3.88281,-4.15801 1.007,-0.89497 2.64937,-2.03734 3.6497,-2.5386 1.00034,-0.50126 2.53316,-1.15038 3.40629,-1.44248 0.87312,-0.29211 2.58398,-0.6758 3.80191,-0.85265 1.26588,-0.18382 3.0072,-0.24787 4.06525,-0.14954 1.01796,0.0946 2.64085,0.36407 3.60642,0.5988 0.96558,0.23473 2.70809,0.86805 3.87225,1.40739 1.16417,0.53934 2.92716,1.64806 3.91776,2.46382 0.9906,0.81576 2.4581,2.28474 3.26112,3.2644 0.80301,0.97966 1.8761,2.60744 2.38465,3.61728 0.50855,1.00985 1.17162,2.74521 1.47349,3.85635 0.41839,1.54006 0.54885,2.80639 0.54885,5.32756 0,2.51979 -0.13051,3.78765 -0.54811,5.32467 -0.30146,1.10955 -1.08189,3.07408 -1.73428,4.36562 -0.65239,1.29154 -1.86983,3.41981 -2.70541,4.7295 -0.83558,1.30969 -2.55437,4.10766 -3.81953,6.21771 -1.26516,2.11005 -3.54885,5.74146 -5.07486,8.06979 -1.526,2.32833 -3.41145,5.3049 -4.18987,6.61458 -0.77843,1.30969 -2.83957,4.58391 -4.58031,7.27604 -1.74075,2.69214 -3.88098,5.96636 -4.75607,7.27605 -0.87509,1.30968 -2.49503,3.34189 -3.59987,4.51601 -1.10484,1.17412 -2.76699,2.99658 -3.69365,4.04991 -0.92666,1.05334 -2.53401,2.5145 -3.57188,3.24703 -1.03786,0.73253 -2.56609,1.67719 -3.39605,2.09924 -0.82997,0.42204 -2.55638,1.07959 -3.83646,1.46122 -1.87152,0.55794 -3.00121,0.71103 -5.76702,0.7815 -1.89177,0.0482 -4.07491,-0.0253 -4.85142,-0.16338 z m 237.815338,0 c 0.77651,-0.13807 2.32432,-0.55608 3.43958,-0.92892 1.11526,-0.37283 2.77248,-1.09287 3.68271,-1.60008 0.91022,-0.5072 2.51757,-1.61831 3.57187,-2.46911 1.05431,-0.85081 2.57176,-2.33963 3.37213,-3.3085 0.80036,-0.96887 1.90336,-2.55856 2.4511,-3.53263 0.54774,-0.97407 1.3481,-2.90214 1.77857,-4.28459 0.43048,-1.38244 0.96879,-5.49278 1.0615,-6.51142 -0.0661,-6.53128 -1.47893,-11.47881 -6.82817,-18.22712 -1.96781,-2.47385 -4.53981,-5.62901 -5.71555,-7.01145 -1.17574,-1.38245 -4.09718,-4.77573 -6.49208,-7.54063 -2.39491,-2.7649 -6.21596,-7.11745 -8.49122,-9.67235 -2.27528,-2.5549 -5.01345,-5.76959 -6.08485,-7.14375 -1.0714,-1.37417 -2.87134,-3.63733 -3.99988,-5.02926 -1.12854,-1.39193 -2.8758,-3.26303 -3.88281,-4.15801 -1.007,-0.89497 -2.64937,-2.03734 -3.6497,-2.5386 -1.00034,-0.50126 -2.53316,-1.15038 -3.40629,-1.44248 -0.87312,-0.29211 -2.58398,-0.6758 -3.80191,-0.85265 -1.26588,-0.18382 -3.0072,-0.24787 -4.06525,-0.14954 -1.01796,0.0946 -2.64085,0.36407 -3.60642,0.5988 -0.96558,0.23473 -2.70809,0.86805 -3.87225,1.40739 -1.16417,0.53934 -2.92716,1.64806 -3.91776,2.46382 -0.9906,0.81576 -2.4581,2.28474 -3.26112,3.2644 -0.80301,0.97966 -1.8761,2.60744 -2.38465,3.61728 -0.50855,1.00985 -1.17162,2.74521 -1.47349,3.85635 -0.41839,1.54006 -0.54885,2.80639 -0.54885,5.32756 0,2.51979 0.13051,3.78765 0.54811,5.32467 0.30146,1.10955 1.08189,3.07408 1.73428,4.36562 0.65239,1.29154 1.86983,3.41981 2.70541,4.7295 0.83558,1.30969 2.55437,4.10766 3.81953,6.21771 1.26516,2.11005 3.54885,5.74146 5.07486,8.06979 1.526,2.32833 3.41145,5.3049 4.18987,6.61458 0.77843,1.30969 2.83957,4.58391 4.58031,7.27604 1.74075,2.69214 3.88098,5.96636 4.75607,7.27605 0.87509,1.30968 2.49503,3.34189 3.59987,4.51601 1.10484,1.17412 2.76699,2.99658 3.69365,4.04991 0.92666,1.05334 2.53401,2.5145 3.57188,3.24703 1.03786,0.73253 2.56609,1.67719 3.39605,2.09924 0.82997,0.42204 2.55638,1.07959 3.83646,1.46122 1.87152,0.55794 3.00121,0.71103 5.76702,0.7815 1.89177,0.0482 4.07491,-0.0253 4.85142,-0.16338 z"
       id="path501"
       sodipodi:nodetypes="sssssssccssssssssssssssssssssssssssssssss"
       inkscape:label="forearm"
       inkscape:transform-center-x="17.520804"
       inkscape:transform-center-y="22.307826"
       transform="translate(230.72917,-333.99606)"
       inkscape:path-effect="#path-effect18067"
       inkscape:original-d="m 30.317312,410.22279 c -0.77651,-0.13807 -2.32432,-0.55608 -3.43958,-0.92892 -1.11526,-0.37283 -2.77248,-1.09287 -3.68271,-1.60008 -0.91022,-0.5072 -2.51757,-1.61831 -3.57187,-2.46911 -1.05431,-0.85081 -2.57176,-2.33963 -3.37213,-3.3085 -0.80036,-0.96887 -1.90336,-2.55856 -2.4511,-3.53263 -0.54774,-0.97407 -1.3481,-2.90214 -1.77857,-4.28459 -0.43048,-1.38244 -0.96879,-5.49278 -1.0615,-6.51142 0.0661,-6.53128 1.47893,-11.47881 6.82817,-18.22712 1.96781,-2.47385 4.53981,-5.62901 5.71555,-7.01145 1.17574,-1.38245 4.09718,-4.77573 6.49208,-7.54063 2.39491,-2.7649 6.21596,-7.11745 8.49122,-9.67235 2.27528,-2.5549 5.01345,-5.76959 6.08485,-7.14375 1.0714,-1.37417 2.87134,-3.63733 3.99988,-5.02926 1.12854,-1.39193 2.8758,-3.26303 3.88281,-4.15801 1.007,-0.89497 2.64937,-2.03734 3.6497,-2.5386 1.00034,-0.50126 2.53316,-1.15038 3.40629,-1.44248 0.87312,-0.29211 2.58398,-0.6758 3.80191,-0.85265 1.26588,-0.18382 3.0072,-0.24787 4.06525,-0.14954 1.01796,0.0946 2.64085,0.36407 3.60642,0.5988 0.96558,0.23473 2.70809,0.86805 3.87225,1.40739 1.16417,0.53934 2.92716,1.64806 3.91776,2.46382 0.9906,0.81576 2.4581,2.28474 3.26112,3.2644 0.80301,0.97966 1.8761,2.60744 2.38465,3.61728 0.50855,1.00985 1.17162,2.74521 1.47349,3.85635 0.41839,1.54006 0.54885,2.80639 0.54885,5.32756 0,2.51979 -0.13051,3.78765 -0.54811,5.32467 -0.30146,1.10955 -1.08189,3.07408 -1.73428,4.36562 -0.65239,1.29154 -1.86983,3.41981 -2.70541,4.7295 -0.83558,1.30969 -2.55437,4.10766 -3.81953,6.21771 -1.26516,2.11005 -3.54885,5.74146 -5.07486,8.06979 -1.526,2.32833 -3.41145,5.3049 -4.18987,6.61458 -0.77843,1.30969 -2.83957,4.58391 -4.58031,7.27604 -1.74075,2.69214 -3.88098,5.96636 -4.75607,7.27605 -0.87509,1.30968 -2.49503,3.34189 -3.59987,4.51601 -1.10484,1.17412 -2.76699,2.99658 -3.69365,4.04991 -0.92666,1.05334 -2.53401,2.5145 -3.57188,3.24703 -1.03786,0.73253 -2.56609,1.67719 -3.39605,2.09924 -0.82997,0.42204 -2.55638,1.07959 -3.83646,1.46122 -1.87152,0.55794 -3.00121,0.71103 -5.76702,0.7815 -1.89177,0.0482 -4.07491,-0.0253 -4.85142,-0.16338 z"
       class="UnoptimicedTransforms" />
    <path
       style="display:inline;fill:#e7b29b;stroke-width:0.264583;fill-opacity:1"
       d="m 15.485662,427.96494 c -0.8599,-1.25833 -1.19572,-2.89941 -1.78686,-4.09611 -0.5138,-1.03106 -1.27635,-1.86832 -2.97657,-3.2682 -1.2571894,-1.03512 -2.8031188,-2.36949 -3.4354082,-2.96526 -0.6322797,-0.59578 -1.5968491,-1.73808 -2.1434788,-2.53844 -0.5466297,-0.80037 -1.5009091,-2.5863 -2.1206188,-3.96875 -1.04909,-2.34031 -1.12561,-2.66854 -1.11033,-4.7625 0.009,-1.23693 0.19636,-3.43958 0.41629,-4.89479 0.21993,-1.45521 0.70426,-3.81735 1.0762897,-5.24921 0.3720297,-1.43185 1.0938594,-3.68425 1.6040591,-5.00533 0.5101997,-1.32108 2.0104788,-4.49226 3.3339382,-7.04707 1.3234691,-2.5548 2.9915588,-5.48162 3.7068588,-6.50404 0.71531,-1.02241 1.8594,-2.63284 2.54244,-3.57873 0.68303,-0.94588 2.03737,-2.50729 3.00964,-3.4698 0.97227,-0.9625 2.61248,-2.31157 3.64491,-2.99793 1.03243,-0.68636 2.86746,-1.64725 4.07785,-2.13532 1.21038,-0.48806 3.2635,-1.08825 4.56248,-1.33375 1.76061,-0.33274 3.13627,-0.40836 5.40449,-0.29707 1.8583,0.0912 3.79726,0.36374 4.98114,0.70019 1.06614,0.303 2.68982,0.8916 3.60817,1.308 0.91836,0.41641 2.42732,1.27086 3.35324,1.8988 0.92592,0.62793 2.26432,1.68329 2.97423,2.34523 0.70991,0.66194 1.81882,1.88894 2.46424,2.72667 0.64542,0.83773 1.69134,2.5046 2.32428,3.70417 0.63293,1.19956 1.40831,3.01446 1.72305,4.0331 0.31475,1.01865 0.70446,2.74506 0.86602,3.83646 0.16157,1.09141 0.2878,4.24656 0.28051,7.01146 -0.007,2.7649 -0.15813,6.27724 -0.33521,7.80521 -0.17709,1.52797 -0.72486,4.35268 -1.21728,6.27715 -0.49241,1.92446 -1.44193,4.78196 -2.11003,6.34999 -0.66811,1.56804 -1.31151,3.08911 -1.42977,3.38015 -0.11826,0.29104 -0.70355,1.14644 -1.30063,1.90088 -0.94319,1.19177 -1.24411,1.39549 -2.29389,1.55291 -0.74434,0.11163 -1.68696,0.0482 -2.45495,-0.16507 -0.90925,-0.25255 -1.64494,-0.74446 -2.71817,-1.81749 -0.9571,-0.95693 -1.69092,-2.00305 -2.0992,-2.99258 -0.36723,-0.89003 -0.79122,-1.52136 -1.02173,-1.52136 -0.21671,0 -0.85157,0.50602 -1.4108,1.12448 -0.55923,0.61846 -1.79593,2.01745 -2.74824,3.10885 -0.9523,1.09141 -2.75444,3.45292 -4.00475,5.24781 -2.17979,3.24173 -4.75422,5.63969 -7.96905,7.75726 -3.06276,2.07435 -7.475,1.47439 -9.26716,-1.45997 z m 267.478638,0 c 0.8599,-1.25833 1.19572,-2.89941 1.78686,-4.09611 0.5138,-1.03106 1.27635,-1.86832 2.97657,-3.2682 1.25719,-1.03512 2.80312,-2.36949 3.43541,-2.96526 0.63228,-0.59578 1.59684,-1.73808 2.14347,-2.53844 0.54663,-0.80037 1.50091,-2.5863 2.12062,-3.96875 1.04909,-2.34031 1.12561,-2.66854 1.11033,-4.7625 -0.009,-1.23693 -0.19636,-3.43958 -0.41629,-4.89479 -0.21993,-1.45521 -0.70426,-3.81735 -1.07629,-5.24921 -0.37203,-1.43185 -1.09386,-3.68425 -1.60406,-5.00533 -0.5102,-1.32108 -2.01047,-4.49226 -3.33393,-7.04707 -1.32347,-2.5548 -2.99156,-5.48162 -3.70686,-6.50404 -0.71531,-1.02241 -1.8594,-2.63284 -2.54244,-3.57873 -0.68303,-0.94588 -2.03737,-2.50729 -3.00964,-3.4698 -0.97227,-0.9625 -2.61248,-2.31157 -3.64491,-2.99793 -1.03243,-0.68636 -2.86746,-1.64725 -4.07785,-2.13532 -1.21038,-0.48806 -3.2635,-1.08825 -4.56248,-1.33375 -1.76061,-0.33274 -3.13627,-0.40836 -5.40449,-0.29707 -1.8583,0.0912 -3.79726,0.36374 -4.98114,0.70019 -1.06614,0.303 -2.68982,0.8916 -3.60817,1.308 -0.91836,0.41641 -2.42732,1.27086 -3.35324,1.8988 -0.92592,0.62793 -2.26432,1.68329 -2.97423,2.34523 -0.70991,0.66194 -1.81882,1.88894 -2.46424,2.72667 -0.64542,0.83773 -1.69134,2.5046 -2.32428,3.70417 -0.63293,1.19956 -1.40831,3.01446 -1.72305,4.0331 -0.31475,1.01865 -0.70446,2.74506 -0.86602,3.83646 -0.16157,1.09141 -0.2878,4.24656 -0.28051,7.01146 0.007,2.7649 0.15813,6.27724 0.33521,7.80521 0.17709,1.52797 0.72486,4.35268 1.21728,6.27715 0.49241,1.92446 1.44193,4.78196 2.11003,6.34999 0.66811,1.56804 1.31151,3.08911 1.42977,3.38015 0.11826,0.29104 0.70355,1.14644 1.30063,1.90088 0.94319,1.19177 1.24411,1.39549 2.29389,1.55291 0.74434,0.11163 1.68696,0.0482 2.45495,-0.16507 0.90925,-0.25255 1.64494,-0.74446 2.71817,-1.81749 0.9571,-0.95693 1.69092,-2.00305 2.0992,-2.99258 0.36723,-0.89003 0.79122,-1.52136 1.02173,-1.52136 0.21671,0 0.85157,0.50602 1.4108,1.12448 0.55923,0.61846 1.79593,2.01745 2.74824,3.10885 0.9523,1.09141 2.75444,3.45292 4.00475,5.24781 2.17979,3.24173 4.75422,5.63969 7.96905,7.75726 3.06276,2.07435 7.475,1.47439 9.26716,-1.45997 z"
       id="path600"
       inkscape:label="hand"
       sodipodi:nodetypes="ccsssssssssssssssssssssssscssssssssssssccc"
       inkscape:transform-center-x="4.5836291"
       inkscape:transform-center-y="9.8490269"
       transform="translate(230.72917,-333.99606)"
       inkscape:path-effect="#path-effect18071"
       inkscape:original-d="m 15.485662,427.96494 c -0.8599,-1.25833 -1.19572,-2.89941 -1.78686,-4.09611 -0.5138,-1.03106 -1.27635,-1.86832 -2.97657,-3.2682 -1.2571894,-1.03512 -2.8031188,-2.36949 -3.4354082,-2.96526 -0.6322797,-0.59578 -1.5968491,-1.73808 -2.1434788,-2.53844 -0.5466297,-0.80037 -1.5009091,-2.5863 -2.1206188,-3.96875 -1.04909,-2.34031 -1.12561,-2.66854 -1.11033,-4.7625 0.009,-1.23693 0.19636,-3.43958 0.41629,-4.89479 0.21993,-1.45521 0.70426,-3.81735 1.0762897,-5.24921 0.3720297,-1.43185 1.0938594,-3.68425 1.6040591,-5.00533 0.5101997,-1.32108 2.0104788,-4.49226 3.3339382,-7.04707 1.3234691,-2.5548 2.9915588,-5.48162 3.7068588,-6.50404 0.71531,-1.02241 1.8594,-2.63284 2.54244,-3.57873 0.68303,-0.94588 2.03737,-2.50729 3.00964,-3.4698 0.97227,-0.9625 2.61248,-2.31157 3.64491,-2.99793 1.03243,-0.68636 2.86746,-1.64725 4.07785,-2.13532 1.21038,-0.48806 3.2635,-1.08825 4.56248,-1.33375 1.76061,-0.33274 3.13627,-0.40836 5.40449,-0.29707 1.8583,0.0912 3.79726,0.36374 4.98114,0.70019 1.06614,0.303 2.68982,0.8916 3.60817,1.308 0.91836,0.41641 2.42732,1.27086 3.35324,1.8988 0.92592,0.62793 2.26432,1.68329 2.97423,2.34523 0.70991,0.66194 1.81882,1.88894 2.46424,2.72667 0.64542,0.83773 1.69134,2.5046 2.32428,3.70417 0.63293,1.19956 1.40831,3.01446 1.72305,4.0331 0.31475,1.01865 0.70446,2.74506 0.86602,3.83646 0.16157,1.09141 0.2878,4.24656 0.28051,7.01146 -0.007,2.7649 -0.15813,6.27724 -0.33521,7.80521 -0.17709,1.52797 -0.72486,4.35268 -1.21728,6.27715 -0.49241,1.92446 -1.44193,4.78196 -2.11003,6.34999 -0.66811,1.56804 -1.31151,3.08911 -1.42977,3.38015 -0.11826,0.29104 -0.70355,1.14644 -1.30063,1.90088 -0.94319,1.19177 -1.24411,1.39549 -2.29389,1.55291 -0.74434,0.11163 -1.68696,0.0482 -2.45495,-0.16507 -0.90925,-0.25255 -1.64494,-0.74446 -2.71817,-1.81749 -0.9571,-0.95693 -1.69092,-2.00305 -2.0992,-2.99258 -0.36723,-0.89003 -0.79122,-1.52136 -1.02173,-1.52136 -0.21671,0 -0.85157,0.50602 -1.4108,1.12448 -0.55923,0.61846 -1.79593,2.01745 -2.74824,3.10885 -0.9523,1.09141 -2.75444,3.45292 -4.00475,5.24781 -2.17979,3.24173 -4.75422,5.63969 -7.96905,7.75726 -3.06276,2.07435 -7.475,1.47439 -9.26716,-1.45997 z"
       class="UnoptimicedTransforms" />
    <path
       style="display:inline;fill:#e7b29b;stroke-width:0.304443;fill-opacity:1"
       d="m 328.8441,181.59521 c -1.81872,-0.25682 -4.47042,-0.70293 -5.89267,-0.99135 -1.42224,-0.28841 -3.029,-0.8118 -3.57057,-1.16309 -0.62815,-0.40746 -1.20772,-1.18025 -1.60071,-2.13443 -0.58192,-1.41282 -0.61262,-1.81092 -0.55396,-7.18194 0.0341,-3.12742 0.14254,-11.12466 0.24083,-17.77166 0.11447,-7.74054 0.27382,-12.06479 0.44324,-12.02796 0.14548,0.0317 2.58592,0.33522 5.4232,0.67465 3.61952,0.43302 7.72431,0.62006 13.75764,0.62684 6.03333,0.007 10.13853,-0.17103 13.75901,-0.59592 2.83803,-0.33306 5.27915,-0.63118 5.4247,-0.66246 0.16951,-0.0365 0.31915,4.28814 0.41621,12.02893 0.0833,6.64719 0.17375,14.64466 0.20089,17.77215 0.0466,5.37114 0.015,5.76916 -0.57008,7.18068 -0.39515,0.95329 -0.97644,1.72478 -1.60551,2.13082 -0.54236,0.35007 -2.15029,0.86801 -3.57318,1.151 -1.42288,0.28298 -4.25419,0.73855 -6.29179,1.01238 -2.0376,0.27383 -5.72877,0.47997 -8.2026,0.45809 -2.47384,-0.0219 -5.98592,-0.24992 -7.80465,-0.50673 z"
       id="path1807"
       inkscape:label="neck"
       inkscape:transform-center-y="-5.5257843"
       inkscape:transform-center-x="0.0068378265"
       transform="translate(42.891279,-232.92415)" />
    <path
       style="display:inline;fill:#e7b29b;fill-opacity:1;stroke-width:0.264583"
       d="m 337.0625,161.44531 c -1.51234,0.0274 -3.07979,0.0735 -4.70508,0.13477 -44.55686,1.6802 -49.14683,0.45402 -42.87695,40.59765 1.99098,12.74751 0.45683,29.38719 -1.37109,43.07227 -0.42055,3.14851 -1.13462,7.54576 -1.58594,9.77148 -0.45132,2.22573 -1.23517,7.03163 -1.74219,10.67969 -0.50702,3.64806 -1.34468,9.13351 -1.86133,12.18945 l -0.93945,5.55665 0.2832,5.55468 c 0.48427,9.51405 1.31266,11.74843 7.78125,20.98633 3.54554,5.06344 10.71146,10.58615 19.38867,14.94336 5.30126,2.66199 14.78331,5.04089 23.36329,5.86133 1.87894,0.17967 2.96741,0.26536 4.26562,0.24414 1.29821,0.0212 2.38668,-0.0645 4.26562,-0.24414 8.57998,-0.82044 18.06203,-3.19934 23.36329,-5.86133 8.67721,-4.35721 15.84508,-9.87992 19.39062,-14.94336 6.46859,-9.2379 7.29503,-11.47228 7.7793,-20.98633 l 0.2832,-5.55468 -0.93945,-5.55665 c -0.51665,-3.05593 -1.35431,-8.54139 -1.86133,-12.18945 -0.50702,-3.64806 -1.29087,-8.45396 -1.74219,-10.67969 -0.45132,-2.22572 -1.16343,-6.62297 -1.58398,-9.77148 -1.82793,-13.68508 -3.36208,-30.32476 -1.3711,-43.07227 6.26988,-40.14363 1.67796,-38.91745 -42.8789,-40.59765 -1.62529,-0.0613 -3.19274,-0.10735 -4.70508,-0.13477 z"
       id="path400"
       inkscape:label="torso"
       sodipodi:nodetypes="sssscssssssssssscsssss"
       inkscape:path-effect="#path-effect1675"
       inkscape:original-d="m 332.79702,330.79358 c -8.57997,-0.82044 -18.06168,-3.19916 -23.36294,-5.86115 -8.67721,-4.35721 -15.84404,-9.88102 -19.38958,-14.94446 -6.46859,-9.2379 -7.2966,-11.47106 -7.78087,-20.98511 l -0.28282,-5.55625 0.93938,-5.55625 c 0.51665,-3.05594 1.35421,-8.54103 1.86123,-12.18909 0.50702,-3.64806 1.29112,-8.45387 1.74244,-10.6796 0.45132,-2.22572 1.16467,-6.62282 1.58522,-9.77133 1.82793,-13.68508 3.36145,-30.32539 1.37047,-43.0729 -6.26988,-40.14363 -1.6788,-38.91759 42.87806,-40.59779 33.03093,-1.24557 42.24646,3.89337 47.58334,40.24299 1.84006,12.53268 4.24781,29.74262 6.07574,43.4277 0.42055,3.14851 1.1339,7.54561 1.58522,9.77133 0.45132,2.22573 1.23542,7.03154 1.74244,10.6796 0.50702,3.64806 1.34458,9.13315 1.86123,12.18909 l 0.93938,5.55625 -0.28282,5.55625 c -0.48427,9.51405 -1.31228,11.74721 -7.78087,20.98511 -3.54554,5.06344 -10.71236,10.58725 -19.38958,14.94446 -5.11924,2.57059 -14.76183,5.03794 -22.41533,5.73564 -5.14881,0.46937 -5.79402,0.47791 -9.47934,0.12551 z"
       class="UnoptimicedTransforms"
       transform="translate(42.891279,-232.92415)" />
    <path
       style="display:inline;fill:#e7b29b;stroke-width:0.264583;fill-opacity:1"
       d="m 293.50386,423.84347 c -1.33726,-0.10288 -3.18273,-0.3755 -4.10105,-0.60584 -0.91831,-0.23033 -2.02685,-0.55096 -2.46341,-0.71251 -0.43657,-0.16155 -1.62719,-0.64657 -2.64584,-1.07782 -1.01864,-0.43126 -2.85694,-1.44803 -4.0851,-2.25951 -1.22816,-0.81147 -3.14033,-2.38272 -4.24927,-3.49166 -1.10894,-1.10894 -2.68019,-3.02111 -3.49167,-4.24927 -0.81147,-1.22816 -1.8342,-3.06646 -2.27273,-4.0851 -0.43852,-1.01865 -0.9777,-2.39203 -1.19817,-3.05195 -0.22047,-0.65993 -0.59055,-2.11829 -0.82242,-3.24081 -0.23668,-1.14585 -0.43869,-3.52057 -0.46061,-5.41472 -0.0215,-1.85557 0.0352,-3.73096 0.126,-4.16752 0.49127,-4.21085 0.7662,-8.42187 1.24357,-12.7 1.49882,-14.47751 2.72372,-26.7098 3.96045,-40.21667 0.83532,-9.85646 2.2642,-17.03925 3.43836,-26.06146 0.15876,-1.23692 0.65289,-4.4466 1.09807,-7.13261 0.44519,-2.686 1.10162,-5.90069 1.45874,-7.14374 0.35711,-1.24306 1.00587,-3.02817 1.44167,-3.96692 0.4358,-0.93874 1.46707,-2.72468 2.29172,-3.96875 0.82464,-1.24406 2.45681,-3.22079 3.62704,-4.39273 1.17023,-1.17194 3.24572,-2.86581 4.61221,-3.76416 1.36649,-0.89835 3.56914,-2.04706 4.89479,-2.55269 1.32565,-0.50562 3.06511,-1.09935 3.86548,-1.31939 0.80036,-0.22004 2.70611,-0.53088 4.23498,-0.69075 1.99935,-0.20908 3.55798,-0.21083 5.55162,-0.006 1.52451,0.15645 3.61353,0.52063 4.64226,0.80929 1.02874,0.28866 2.623,0.81977 3.54281,1.18024 0.91981,0.36047 2.34239,1.03031 3.16129,1.48852 0.8189,0.45821 2.27761,1.41401 3.24156,2.12398 0.96396,0.70998 2.61033,2.19377 3.65859,3.29733 1.04827,1.10355 2.53332,2.97862 3.3001,4.16681 0.76679,1.1882 1.82404,3.17345 2.34944,4.41166 0.52541,1.2382 1.20537,3.26227 1.51103,4.49791 0.33667,1.36099 0.61225,3.55039 0.69908,5.55392 0.12039,2.77808 0.008,4.32338 -0.7013,9.65729 -0.46454,3.4925 -1.00737,7.4811 -1.20629,8.86354 -1.43483,9.32152 -2.09016,19.3764 -3.40501,28.12745 -1.13243,8.13331 -1.73757,16.29721 -2.81516,24.26005 -0.58594,4.29287 -1.42698,10.30552 -1.86898,13.36146 -0.442,3.05594 -1.09454,7.1636 -1.45009,9.12813 -0.35554,1.96453 -0.95568,4.52437 -1.33364,5.68854 -0.37796,1.16416 -1.10317,2.9501 -1.61159,3.96875 -0.50842,1.01864 -1.4455,2.64062 -2.08239,3.60439 -0.63689,0.96377 -1.97276,2.58671 -2.96859,3.60653 -0.99584,1.01983 -2.57434,2.4172 -3.50777,3.10529 -0.93344,0.68807 -2.62256,1.71694 -3.7536,2.28637 -1.13103,0.56942 -2.67885,1.26385 -3.43958,1.54318 -0.76073,0.27933 -2.12197,0.69527 -3.02498,0.9243 -0.90301,0.22904 -2.74848,0.50385 -4.10104,0.61068 -1.35257,0.10684 -3.55333,0.11009 -4.89058,0.007 z m 87.11802,0 c 1.33726,-0.10288 3.18273,-0.3755 4.10105,-0.60584 0.91831,-0.23033 2.02685,-0.55096 2.46341,-0.71251 0.43657,-0.16155 1.62719,-0.64657 2.64584,-1.07782 1.01864,-0.43126 2.85694,-1.44803 4.0851,-2.25951 1.22816,-0.81147 3.14033,-2.38272 4.24927,-3.49166 1.10894,-1.10894 2.68019,-3.02111 3.49167,-4.24927 0.81147,-1.22816 1.8342,-3.06646 2.27273,-4.0851 0.43852,-1.01865 0.9777,-2.39203 1.19817,-3.05195 0.22047,-0.65993 0.59055,-2.11829 0.82242,-3.24081 0.23668,-1.14585 0.43869,-3.52057 0.46061,-5.41472 0.0215,-1.85557 -0.0352,-3.73096 -0.126,-4.16752 -0.49127,-4.21085 -0.7662,-8.42187 -1.24357,-12.7 -1.49882,-14.47751 -2.72372,-26.7098 -3.96045,-40.21667 -0.83532,-9.85646 -2.2642,-17.03925 -3.43836,-26.06146 -0.15876,-1.23692 -0.65289,-4.4466 -1.09807,-7.13261 -0.44519,-2.686 -1.10162,-5.90069 -1.45874,-7.14374 -0.35711,-1.24306 -1.00587,-3.02817 -1.44167,-3.96692 -0.4358,-0.93874 -1.46707,-2.72468 -2.29172,-3.96875 -0.82464,-1.24406 -2.45681,-3.22079 -3.62704,-4.39273 -1.17023,-1.17194 -3.24572,-2.86581 -4.61221,-3.76416 -1.36649,-0.89835 -3.56914,-2.04706 -4.89479,-2.55269 -1.32565,-0.50562 -3.06511,-1.09935 -3.86548,-1.31939 -0.80036,-0.22004 -2.70611,-0.53088 -4.23498,-0.69075 -1.99935,-0.20908 -3.55798,-0.21083 -5.55162,-0.006 -1.52451,0.15645 -3.61353,0.52063 -4.64226,0.80929 -1.02874,0.28866 -2.623,0.81977 -3.54281,1.18024 -0.91981,0.36047 -2.34239,1.03031 -3.16129,1.48852 -0.8189,0.45821 -2.27761,1.41401 -3.24156,2.12398 -0.96396,0.70998 -2.61033,2.19377 -3.65859,3.29733 -1.04827,1.10355 -2.53332,2.97862 -3.3001,4.16681 -0.76679,1.1882 -1.82404,3.17345 -2.34944,4.41166 -0.52541,1.2382 -1.20537,3.26227 -1.51103,4.49791 -0.33667,1.36099 -0.61225,3.55039 -0.69908,5.55392 -0.12039,2.77808 -0.008,4.32338 0.7013,9.65729 0.46454,3.4925 1.00737,7.4811 1.20629,8.86354 1.43483,9.32152 2.09016,19.3764 3.40501,28.12745 1.13243,8.13331 1.73757,16.29721 2.81516,24.26005 0.58594,4.29287 1.42698,10.30552 1.86898,13.36146 0.442,3.05594 1.09454,7.1636 1.45009,9.12813 0.35554,1.96453 0.95568,4.52437 1.33364,5.68854 0.37796,1.16416 1.10317,2.9501 1.61159,3.96875 0.50842,1.01864 1.4455,2.64062 2.08239,3.60439 0.63689,0.96377 1.97276,2.58671 2.96859,3.60653 0.99584,1.01983 2.57434,2.4172 3.50777,3.10529 0.93344,0.68807 2.62256,1.71694 3.7536,2.28637 1.13103,0.56942 2.67885,1.26385 3.43958,1.54318 0.76073,0.27933 2.12197,0.69527 3.02498,0.9243 0.90301,0.22904 2.74848,0.50385 4.10104,0.61068 1.35257,0.10684 3.55333,0.11009 4.89058,0.007 z"
       id="path2268"
       inkscape:label="thigh"
       sodipodi:nodetypes="sssssssssssccccssssssssscsssssssssccccsssssssssssss"
       inkscape:transform-center-x="5.0687954"
       inkscape:transform-center-y="44.092696"
       transform="translate(42.891279,-232.92415)"
       inkscape:path-effect="#path-effect18065"
       inkscape:original-d="m 293.50386,423.84347 c -1.33726,-0.10288 -3.18273,-0.3755 -4.10105,-0.60584 -0.91831,-0.23033 -2.02685,-0.55096 -2.46341,-0.71251 -0.43657,-0.16155 -1.62719,-0.64657 -2.64584,-1.07782 -1.01864,-0.43126 -2.85694,-1.44803 -4.0851,-2.25951 -1.22816,-0.81147 -3.14033,-2.38272 -4.24927,-3.49166 -1.10894,-1.10894 -2.68019,-3.02111 -3.49167,-4.24927 -0.81147,-1.22816 -1.8342,-3.06646 -2.27273,-4.0851 -0.43852,-1.01865 -0.9777,-2.39203 -1.19817,-3.05195 -0.22047,-0.65993 -0.59055,-2.11829 -0.82242,-3.24081 -0.23668,-1.14585 -0.43869,-3.52057 -0.46061,-5.41472 -0.0215,-1.85557 0.0352,-3.73096 0.126,-4.16752 0.49127,-4.21085 0.7662,-8.42187 1.24357,-12.7 1.49882,-14.47751 2.72372,-26.7098 3.96045,-40.21667 0.83532,-9.85646 2.2642,-17.03925 3.43836,-26.06146 0.15876,-1.23692 0.65289,-4.4466 1.09807,-7.13261 0.44519,-2.686 1.10162,-5.90069 1.45874,-7.14374 0.35711,-1.24306 1.00587,-3.02817 1.44167,-3.96692 0.4358,-0.93874 1.46707,-2.72468 2.29172,-3.96875 0.82464,-1.24406 2.45681,-3.22079 3.62704,-4.39273 1.17023,-1.17194 3.24572,-2.86581 4.61221,-3.76416 1.36649,-0.89835 3.56914,-2.04706 4.89479,-2.55269 1.32565,-0.50562 3.06511,-1.09935 3.86548,-1.31939 0.80036,-0.22004 2.70611,-0.53088 4.23498,-0.69075 1.99935,-0.20908 3.55798,-0.21083 5.55162,-0.006 1.52451,0.15645 3.61353,0.52063 4.64226,0.80929 1.02874,0.28866 2.623,0.81977 3.54281,1.18024 0.91981,0.36047 2.34239,1.03031 3.16129,1.48852 0.8189,0.45821 2.27761,1.41401 3.24156,2.12398 0.96396,0.70998 2.61033,2.19377 3.65859,3.29733 1.04827,1.10355 2.53332,2.97862 3.3001,4.16681 0.76679,1.1882 1.82404,3.17345 2.34944,4.41166 0.52541,1.2382 1.20537,3.26227 1.51103,4.49791 0.33667,1.36099 0.61225,3.55039 0.69908,5.55392 0.12039,2.77808 0.008,4.32338 -0.7013,9.65729 -0.46454,3.4925 -1.00737,7.4811 -1.20629,8.86354 -1.43483,9.32152 -2.09016,19.3764 -3.40501,28.12745 -1.13243,8.13331 -1.73757,16.29721 -2.81516,24.26005 -0.58594,4.29287 -1.42698,10.30552 -1.86898,13.36146 -0.442,3.05594 -1.09454,7.1636 -1.45009,9.12813 -0.35554,1.96453 -0.95568,4.52437 -1.33364,5.68854 -0.37796,1.16416 -1.10317,2.9501 -1.61159,3.96875 -0.50842,1.01864 -1.4455,2.64062 -2.08239,3.60439 -0.63689,0.96377 -1.97276,2.58671 -2.96859,3.60653 -0.99584,1.01983 -2.57434,2.4172 -3.50777,3.10529 -0.93344,0.68807 -2.62256,1.71694 -3.7536,2.28637 -1.13103,0.56942 -2.67885,1.26385 -3.43958,1.54318 -0.76073,0.27933 -2.12197,0.69527 -3.02498,0.9243 -0.90301,0.22904 -2.74848,0.50385 -4.10104,0.61068 -1.35257,0.10684 -3.55333,0.11009 -4.89058,0.007 z"
       class="UnoptimicedTransforms" />
    <path
       style="display:inline;fill:#e7b29b;stroke-width:0.264583;fill-opacity:1"
       d="m 285.63165,548.34367 c -0.58208,-0.0511 -1.84157,-0.20756 -2.79886,-0.34775 -0.95729,-0.14019 -3.33853,-0.74658 -5.29166,-1.34754 -1.95313,-0.60096 -3.99104,-1.31648 -4.52869,-1.59006 -0.53765,-0.27357 -1.81706,-1.35034 -2.84314,-2.39282 -1.08652,-1.10389 -2.46157,-2.90023 -3.29274,-4.30157 -0.78493,-1.32338 -1.80116,-3.1542 -2.25828,-4.06847 -0.45713,-0.91429 -1.34813,-3.53366 -1.98002,-5.82084 -0.63189,-2.28718 -1.57324,-6.00397 -2.09188,-8.25955 -0.59086,-2.56959 -1.18927,-6.32411 -1.60249,-10.05416 -0.36271,-3.27422 -0.72356,-6.72703 -0.80187,-7.67292 -0.0783,-0.94588 -0.21953,-4.04151 -0.31379,-6.87917 -0.0943,-2.83765 -0.0374,-8.0764 0.12627,-11.64166 0.16373,-3.56526 0.35381,-7.61339 0.42241,-8.99584 0.0686,-1.38244 0.19059,-4.00182 0.27109,-5.82083 0.0805,-1.81901 0.20881,-4.25979 0.28514,-5.42396 0.0763,-1.16416 0.37724,-5.0271 0.6687,-8.58429 0.29146,-3.55719 0.57683,-6.54352 0.63415,-6.63627 0.0573,-0.0928 0.34571,-2.36154 0.64086,-5.04175 0.29514,-2.6802 0.71839,-7.07576 0.94055,-9.76789 0.22216,-2.69214 0.58837,-6.6212 0.8138,-8.73125 0.22544,-2.11006 0.64587,-5.74146 0.93431,-8.0698 0.28843,-2.32833 0.87106,-6.61458 1.29473,-9.525 0.42367,-2.91041 1.13639,-7.67291 1.58382,-10.58333 0.44742,-2.91042 1.04091,-6.1251 1.31886,-7.14375 0.27795,-1.01864 1.03028,-3.05866 1.67185,-4.53338 0.64157,-1.47471 1.74257,-3.5583 2.44668,-4.6302 0.7041,-1.07191 2.41907,-3.0878 3.81103,-4.47976 1.39196,-1.39196 3.4018,-3.1029 4.46631,-3.80209 1.06451,-0.69919 2.8643,-1.66299 3.99954,-2.14177 1.13524,-0.47879 2.94319,-1.1168 4.01766,-1.41781 1.07447,-0.30101 3.18567,-0.68703 4.69157,-0.85781 2.08363,-0.23631 3.41289,-0.23732 5.56194,-0.004 1.55316,0.16845 3.60794,0.53049 4.56617,0.80451 0.95823,0.27403 2.76633,0.91576 4.01801,1.42606 1.25168,0.51031 3.14403,1.49809 4.20521,2.19507 1.06118,0.69698 3.06691,2.40611 4.45715,3.79807 1.39025,1.39196 2.99273,3.24338 3.56107,4.11426 0.56834,0.87088 1.41173,2.35916 1.87421,3.30729 0.46247,0.94813 1.1459,2.64215 1.51872,3.76448 0.37282,1.12233 0.82433,2.7892 1.00336,3.70416 0.17902,0.91496 0.32299,3.21138 0.31993,5.10315 -0.004,2.55254 -0.2583,5.17955 -0.98554,10.18646 -0.53898,3.71078 -1.27266,8.49209 -1.63039,10.62513 -0.35773,2.13304 -0.89162,5.05007 -1.18641,6.48229 -0.2948,1.43222 -0.83263,5.04482 -1.19517,8.028 -0.36255,2.98317 -0.94823,7.09083 -1.30151,9.12812 -0.35327,2.03729 -1.00627,6.85932 -1.4511,10.71563 -0.44483,3.8563 -1.51867,13.26223 -2.38631,20.90208 -0.86764,7.63984 -1.82242,16.03375 -2.12173,18.65312 -0.29931,2.61938 -0.84134,7.14375 -1.20452,10.05417 -0.36317,2.91042 -0.77484,6.3037 -0.91482,7.54062 -0.13997,1.23693 -0.37222,4.21349 -0.5161,6.61459 -0.14388,2.40109 -0.33145,8.77093 -0.41684,14.15521 -0.0854,5.38427 -0.27071,10.86114 -0.41184,12.17083 -0.16236,1.50672 -0.42913,2.62417 -0.72639,3.04271 -0.26083,0.36725 -1.8169,1.33861 -3.49848,2.1839 -2.98451,1.50024 -3.07502,1.52623 -6.2037,1.78175 -1.74625,0.14262 -4.96093,0.24117 -7.14375,0.21902 -2.18281,-0.0222 -4.445,-0.0821 -5.02708,-0.13316 z m 102.86244,0 c 0.58208,-0.0511 1.84157,-0.20756 2.79886,-0.34775 0.95729,-0.14019 3.33853,-0.74658 5.29166,-1.34754 1.95313,-0.60096 3.99104,-1.31648 4.52869,-1.59006 0.53765,-0.27357 1.81706,-1.35034 2.84314,-2.39282 1.08652,-1.10389 2.46157,-2.90023 3.29274,-4.30157 0.78493,-1.32338 1.80116,-3.1542 2.25828,-4.06847 0.45713,-0.91429 1.34813,-3.53366 1.98002,-5.82084 0.63189,-2.28718 1.57324,-6.00397 2.09188,-8.25955 0.59086,-2.56959 1.18927,-6.32411 1.60249,-10.05416 0.36271,-3.27422 0.72356,-6.72703 0.80187,-7.67292 0.0783,-0.94588 0.21953,-4.04151 0.31379,-6.87917 0.0943,-2.83765 0.0374,-8.0764 -0.12627,-11.64166 -0.16373,-3.56526 -0.35381,-7.61339 -0.42241,-8.99584 -0.0686,-1.38244 -0.19059,-4.00182 -0.27109,-5.82083 -0.0805,-1.81901 -0.20881,-4.25979 -0.28514,-5.42396 -0.0763,-1.16416 -0.37724,-5.0271 -0.6687,-8.58429 -0.29146,-3.55719 -0.57683,-6.54352 -0.63415,-6.63627 -0.0573,-0.0928 -0.34571,-2.36154 -0.64086,-5.04175 -0.29514,-2.6802 -0.71839,-7.07576 -0.94055,-9.76789 -0.22216,-2.69214 -0.58837,-6.6212 -0.8138,-8.73125 -0.22544,-2.11006 -0.64587,-5.74146 -0.93431,-8.0698 -0.28843,-2.32833 -0.87106,-6.61458 -1.29473,-9.525 -0.42367,-2.91041 -1.13639,-7.67291 -1.58382,-10.58333 -0.44742,-2.91042 -1.04091,-6.1251 -1.31886,-7.14375 -0.27795,-1.01864 -1.03028,-3.05866 -1.67185,-4.53338 -0.64157,-1.47471 -1.74257,-3.5583 -2.44668,-4.6302 -0.7041,-1.07191 -2.41907,-3.0878 -3.81103,-4.47976 -1.39196,-1.39196 -3.4018,-3.1029 -4.46631,-3.80209 -1.06451,-0.69919 -2.8643,-1.66299 -3.99954,-2.14177 -1.13524,-0.47879 -2.94319,-1.1168 -4.01766,-1.41781 -1.07447,-0.30101 -3.18567,-0.68703 -4.69157,-0.85781 -2.08363,-0.23631 -3.41289,-0.23732 -5.56194,-0.004 -1.55316,0.16845 -3.60794,0.53049 -4.56617,0.80451 -0.95823,0.27403 -2.76633,0.91576 -4.01801,1.42606 -1.25168,0.51031 -3.14403,1.49809 -4.20521,2.19507 -1.06118,0.69698 -3.06691,2.40611 -4.45715,3.79807 -1.39025,1.39196 -2.99273,3.24338 -3.56107,4.11426 -0.56834,0.87088 -1.41173,2.35916 -1.87421,3.30729 -0.46247,0.94813 -1.1459,2.64215 -1.51872,3.76448 -0.37282,1.12233 -0.82433,2.7892 -1.00336,3.70416 -0.17902,0.91496 -0.32299,3.21138 -0.31993,5.10315 0.004,2.55254 0.2583,5.17955 0.98554,10.18646 0.53898,3.71078 1.27266,8.49209 1.63039,10.62513 0.35773,2.13304 0.89162,5.05007 1.18641,6.48229 0.2948,1.43222 0.83263,5.04482 1.19517,8.028 0.36255,2.98317 0.94823,7.09083 1.30151,9.12812 0.35327,2.03729 1.00627,6.85932 1.4511,10.71563 0.44483,3.8563 1.51867,13.26223 2.38631,20.90208 0.86764,7.63984 1.82242,16.03375 2.12173,18.65312 0.29931,2.61938 0.84134,7.14375 1.20452,10.05417 0.36317,2.91042 0.77484,6.3037 0.91482,7.54062 0.13997,1.23693 0.37222,4.21349 0.5161,6.61459 0.14388,2.40109 0.33145,8.77093 0.41684,14.15521 0.0854,5.38427 0.27071,10.86114 0.41184,12.17083 0.16236,1.50672 0.42913,2.62417 0.72639,3.04271 0.26083,0.36725 1.8169,1.33861 3.49848,2.1839 2.98451,1.50024 3.07502,1.52623 6.2037,1.78175 1.74625,0.14262 4.96093,0.24117 7.14375,0.21902 2.18281,-0.0222 4.445,-0.0821 5.02708,-0.13316 z"
       id="path2282"
       inkscape:label="calf"
       inkscape:transform-center-x="4.8707451"
       inkscape:transform-center-y="62.137684"
       transform="translate(42.891279,-232.92415)"
       inkscape:path-effect="#path-effect18031"
       inkscape:original-d="m 285.63165,548.34367 c -0.58208,-0.0511 -1.84157,-0.20756 -2.79886,-0.34775 -0.95729,-0.14019 -3.33853,-0.74658 -5.29166,-1.34754 -1.95313,-0.60096 -3.99104,-1.31648 -4.52869,-1.59006 -0.53765,-0.27357 -1.81706,-1.35034 -2.84314,-2.39282 -1.08652,-1.10389 -2.46157,-2.90023 -3.29274,-4.30157 -0.78493,-1.32338 -1.80116,-3.1542 -2.25828,-4.06847 -0.45713,-0.91429 -1.34813,-3.53366 -1.98002,-5.82084 -0.63189,-2.28718 -1.57324,-6.00397 -2.09188,-8.25955 -0.59086,-2.56959 -1.18927,-6.32411 -1.60249,-10.05416 -0.36271,-3.27422 -0.72356,-6.72703 -0.80187,-7.67292 -0.0783,-0.94588 -0.21953,-4.04151 -0.31379,-6.87917 -0.0943,-2.83765 -0.0374,-8.0764 0.12627,-11.64166 0.16373,-3.56526 0.35381,-7.61339 0.42241,-8.99584 0.0686,-1.38244 0.19059,-4.00182 0.27109,-5.82083 0.0805,-1.81901 0.20881,-4.25979 0.28514,-5.42396 0.0763,-1.16416 0.37724,-5.0271 0.6687,-8.58429 0.29146,-3.55719 0.57683,-6.54352 0.63415,-6.63627 0.0573,-0.0928 0.34571,-2.36154 0.64086,-5.04175 0.29514,-2.6802 0.71839,-7.07576 0.94055,-9.76789 0.22216,-2.69214 0.58837,-6.6212 0.8138,-8.73125 0.22544,-2.11006 0.64587,-5.74146 0.93431,-8.0698 0.28843,-2.32833 0.87106,-6.61458 1.29473,-9.525 0.42367,-2.91041 1.13639,-7.67291 1.58382,-10.58333 0.44742,-2.91042 1.04091,-6.1251 1.31886,-7.14375 0.27795,-1.01864 1.03028,-3.05866 1.67185,-4.53338 0.64157,-1.47471 1.74257,-3.5583 2.44668,-4.6302 0.7041,-1.07191 2.41907,-3.0878 3.81103,-4.47976 1.39196,-1.39196 3.4018,-3.1029 4.46631,-3.80209 1.06451,-0.69919 2.8643,-1.66299 3.99954,-2.14177 1.13524,-0.47879 2.94319,-1.1168 4.01766,-1.41781 1.07447,-0.30101 3.18567,-0.68703 4.69157,-0.85781 2.08363,-0.23631 3.41289,-0.23732 5.56194,-0.004 1.55316,0.16845 3.60794,0.53049 4.56617,0.80451 0.95823,0.27403 2.76633,0.91576 4.01801,1.42606 1.25168,0.51031 3.14403,1.49809 4.20521,2.19507 1.06118,0.69698 3.06691,2.40611 4.45715,3.79807 1.39025,1.39196 2.99273,3.24338 3.56107,4.11426 0.56834,0.87088 1.41173,2.35916 1.87421,3.30729 0.46247,0.94813 1.1459,2.64215 1.51872,3.76448 0.37282,1.12233 0.82433,2.7892 1.00336,3.70416 0.17902,0.91496 0.32299,3.21138 0.31993,5.10315 -0.004,2.55254 -0.2583,5.17955 -0.98554,10.18646 -0.53898,3.71078 -1.27266,8.49209 -1.63039,10.62513 -0.35773,2.13304 -0.89162,5.05007 -1.18641,6.48229 -0.2948,1.43222 -0.83263,5.04482 -1.19517,8.028 -0.36255,2.98317 -0.94823,7.09083 -1.30151,9.12812 -0.35327,2.03729 -1.00627,6.85932 -1.4511,10.71563 -0.44483,3.8563 -1.51867,13.26223 -2.38631,20.90208 -0.86764,7.63984 -1.82242,16.03375 -2.12173,18.65312 -0.29931,2.61938 -0.84134,7.14375 -1.20452,10.05417 -0.36317,2.91042 -0.77484,6.3037 -0.91482,7.54062 -0.13997,1.23693 -0.37222,4.21349 -0.5161,6.61459 -0.14388,2.40109 -0.33145,8.77093 -0.41684,14.15521 -0.0854,5.38427 -0.27071,10.86114 -0.41184,12.17083 -0.16236,1.50672 -0.42913,2.62417 -0.72639,3.04271 -0.26083,0.36725 -1.8169,1.33861 -3.49848,2.1839 -2.98451,1.50024 -3.07502,1.52623 -6.2037,1.78175 -1.74625,0.14262 -4.96093,0.24117 -7.14375,0.21902 -2.18281,-0.0222 -4.445,-0.0821 -5.02708,-0.13316 z"
       class="UnoptimicedTransforms" />
  </g>
</svg>
