<?xml version="1.0" encoding="UTF-8" standalone="no"?>
<!-- Created with Inkscape (http://www.inkscape.org/) -->

<svg
   width="158.15996mm"
   height="199.56635mm"
   viewBox="0 0 158.15996 199.56635"
   version="1.1"
   id="svg379"
   inkscape:version="1.2.2 (b0a8486541, 2022-12-01)"
   sodipodi:docname="dress_icon.svg"
   xmlns:inkscape="http://www.inkscape.org/namespaces/inkscape"
   xmlns:sodipodi="http://sodipodi.sourceforge.net/DTD/sodipodi-0.dtd"
   xmlns="http://www.w3.org/2000/svg"
   xmlns:svg="http://www.w3.org/2000/svg">
  <sodipodi:namedview
     id="namedview381"
     pagecolor="#ffffff"
     bordercolor="#000000"
     borderopacity="0.25"
     inkscape:showpageshadow="2"
     inkscape:pageopacity="0.0"
     inkscape:pagecheckerboard="0"
     inkscape:deskcolor="#d1d1d1"
     inkscape:document-units="mm"
     showgrid="false"
     inkscape:zoom="0.73049944"
     inkscape:cx="174.53812"
     inkscape:cy="418.89149"
     inkscape:window-width="1920"
     inkscape:window-height="1012"
     inkscape:window-x="0"
     inkscape:window-y="0"
     inkscape:window-maximized="1"
     inkscape:current-layer="layer1" />
  <defs
     id="defs376" />
  <g
     inkscape:label="Layer 1"
     inkscape:groupmode="layer"
     id="layer1"
     transform="translate(-17.263925,48.71366)">
    <path
       id="path2009"
       style="display:inline;fill:#bed4a6;stroke-width:0.264583;fill-opacity:1"
       d="m 73.316736,-48.71366 c -6.52729,0.16271 -10.96712,0.86559 -16.14837,2.41794 -3.41204,5.02588 -4.02924,7.23225 -5.17591,12.29124 -1.70647,7.52877 -3.72518,25.64544 -5.78311,46.52326 -0.13758,1.39574 -1.487356,6.74027 -2.779678,11.90625 -4.835026,19.32771 -8.087074,34.14603 -9.640238,43.92187 -0.21964,1.38245 -0.872921,4.53606 -1.449524,7.0099 -2.915755,12.50973 -5.68276,27.53941 -6.794934,36.90628 -0.370639,3.12157 -0.580787,3.9501 -1.679484,6.6151 -0.690752,1.67549 -1.414679,3.46304 -1.609721,3.97237 -0.195043,0.50932 -1.041787,2.23521 -1.880505,3.83594 -4.638212,8.85221 -4.294978,10.88844 2.413806,14.32832 1.688621,0.86583 8.209553,1.23686 11.113533,0.63304 0.800365,-0.16642 2.32495,-0.47074 3.388424,-0.67593 1.063474,-0.20519 3.210823,-0.73512 4.773352,-1.17771 4.255559,-1.2054 5.091749,-0.90279 9.783379,3.53105 6.04738,5.71509 13.36076,6.58471 20.94704,2.49029 4.09362,-2.20937 3.99169,-2.17196 5.83634,-2.17196 h 1.75958 l 2.35335,1.86914 c 3.46859,2.75355 6.50695,4.39994 9.10952,4.93768 1.48907,0.30767 2.98954,0.43714 4.49016,0.39429 1.50062,0.0428 3.0011,-0.0867 4.490174,-0.39429 2.60257,-0.53774 5.64092,-2.18413 9.10952,-4.93768 l 2.35335,-1.86914 h 1.76009 c 1.84465,0 1.74222,-0.0374 5.83582,2.17196 7.5863,4.09442 14.89967,3.2248 20.94705,-2.49029 4.69163,-4.43384 5.52782,-4.73645 9.78338,-3.53105 1.56253,0.44259 3.70988,0.97252 4.77335,1.17771 1.06348,0.20519 2.58858,0.50951 3.38894,0.67593 2.90399,0.60382 9.4244,0.23279 11.11302,-0.63304 6.70879,-3.43988 7.05252,-5.47611 2.41432,-14.32832 -0.83872,-1.60073 -1.68598,-3.32662 -1.88102,-3.83594 -0.19504,-0.50933 -0.91845,-2.29688 -1.60921,-3.97237 -1.0987,-2.665 -1.30936,-3.49353 -1.68,-6.6151 -1.11217,-9.36687 -3.87917,-24.39655 -6.79493,-36.90628 -0.5766,-2.47384 -1.22937,-5.62745 -1.44901,-7.0099 -1.55316,-9.77584 -4.80573,-24.59416 -9.64075,-43.92187 -1.29232,-5.16598 -2.64158,-10.51051 -2.77916,-11.90625 -2.05793,-20.87782 -4.07664,-38.99449 -5.78311,-46.52326 -1.14667,-5.05899 -1.76388,-7.26536 -5.17591,-12.29124 -5.18127,-1.55235 -9.62109,-2.25523 -16.14837,-2.41794 0.56868,4.9551 0.44904,8.55789 0.3359,13.42554 l -1.29708,-0.18552 c -1.25175,-0.18009 -7.47162,-0.91476 -12.9372,-1.52704 -1.70791,-0.19133 -5.4189,-0.28732 -9.129164,-0.28732 -3.71025,0 -7.42073,0.096 -9.12864,0.28732 -5.46557,0.61228 -11.68596,1.34695 -12.93771,1.52704 l -1.29656,0.18552 c -0.11314,-4.86765 -0.23278,-8.47044 0.3359,-13.42554 z m 28.245304,181.71811 c 0.0278,0.0278 0.0464,0.1208 0.0527,0.27492 0.0115,0.27891 -0.0511,0.43517 -0.13901,0.34726 -0.0879,-0.0879 -0.0971,-0.31647 -0.0207,-0.50746 0.0422,-0.10554 0.0792,-0.14254 0.10697,-0.11472 z" />
    <path
       style="display:inline;fill:#d44476;stroke-width:0.264583;fill-opacity:1"
       d="m 84.185276,-4.39888 c -0.90863,-1.15513 -0.009,-4.3606 2.79256,-9.94573 0.49082,-0.97864 0.8925,-1.81208 0.89261,-1.85209 1.1e-4,-0.04 -1.1293,-0.0315 -2.5098,0.0188 -6.52942,0.23818 -7.32,-2.95914 -2.00369,-8.10347 3.96529,-3.83703 9.63703,-5.23883 12.04471,-2.97693 0.72158,0.67788 1.1489,0.67788 1.87047,0 2.40769,-2.2619 8.079434,-0.8601 12.044724,2.97693 5.31631,5.14433 4.52573,8.34165 -2.00369,8.10347 -1.3805,-0.0504 -2.50991,-0.0588 -2.5098,-0.0188 1.1e-4,0.04 0.40179,0.87345 0.89261,1.85209 3.65522,7.28802 4.08602,10.64287 1.36666,10.64287 -1.21022,0 -1.82078,-0.63638 -2.53847,-2.64583 -1.39533,-3.90676 -3.08384,-7.37553 -7.436744,-15.27751 -0.85639,-1.55464 -0.33089,-2.15012 -3.95549,4.48226 -1.93365,3.53823 -3.95341,7.91449 -4.98229,10.79525 -0.96267,2.69535 -2.70382,3.55122 -3.96437,1.94869 z m 4.26425,-17.27353 c 2.78793,-1.86468 3.26934,-2.4379 1.76324,-2.09951 -1.41955,0.31896 -2.44586,0.94972 -3.78529,2.32643 -1.52394,1.56637 -0.48478,1.44975 2.02205,-0.22692 z m 17.796804,0.22692 c -1.33942,-1.37671 -2.36574,-2.00747 -3.78528,-2.32643 -1.5061,-0.33839 -1.02469,0.23483 1.76324,2.09951 2.50683,1.67667 3.54599,1.79329 2.02204,0.22692 z"
       id="path2641" />
  </g>
</svg>
