<?xml version="1.0" encoding="UTF-8" standalone="no"?>
<!-- Created with Inkscape (http://www.inkscape.org/) -->

<svg
   width="76.110703mm"
   height="79.413101mm"
   viewBox="0 0 76.110703 79.413101"
   version="1.1"
   id="svg4697"
   inkscape:version="1.2.2 (b0a8486541, 2022-12-01)"
   sodipodi:docname="flower.svg"
   xmlns:inkscape="http://www.inkscape.org/namespaces/inkscape"
   xmlns:sodipodi="http://sodipodi.sourceforge.net/DTD/sodipodi-0.dtd"
   xmlns="http://www.w3.org/2000/svg"
   xmlns:svg="http://www.w3.org/2000/svg">
  <sodipodi:namedview
     id="namedview4699"
     pagecolor="#ffffff"
     bordercolor="#000000"
     borderopacity="0.25"
     inkscape:showpageshadow="2"
     inkscape:pageopacity="0.0"
     inkscape:pagecheckerboard="0"
     inkscape:deskcolor="#d1d1d1"
     inkscape:document-units="mm"
     showgrid="false"
     inkscape:zoom="0.73049944"
     inkscape:cx="112.93643"
     inkscape:cy="150.58191"
     inkscape:window-width="1920"
     inkscape:window-height="1012"
     inkscape:window-x="0"
     inkscape:window-y="0"
     inkscape:window-maximized="1"
     inkscape:current-layer="layer1" />
  <defs
     id="defs4694" />
  <g
     inkscape:label="Layer 1"
     inkscape:groupmode="layer"
     id="layer1"
     transform="translate(-57.38306,-108.79345)">
    <path
       id="path4205"
       style="display:inline;fill:#78944a;fill-opacity:1;stroke-width:2.64583"
       d="m 70.8086,108.79345 c -3.20555,1.7432 -0.9155,7.18659 -1.59538,10.40227 -0.23313,6.9295 0.57144,14.68368 5.99097,19.65692 2.25953,2.77998 5.73306,3.80562 8.99094,4.52852 1.92624,1.07016 3.85247,2.14033 5.77871,3.21049 2.93738,-6.3726 1.4102,-13.71121 -0.39644,-20.19601 -1.99173,-6.97908 -7.34835,-12.55464 -13.79722,-15.67966 -1.5662,-0.81829 -3.17207,-1.77029 -4.97158,-1.92253 z m 19.16524,37.7982 c -1.93239,1.57691 1.1864,0.38116 0.07,0.0389 z m 39.61101,-22.1604 c -5.29039,0.51554 -10.63181,1.57539 -15.54293,3.63968 -5.1553,2.14238 -9.92217,6.4072 -10.5348,12.2344 -0.77168,3.44654 0.58822,7.48698 4.24371,8.56705 2.34935,0.84899 4.84165,2.69065 7.35452,1.1921 8.30968,-4.51131 11.71683,-13.99789 15.04784,-22.27452 0.342,-1.19312 2.0895,-3.79481 -0.56834,-3.35871 z m -49.58302,30.17283 c -5.93023,0.31633 -9.79902,5.60541 -13.16805,9.89497 -2.94093,3.8093 -6.79359,6.89577 -9.45072,10.90945 3.35937,2.54973 8.39003,0.9721 12.33743,0.56848 5.85138,-1.0821 12.87159,-2.19277 16.25075,-7.70748 2.32829,-4.13406 1.0953,-9.73444 -2.4262,-12.73326 -1.08687,-0.58045 -2.30741,-0.92554 -3.54321,-0.93216 z m 31.95878,5.49941 c -5.17989,-0.022 -10.28923,4.29494 -9.9379,9.72499 -0.28774,6.44156 5.26557,11.47958 11.17068,12.84257 3.41034,0.6924 8.45923,1.97829 11.06291,0.40235 -1.22435,-6.72154 -2.83116,-13.54443 -6.15698,-19.56247 -1.29979,-2.12005 -3.62244,-3.49341 -6.13871,-3.40744 z"
       inkscape:transform-center-x="-99.641827"
       inkscape:transform-center-y="-148.98835" />
    <path
       style="display:inline;fill:#951c1c;fill-opacity:1;stroke-width:2.64583"
       d="m 85.82906,135.88733 c -2.36363,-4.25356 -0.82787,-9.37326 0.97816,-13.54039 3.22471,-6.6197 9.61445,-12.33453 17.17822,-12.9167 6.47692,0.62114 10.41788,7.36849 10.56233,13.41563 0.50133,6.50518 -1.49288,13.07774 -5.26284,18.37014 2.94832,-5.238 10.15403,-4.98345 15.09983,-3.17997 4.68533,1.36304 8.22188,5.51998 8.71063,10.38875 1.50151,7.10623 -1.285,15.08513 -7.62402,18.93387 -5.91506,3.99852 -15.20352,3.20496 -19.21552,-3.09036 2.77299,2.3645 3.18686,6.48179 4.42288,9.76034 1.39407,4.69993 0.32367,10.96031 -4.75195,12.93221 -8.17425,3.28167 -17.86382,-0.26895 -23.56363,-6.57892 -3.40468,-3.66746 -4.46021,-9.16871 -2.49637,-13.80177 0.0151,-2.20934 3.69763,-4.60578 0.055,-2.94362 -6.93333,0.62498 -13.49595,-3.57489 -17.86969,-8.66148 -3.71379,-4.21171 -5.66988,-10.59858 -2.78909,-15.78279 2.59166,-5.93142 9.74111,-7.5199 15.60222,-6.88584 3.97454,0.0157 7.37019,2.21087 10.96383,3.5809 z"
       id="path4201"
       inkscape:transform-center-x="-101.12088"
       inkscape:transform-center-y="-146.47896" />
    <circle
       style="display:inline;fill:#dfb75b;fill-opacity:1;stroke-width:2.64583"
       id="path4348"
       cx="98.091721"
       cy="150.50957"
       r="9.286562"
       inkscape:transform-center-x="-103.52549"
       inkscape:transform-center-y="-144.78779" />
  </g>
</svg>
