<?xml version="1.0" encoding="UTF-8" standalone="no"?>
<!-- Created with Inkscape (http://www.inkscape.org/) -->

<svg
   width="1138.7535"
   height="1510.2017"
   viewBox="0 0 301.29521 399.57419"
   version="1.1"
   id="svg5"
   xml:space="preserve"
   inkscape:version="1.2.2 (b0a8486541, 2022-12-01)"
   sodipodi:docname="hair_back_long_icon.svg"
   xmlns:inkscape="http://www.inkscape.org/namespaces/inkscape"
   xmlns:sodipodi="http://sodipodi.sourceforge.net/DTD/sodipodi-0.dtd"
   xmlns="http://www.w3.org/2000/svg"
   xmlns:svg="http://www.w3.org/2000/svg"><sodipodi:namedview
     id="namedview7"
     pagecolor="#2c2c2c"
     bordercolor="#000000"
     borderopacity="0.25"
     inkscape:showpageshadow="2"
     inkscape:pageopacity="0"
     inkscape:pagecheckerboard="0"
     inkscape:deskcolor="#d1d1d1"
     inkscape:document-units="px"
     showgrid="false"
     inkscape:zoom="0.1767767"
     inkscape:cx="-466.69046"
     inkscape:cy="859.84182"
     inkscape:window-width="1920"
     inkscape:window-height="1012"
     inkscape:window-x="0"
     inkscape:window-y="0"
     inkscape:window-maximized="1"
     inkscape:current-layer="layer1"
     showguides="true"
     shape-rendering="crispEdges" /><defs
     id="defs2"><inkscape:path-effect
       effect="mirror_symmetry"
       start_point="264.18598,163.17178"
       end_point="264.18598,629.36761"
       center_point="264.18598,396.2697"
       id="path-effect1346"
       is_visible="true"
       lpeversion="1.2"
       lpesatellites=""
       mode="vertical"
       discard_orig_path="false"
       fuse_paths="true"
       oposite_fuse="false"
       split_items="false"
       split_open="false"
       link_styles="false" /></defs><g
     inkscape:label="Layer 1"
     inkscape:groupmode="layer"
     id="layer1"
     transform="translate(-155.53987,-151.1722)"><path
       style="display:inline;fill:#000000;stroke-width:0.264583"
       d="m 158.9519,525.90409 c -3.19449,-7.64551 -4.69444,-193.51706 -2.0611,-218.40116 1.86951,-17.66621 5.69335,-34.45406 12.68585,-55.6948 2.9874,-9.07468 8.83067,-21.49763 14.68505,-31.22083 0.9638,-1.60073 2.32671,-3.92245 3.02869,-5.15937 2.49658,-4.39914 7.76899,-11.10201 16.54545,-21.03438 13.90617,-15.73769 44.54806,-34.362 64.43572,-39.16436 26.45204,-6.38749 64.28843,-5.09605 85.32812,2.91246 16.78757,6.38998 43.68019,24.21296 50.87422,32.03572 7.81178,7.75776 15.25346,15.90177 20.40439,24.72139 0.7102,1.23693 2.21136,3.79677 3.3359,5.68854 8.15731,13.72265 13.8771,27.00333 17.94748,41.67188 0.14134,0.50932 0.79195,2.77151 1.44584,5.02708 9.19964,31.73438 11.64901,218.78597 6.76861,249.55318 -48.95158,43.86542 -218.78968,43.29978 -295.42422,9.06465 z"
       id="path1618-3-6"
       inkscape:label="hair_back"
       sodipodi:nodetypes="csssssssccssccc"
       inkscape:transform-center-x="-0.11400965"
       inkscape:transform-center-y="69.304374" /></g></svg>
