<?xml version="1.0" encoding="UTF-8" standalone="no"?>
<!-- Created with Inkscape (http://www.inkscape.org/) -->

<svg
   width="183.07123mm"
   height="249.92671mm"
   viewBox="0 0 183.07123 249.92672"
   version="1.1"
   id="svg379"
   inkscape:version="1.2.2 (b0a8486541, 2022-12-01)"
   sodipodi:docname="pants_icon.svg"
   xmlns:inkscape="http://www.inkscape.org/namespaces/inkscape"
   xmlns:sodipodi="http://sodipodi.sourceforge.net/DTD/sodipodi-0.dtd"
   xmlns="http://www.w3.org/2000/svg"
   xmlns:svg="http://www.w3.org/2000/svg">
  <sodipodi:namedview
     id="namedview381"
     pagecolor="#ffffff"
     bordercolor="#000000"
     borderopacity="0.25"
     inkscape:showpageshadow="2"
     inkscape:pageopacity="0.0"
     inkscape:pagecheckerboard="0"
     inkscape:deskcolor="#d1d1d1"
     inkscape:document-units="mm"
     showgrid="false"
     inkscape:zoom="0.36524972"
     inkscape:cx="-576.31803"
     inkscape:cy="774.81237"
     inkscape:window-width="1920"
     inkscape:window-height="1012"
     inkscape:window-x="0"
     inkscape:window-y="0"
     inkscape:window-maximized="1"
     inkscape:current-layer="layer1" />
  <defs
     id="defs376">
    <inkscape:path-effect
       effect="mirror_symmetry"
       start_point="96.343904,-48.71366"
       end_point="96.343904,150.85269"
       center_point="96.343904,51.069513"
       id="path-effect3349"
       is_visible="true"
       lpeversion="1.2"
       lpesatellites=""
       mode="vertical"
       discard_orig_path="false"
       fuse_paths="false"
       oposite_fuse="false"
       split_items="false"
       split_open="false"
       link_styles="false" />
    <inkscape:path-effect
       effect="mirror_symmetry"
       start_point="96.343904,-48.71366"
       end_point="96.343904,150.85269"
       center_point="96.343904,51.069513"
       id="path-effect3347"
       is_visible="true"
       lpeversion="1.2"
       lpesatellites=""
       mode="vertical"
       discard_orig_path="false"
       fuse_paths="false"
       oposite_fuse="false"
       split_items="false"
       split_open="false"
       link_styles="false" />
  </defs>
  <g
     inkscape:label="Layer 1"
     inkscape:groupmode="layer"
     id="layer1"
     transform="translate(-4.8082888,22.659168)">
    <path
       style="display:inline;fill:#76a2af;fill-opacity:1;stroke-width:0.264583"
       d="m 42.925973,226.93915 c -0.7276,-0.21358 -1.55913,-0.33198 -1.84785,-0.26312 -0.28871,0.0689 -1.24121,-0.0401 -2.11666,-0.24203 -0.87546,-0.20198 -3.32972,-0.67031 -5.45393,-1.04073 -4.53594,-0.79099 -11.89841,-2.94641 -14.91433,-4.36629 -5.62925,-2.65022 -12.16141,-9.58009 -13.37058,-14.18463 -0.83448,-3.17772 -0.39233,-12.63973 1.18072,-25.26771 0.49851,-4.00182 1.09963,-9.00245 1.33584,-11.1125 0.58874,-5.25915 2.05867,-15.75728 3.29715,-23.54791 0.56677,-3.56526 1.40676,-8.86354 1.86665,-11.77396 0.82576,-5.22586 1.43514,-8.40161 3.30004,-17.19792 0.52448,-2.47385 1.42138,-7.21581 1.99312,-10.53768 0.57173,-3.32187 1.26759,-7.01281 1.54633,-8.20208 0.27875,-1.18928 0.82621,-3.94826 1.21658,-6.13107 1.39674,-7.81019 2.68568,-11.37269 5.83942,-16.13958 8.62293,-13.03359 25.115465,-18.70872 39.982375,-13.75806 10.66762,3.5523 18.777089,11.79542 22.344809,22.71304 1.620251,4.95816 1.865171,8.89705 1.302231,20.94293 -0.56342,12.05593 -0.39571,30.39879 0.54792,59.92813 0.15578,4.87494 0.38217,12.25682 0.50308,16.40416 0.12091,4.14735 0.43372,10.51719 0.69513,14.15521 0.26141,3.63802 0.47942,9.1149 0.48446,12.17083 0.0106,6.42953 0.011,6.42808 -2.44028,8.58581 -2.210061,1.94537 -5.585531,4.43864 -6.810971,5.03088 -2.88728,1.39537 -7.235109,2.29073 -16.271869,3.35089 -4.97931,0.58416 -7.33811,0.71258 -14.41979,0.78506 -6.85962,0.0702 -8.717775,0.0129 -9.789595,-0.30167 z m 106.835857,0 c 0.7276,-0.21358 1.55913,-0.33198 1.84785,-0.26312 0.28871,0.0689 1.24121,-0.0401 2.11666,-0.24203 0.87546,-0.20198 3.32972,-0.67031 5.45393,-1.04073 4.53594,-0.79099 11.89841,-2.94641 14.91433,-4.36629 5.62925,-2.65022 12.16141,-9.58009 13.37058,-14.18463 0.83448,-3.17772 0.39233,-12.63973 -1.18072,-25.26771 -0.49851,-4.00182 -1.09963,-9.00245 -1.33584,-11.1125 -0.58874,-5.25915 -2.05867,-15.75728 -3.29715,-23.54791 -0.56677,-3.56526 -1.40676,-8.86354 -1.86665,-11.77396 -0.82576,-5.22586 -1.43514,-8.40161 -3.30004,-17.19792 -0.52448,-2.47385 -1.42138,-7.21581 -1.99312,-10.53768 -0.57173,-3.32187 -1.26759,-7.01281 -1.54633,-8.20208 -0.27875,-1.18928 -0.82621,-3.94826 -1.21658,-6.13107 -1.39674,-7.81019 -2.68568,-11.37269 -5.83942,-16.13958 -8.62293,-13.03359 -25.11546,-18.70872 -39.98237,-13.75806 -10.66762,3.5523 -18.77709,11.79542 -22.34481,22.71304 -1.62025,4.95816 -1.86517,8.89705 -1.30223,20.94293 0.56342,12.05593 0.39571,30.39879 -0.54792,59.92813 -0.15578,4.87494 -0.38217,12.25682 -0.50308,16.40416 -0.12091,4.14735 -0.43372,10.51719 -0.69513,14.15521 -0.26141,3.63802 -0.47942,9.1149 -0.48446,12.17083 -0.0106,6.42953 -0.011,6.42808 2.44028,8.58581 2.21006,1.94537 5.58553,4.43864 6.81097,5.03088 2.88728,1.39537 7.23511,2.29073 16.27187,3.35089 4.97931,0.58416 7.33811,0.71258 14.41979,0.78506 6.85962,0.0702 8.71777,0.0129 9.78959,-0.30167 z"
       id="path285"
       inkscape:label="pants_calf"
       inkscape:transform-center-y="49.179552"
       inkscape:transform-center-x="6.71264"
       inkscape:path-effect="#path-effect3347"
       inkscape:original-d="m 42.925973,226.93915 c -0.7276,-0.21358 -1.55913,-0.33198 -1.84785,-0.26312 -0.28871,0.0689 -1.24121,-0.0401 -2.11666,-0.24203 -0.87546,-0.20198 -3.32972,-0.67031 -5.45393,-1.04073 -4.53594,-0.79099 -11.89841,-2.94641 -14.91433,-4.36629 -5.62925,-2.65022 -12.16141,-9.58009 -13.37058,-14.18463 -0.83448,-3.17772 -0.39233,-12.63973 1.18072,-25.26771 0.49851,-4.00182 1.09963,-9.00245 1.33584,-11.1125 0.58874,-5.25915 2.05867,-15.75728 3.29715,-23.54791 0.56677,-3.56526 1.40676,-8.86354 1.86665,-11.77396 0.82576,-5.22586 1.43514,-8.40161 3.30004,-17.19792 0.52448,-2.47385 1.42138,-7.21581 1.99312,-10.53768 0.57173,-3.32187 1.26759,-7.01281 1.54633,-8.20208 0.27875,-1.18928 0.82621,-3.94826 1.21658,-6.13107 1.39674,-7.81019 2.68568,-11.37269 5.83942,-16.13958 8.62293,-13.03359 25.115465,-18.70872 39.982375,-13.75806 10.66762,3.5523 18.777089,11.79542 22.344809,22.71304 1.620251,4.95816 1.865171,8.89705 1.302231,20.94293 -0.56342,12.05593 -0.39571,30.39879 0.54792,59.92813 0.15578,4.87494 0.38217,12.25682 0.50308,16.40416 0.12091,4.14735 0.43372,10.51719 0.69513,14.15521 0.26141,3.63802 0.47942,9.1149 0.48446,12.17083 0.0106,6.42953 0.011,6.42808 -2.44028,8.58581 -2.210061,1.94537 -5.585531,4.43864 -6.810971,5.03088 -2.88728,1.39537 -7.235109,2.29073 -16.271869,3.35089 -4.97931,0.58416 -7.33811,0.71258 -14.41979,0.78506 -6.85962,0.0702 -8.717775,0.0129 -9.789595,-0.30167 z"
       class="UnoptimicedTransforms" />
    <path
       style="display:inline;fill:#76a2af;fill-opacity:1;stroke-width:0.264583"
       d="m 52.360498,140.53206 c -9.734878,-0.93774 -18.951743,-6.07573 -24.746413,-13.795 -4.96236,-6.61053 -7.63042,-15.61542 -6.91742,-23.34679 1.05351,-11.423609 2.80249,-25.220419 4.21775,-33.271639 0.44123,-2.51008 1.17289,-6.94503 1.62592,-9.85545 0.79911,-5.1337 2.85414,-15.73602 3.40688,-17.57675 0.29429,-0.98004 2.84456,-13.87691 4.39673,-22.23454 0.95796,-5.15808 2.22603,-9.86443 3.4598,-12.8407897 0.36193,-0.87313 1.01056,-2.48047 1.44139,-3.57188 2.67266,-6.77049 5.776813,-9.80247 14.111983,-13.78386 16.94492,-8.0939303 36.60336,1.09866 41.19039,19.26127 0.68699,2.7201797 0.7691,3.4880997 0.76824,7.1846697 -5.3e-4,2.27643 -0.35872,11.10412 -0.79598,19.61709 -0.43726,8.51297 -0.96849,18.93094 -1.18051,23.15104 -0.21202,4.22011 -0.50322,9.3398 -0.64712,11.37709 -0.14389,2.03729 -0.33531,6.08541 -0.42536,8.99583 -0.0901,2.91042 -0.50386,9.57792 -0.91955,14.81667 -0.4157,5.23875 -0.8294,10.715619 -0.91934,12.170829 -0.93748,15.1684 -10.341051,27.52651 -24.45512,32.13877 -4.26784,1.39466 -9.32933,1.976 -13.61227,1.56344 z m 87.966812,0 c 9.73488,-0.93774 18.95174,-6.07573 24.74641,-13.795 4.96236,-6.61053 7.63042,-15.61542 6.91742,-23.34679 -1.05351,-11.423609 -2.80249,-25.220419 -4.21775,-33.271639 -0.44123,-2.51008 -1.17289,-6.94503 -1.62592,-9.85545 -0.79911,-5.1337 -2.85414,-15.73602 -3.40688,-17.57675 -0.29429,-0.98004 -2.84456,-13.87691 -4.39673,-22.23454 -0.95796,-5.15808 -2.22603,-9.86443 -3.4598,-12.8407897 -0.36193,-0.87313 -1.01056,-2.48047 -1.44139,-3.57188 -2.67266,-6.77049 -5.77681,-9.80247 -14.11198,-13.78386 -16.94492,-8.0939303 -36.60336,1.09866 -41.190392,19.26127 -0.68699,2.7201797 -0.7691,3.4880997 -0.76824,7.1846697 5.3e-4,2.27643 0.35872,11.10412 0.79598,19.61709 0.43726,8.51297 0.96849,18.93094 1.18051,23.15104 0.21202,4.22011 0.50322,9.3398 0.64712,11.37709 0.143892,2.03729 0.335312,6.08541 0.425362,8.99583 0.0901,2.91042 0.50386,9.57792 0.91955,14.81667 0.4157,5.23875 0.8294,10.715619 0.91934,12.170829 0.93748,15.1684 10.34105,27.52651 24.45512,32.13877 4.26784,1.39466 9.32933,1.976 13.61227,1.56344 z"
       id="path283"
       inkscape:label="pants_thigh"
       inkscape:transform-center-x="8.1016625"
       inkscape:transform-center-y="46.98875"
       inkscape:path-effect="#path-effect3349"
       inkscape:original-d="m 52.360498,140.53206 c -9.734878,-0.93774 -18.951743,-6.07573 -24.746413,-13.795 -4.96236,-6.61053 -7.63042,-15.61542 -6.91742,-23.34679 1.05351,-11.423609 2.80249,-25.220419 4.21775,-33.271639 0.44123,-2.51008 1.17289,-6.94503 1.62592,-9.85545 0.79911,-5.1337 2.85414,-15.73602 3.40688,-17.57675 0.29429,-0.98004 2.84456,-13.87691 4.39673,-22.23454 0.95796,-5.15808 2.22603,-9.86443 3.4598,-12.8407897 0.36193,-0.87313 1.01056,-2.48047 1.44139,-3.57188 2.67266,-6.77049 5.776813,-9.80247 14.111983,-13.78386 16.94492,-8.0939303 36.60336,1.09866 41.19039,19.26127 0.68699,2.7201797 0.7691,3.4880997 0.76824,7.1846697 -5.3e-4,2.27643 -0.35872,11.10412 -0.79598,19.61709 -0.43726,8.51297 -0.96849,18.93094 -1.18051,23.15104 -0.21202,4.22011 -0.50322,9.3398 -0.64712,11.37709 -0.14389,2.03729 -0.33531,6.08541 -0.42536,8.99583 -0.0901,2.91042 -0.50386,9.57792 -0.91955,14.81667 -0.4157,5.23875 -0.8294,10.715619 -0.91934,12.170829 -0.93748,15.1684 -10.341051,27.52651 -24.45512,32.13877 -4.26784,1.39466 -9.32933,1.976 -13.61227,1.56344 z"
       class="UnoptimicedTransforms" />
    <path
       style="display:inline;fill:#76a2af;fill-opacity:1;stroke-width:0.264583"
       d="m 92.015298,41.440381 c -0.0242,-0.023 -2.66142,-0.36028 -5.860481,-0.7494 -8.611109,-1.04742 -12.538789,-2.29499 -23.180369,-7.36289 -6.17727,-2.94183 -15.80086,-10.34042 -19.120346,-14.69967 -2.11025,-2.77124 -2.79733,-4.22022 -5.2151,-10.9980297 -0.41237,-1.15604 -0.82987,-2.74297 -0.92777,-3.52652 -0.22261,-1.78167 0.29398,-8.06636 0.95098,-11.5695 1.23844,-6.6034103 1.63081,-9.1202303 1.67963,-10.7736203 0.0584,-1.97636 0.49498,-2.80849 2.01737,-3.84461 1.08552,-0.7388 2.37893,-0.76324 4.724126,-0.0893 6.04969,1.73857 10.05637,2.42817 21.60461,3.71844 16.727849,1.86897 23.59031,2.48599 27.64896,2.48599 4.058652,0 10.921112,-0.61702 27.648962,-2.48599 11.54825,-1.29027 15.55493,-1.97987 21.60462,-3.71844 2.34519,-0.67397 3.6386,-0.64953 4.72412,0.0893 1.52239,1.03612 1.95902,1.86825 2.01737,3.84461 0.0488,1.65339 0.44119,4.17021 1.67963,10.7736203 0.657,3.50314 1.17358,9.78783 0.95098,11.5695 -0.0979,0.78355 -0.5154,2.37048 -0.92778,3.52652 -2.41776,6.7778097 -3.10484,8.2267897 -5.21509,10.9980297 -3.31948,4.35925 -12.94307,11.75784 -19.12035,14.69967 -6.74682,3.21308 -8.96233,4.12164 -13.07495,5.36193 -3.65835,1.10329 -5.12843,1.39574 -9.9986,1.98906 -3.65895,0.44576 -7.300202,0.71492 -10.138092,0.7494 -2.43563,0.0296 -4.44823,0.0349 -4.47243,0.0119 z"
       id="path287"
       inkscape:label="pants_torso" />
  </g>
</svg>
