<?xml version="1.0" encoding="UTF-8" standalone="no"?>
<!-- Created with Inkscape (http://www.inkscape.org/) -->

<svg
   width="293.36102mm"
   height="173.47614mm"
   viewBox="0 0 293.36103 173.47614"
   version="1.1"
   id="svg379"
   inkscape:version="1.2.2 (b0a8486541, 2022-12-01)"
   sodipodi:docname="sweater_icon.svg"
   xmlns:inkscape="http://www.inkscape.org/namespaces/inkscape"
   xmlns:sodipodi="http://sodipodi.sourceforge.net/DTD/sodipodi-0.dtd"
   xmlns="http://www.w3.org/2000/svg"
   xmlns:svg="http://www.w3.org/2000/svg">
  <sodipodi:namedview
     id="namedview381"
     pagecolor="#ffffff"
     bordercolor="#000000"
     borderopacity="0.25"
     inkscape:showpageshadow="2"
     inkscape:pageopacity="0.0"
     inkscape:pagecheckerboard="0"
     inkscape:deskcolor="#d1d1d1"
     inkscape:document-units="mm"
     showgrid="false"
     inkscape:zoom="0.51654111"
     inkscape:cx="374.60717"
     inkscape:cy="534.3234"
     inkscape:window-width="1920"
     inkscape:window-height="1012"
     inkscape:window-x="0"
     inkscape:window-y="0"
     inkscape:window-maximized="1"
     inkscape:current-layer="layer1" />
  <defs
     id="defs376">
    <inkscape:path-effect
       effect="mirror_symmetry"
       start_point="96.343903,-22.659168"
       end_point="96.343903,227.26754"
       center_point="96.343903,102.30419"
       id="path-effect3349"
       is_visible="true"
       lpeversion="1.2"
       lpesatellites=""
       mode="vertical"
       discard_orig_path="false"
       fuse_paths="false"
       oposite_fuse="false"
       split_items="false"
       split_open="false"
       link_styles="false" />
    <inkscape:path-effect
       effect="mirror_symmetry"
       start_point="96.343903,-22.659168"
       end_point="96.343903,227.26754"
       center_point="96.343903,102.30419"
       id="path-effect3347"
       is_visible="true"
       lpeversion="1.2"
       lpesatellites=""
       mode="vertical"
       discard_orig_path="false"
       fuse_paths="false"
       oposite_fuse="false"
       split_items="false"
       split_open="false"
       link_styles="false" />
    <inkscape:path-effect
       effect="mirror_symmetry"
       start_point="151.15778,283.33383"
       end_point="151.15778,602.19222"
       center_point="151.15778,442.76302"
       id="path-effect3376"
       is_visible="true"
       lpeversion="1.2"
       lpesatellites=""
       mode="vertical"
       discard_orig_path="false"
       fuse_paths="false"
       oposite_fuse="false"
       split_items="false"
       split_open="false"
       link_styles="false" />
    <inkscape:path-effect
       effect="mirror_symmetry"
       start_point="151.15778,283.33383"
       end_point="151.15778,602.19222"
       center_point="151.15778,442.76302"
       id="path-effect3378"
       is_visible="true"
       lpeversion="1.2"
       lpesatellites=""
       mode="vertical"
       discard_orig_path="false"
       fuse_paths="false"
       oposite_fuse="false"
       split_items="false"
       split_open="false"
       link_styles="false" />
    <inkscape:path-effect
       effect="mirror_symmetry"
       start_point="151.15778,283.33383"
       end_point="151.15778,602.19222"
       center_point="151.15778,442.76302"
       id="path-effect3380"
       is_visible="true"
       lpeversion="1.2"
       lpesatellites=""
       mode="vertical"
       discard_orig_path="false"
       fuse_paths="false"
       oposite_fuse="false"
       split_items="false"
       split_open="false"
       link_styles="false" />
  </defs>
  <g
     inkscape:label="Layer 1"
     inkscape:groupmode="layer"
     id="layer1"
     transform="translate(50.336615,45.309582)">
    <path
       style="display:inline;fill:#e47b96;fill-opacity:1;stroke-width:0.32495"
       d="m 36.766648,406.36808 c -0.627285,-0.0624 -1.291335,-0.22895 -1.475668,-0.37018 -0.18433,-0.14124 -1.034639,-0.33681 -1.889577,-0.4346 -0.854934,-0.0978 -1.638711,-0.3044 -1.741721,-0.45909 -0.103011,-0.15468 -0.470961,-0.27164 -0.817659,-0.25989 -0.346698,0.0118 -0.634682,-0.10609 -0.639964,-0.26188 -0.0053,-0.15579 -0.597348,-0.35691 -1.315702,-0.44694 -0.718354,-0.09 -1.310602,-0.2965 -1.316105,-0.45881 -0.0055,-0.16232 -0.451702,-0.37654 -0.991553,-0.47608 -0.539851,-0.0995 -0.986109,-0.31549 -0.991684,-0.47992 -0.0056,-0.16443 -0.154084,-0.29407 -0.330021,-0.2881 -0.470423,0.0159 -3.693371,-1.81919 -4.531283,-2.58009 -0.397143,-0.36067 -1.148954,-0.95798 -1.670692,-1.3274 -0.521738,-0.36938 -1.278401,-0.92897 -1.681475,-1.24353 -0.403071,-0.31454 -1.191128,-0.90203 -1.751234,-1.30552 -0.560105,-0.4035 -1.022579,-0.8577 -1.027721,-1.00937 -0.0051,-0.15166 -0.65248,-0.90416 -1.438529,-1.6722 -0.78605,-0.76809 -1.963653,-2.0566 -2.616898,-2.86339 -0.6532411,-0.80676 -1.3772675,-1.66343 -1.6089448,-1.90369 -0.2316783,-0.24025 -0.4265412,-0.59341 -0.4330299,-0.78479 -0.00649,-0.19139 -0.1551582,-0.3431 -0.3303756,-0.33716 -0.1752163,0.006 -0.4226607,-0.35145 -0.5498804,-0.79419 -0.127217,-0.44276 -0.3616029,-0.80059 -0.5208604,-0.79519 -0.1592545,0.005 -0.2974635,-0.22339 -0.307127,-0.50841 -0.019435,-0.57321 -1.0814474,-2.47095 -1.4709508,-2.62847 -0.1359845,-0.055 -0.2572313,-0.39458 -0.2694372,-0.75459 -0.012206,-0.36 -0.2365622,-1.10833 -0.4985662,-1.66298 -1.5650334,-3.31288 -1.8060943,-4.69564 -2.2001207,-12.62041 -0.2419265,-4.86567 -0.2773933,-8.72426 -0.095151,-10.35482 0.2778159,-2.48584 0.4099702,-3.0185 1.3341466,-5.37736 0.2237442,-0.57111 0.3964081,-1.34511 0.383698,-1.71998 -0.012711,-0.3749 0.088556,-0.68542 0.2250415,-0.69005 0.2608171,-0.009 1.295294,-2.41716 1.2764902,-2.97176 -0.00601,-0.17739 0.1193669,-0.32695 0.2786214,-0.33234 0.1592575,-0.005 0.3688684,-0.37829 0.465805,-0.82863 0.096939,-0.45036 0.3196086,-0.82369 0.4948249,-0.82963 0.1752173,-0.006 0.3111455,-0.23001 0.3020615,-0.49794 -0.00908,-0.26794 0.1197799,-0.49177 0.2863611,-0.49742 0.1665843,-0.006 0.3785312,-0.26888 0.470994,-0.58495 0.092465,-0.31609 0.5890066,-1.10106 1.1034314,-1.74439 0.5144198,-0.64333 1.5307224,-1.91315 2.2584464,-2.8218 1.681199,-2.09922 3.006782,-3.48314 4.356491,-4.54824 2.206322,-1.7411 23.1252,-23.91942 32.599686,-34.56242 4.88468,-5.4871 11.119628,-11.64756 15.375388,-15.19171 1.455004,-1.21169 3.588134,-3.0116 4.740308,-3.99978 4.899778,-4.20237 13.47294,-10.98099 15.521,-12.27213 5.766504,-3.6353 10.972725,-6.07241 16.125098,-7.54835 2.876089,-0.82391 4.200149,-1.01959 7.764399,-1.14756 5.55389,-0.19942 7.63256,0.10192 11.5652,1.67657 5.41733,2.16914 8.08787,5.02664 10.40439,11.13276 1.28658,3.39135 1.76418,8.90932 1.18082,13.64274 -0.2195,1.78083 -0.4436,4.40989 -0.498,5.84233 -0.16483,4.33885 -1.49251,9.89283 -5.05411,21.1427 -1.48668,4.6958 -2.29737,6.87654 -4.40686,11.85435 -1.11486,2.63076 -2.20261,5.30125 -2.41726,5.93442 -0.21461,0.63317 -1.36195,3.37883 -2.54961,6.10148 -2.17732,4.9914 -5.24234,9.89027 -14.02863,22.42239 -1.47691,2.10657 -3.467968,5.02715 -4.424602,6.49019 -0.956594,1.46304 -3.072438,4.20536 -4.701883,6.09405 -3.66417,4.24713 -12.138837,14.99718 -12.403716,15.73398 -0.107286,0.2985 -0.564718,0.83179 -1.016514,1.18512 -0.451764,0.3533 -0.815401,0.81929 -0.808068,1.03555 0.01552,0.45789 -5.169281,6.19329 -5.612324,6.20831 -0.164168,0.006 -1.008563,0.72918 -1.876469,1.60803 -0.867908,0.87884 -2.269486,1.98712 -3.11458,2.46284 -0.845127,0.47571 -1.581566,0.9762 -1.636552,1.11219 -0.05502,0.13598 -0.307056,0.25426 -0.560079,0.26284 -0.253056,0.009 -0.455138,0.16174 -0.449082,0.34036 0.0061,0.17862 -0.143154,0.32999 -0.331582,0.33638 -0.350063,0.0119 -2.903373,1.17005 -3.900669,1.76935 -0.304339,0.18287 -0.774525,0.33998 -1.044858,0.34915 -0.270362,0.009 -0.487072,0.14911 -0.481584,0.31097 0.0055,0.16186 -0.753735,0.42476 -1.687161,0.58425 -0.933427,0.15949 -1.795739,0.45849 -1.916252,0.66446 -0.221811,0.37911 -16.614112,1.19559 -19.080327,0.95037 z m 228.782242,0 c 0.62728,-0.0624 1.29133,-0.22895 1.47567,-0.37018 0.18433,-0.14124 1.03463,-0.33681 1.88957,-0.4346 0.85494,-0.0978 1.63871,-0.3044 1.74172,-0.45909 0.10301,-0.15468 0.47096,-0.27164 0.81766,-0.25989 0.3467,0.0118 0.63468,-0.10609 0.63997,-0.26188 0.005,-0.15579 0.59734,-0.35691 1.3157,-0.44694 0.71835,-0.09 1.3106,-0.2965 1.3161,-0.45881 0.006,-0.16232 0.45171,-0.37654 0.99156,-0.47608 0.53985,-0.0995 0.98611,-0.31549 0.99168,-0.47992 0.006,-0.16443 0.15408,-0.29407 0.33002,-0.2881 0.47042,0.0159 3.69337,-1.81919 4.53128,-2.58009 0.39715,-0.36067 1.14896,-0.95798 1.6707,-1.3274 0.52173,-0.36938 1.2784,-0.92897 1.68147,-1.24353 0.40307,-0.31454 1.19113,-0.90203 1.75124,-1.30552 0.5601,-0.4035 1.02257,-0.8577 1.02772,-1.00937 0.005,-0.15166 0.65248,-0.90416 1.43853,-1.6722 0.78605,-0.76809 1.96365,-2.0566 2.61689,-2.86339 0.65324,-0.80676 1.37727,-1.66343 1.60895,-1.90369 0.23168,-0.24025 0.42654,-0.59341 0.43303,-0.78479 0.006,-0.19139 0.15516,-0.3431 0.33037,-0.33716 0.17522,0.006 0.42266,-0.35145 0.54988,-0.79419 0.12722,-0.44276 0.36161,-0.80059 0.52086,-0.79519 0.15926,0.005 0.29747,-0.22339 0.30713,-0.50841 0.0194,-0.57321 1.08145,-2.47095 1.47095,-2.62847 0.13599,-0.055 0.25723,-0.39458 0.26944,-0.75459 0.0122,-0.36 0.23656,-1.10833 0.49857,-1.66298 1.56503,-3.31288 1.80609,-4.69564 2.20012,-12.62041 0.24192,-4.86567 0.27739,-8.72426 0.0951,-10.35482 -0.27782,-2.48584 -0.40997,-3.0185 -1.33415,-5.37736 -0.22374,-0.57111 -0.39641,-1.34511 -0.3837,-1.71998 0.0127,-0.3749 -0.0885,-0.68542 -0.22504,-0.69005 -0.26082,-0.009 -1.29529,-2.41716 -1.27649,-2.97176 0.006,-0.17739 -0.11937,-0.32695 -0.27862,-0.33234 -0.15926,-0.005 -0.36887,-0.37829 -0.4658,-0.82863 -0.0969,-0.45036 -0.31961,-0.82369 -0.49483,-0.82963 -0.17522,-0.006 -0.31115,-0.23001 -0.30206,-0.49794 0.009,-0.26794 -0.11978,-0.49177 -0.28636,-0.49742 -0.16659,-0.006 -0.37853,-0.26888 -0.471,-0.58495 -0.0925,-0.31609 -0.589,-1.10106 -1.10343,-1.74439 -0.51442,-0.64333 -1.53072,-1.91315 -2.25844,-2.8218 -1.6812,-2.09922 -3.00679,-3.48314 -4.3565,-4.54824 -2.20632,-1.7411 -23.1252,-23.91942 -32.59968,-34.56242 -4.88468,-5.4871 -11.11963,-11.64756 -15.37539,-15.19171 -1.455,-1.21169 -3.58813,-3.0116 -4.74031,-3.99978 -4.89978,-4.20237 -13.47294,-10.98099 -15.521,-12.27213 -5.7665,-3.6353 -10.97272,-6.07241 -16.1251,-7.54835 -2.87608,-0.82391 -4.20014,-1.01959 -7.76439,-1.14756 -5.55389,-0.19942 -7.63256,0.10192 -11.5652,1.67657 -5.41733,2.16914 -8.08787,5.02664 -10.40439,11.13276 -1.28658,3.39135 -1.76418,8.90932 -1.18082,13.64274 0.2195,1.78083 0.4436,4.40989 0.498,5.84233 0.16483,4.33885 1.49251,9.89283 5.05411,21.1427 1.48668,4.6958 2.29737,6.87654 4.40686,11.85435 1.11486,2.63076 2.20261,5.30125 2.41726,5.93442 0.21461,0.63317 1.36195,3.37883 2.54961,6.10148 2.17732,4.9914 5.24234,9.89027 14.02863,22.42239 1.47691,2.10657 3.46796,5.02715 4.4246,6.49019 0.95659,1.46304 3.07244,4.20536 4.70188,6.09405 3.66417,4.24713 12.13884,14.99718 12.40372,15.73398 0.10728,0.2985 0.56471,0.83179 1.01651,1.18512 0.45176,0.3533 0.8154,0.81929 0.80807,1.03555 -0.0155,0.45789 5.16928,6.19329 5.61232,6.20831 0.16417,0.006 1.00857,0.72918 1.87647,1.60803 0.86791,0.87884 2.26949,1.98712 3.11458,2.46284 0.84513,0.47571 1.58157,0.9762 1.63655,1.11219 0.055,0.13598 0.30706,0.25426 0.56008,0.26284 0.25306,0.009 0.45514,0.16174 0.44908,0.34036 -0.006,0.17862 0.14316,0.32999 0.33159,0.33638 0.35006,0.0119 2.90337,1.17005 3.90067,1.76935 0.30433,0.18287 0.77452,0.33998 1.04485,0.34915 0.27037,0.009 0.48708,0.14911 0.48159,0.31097 -0.006,0.16186 0.75373,0.42476 1.68716,0.58425 0.93343,0.15949 1.79574,0.45849 1.91625,0.66446 0.22181,0.37911 16.61411,1.19559 19.08033,0.95037 z"
       id="path732"
       inkscape:label="sweater_arm"
       inkscape:transform-center-x="28.949942"
       inkscape:transform-center-y="37.616339"
       inkscape:path-effect="#path-effect3376"
       inkscape:original-d="m 36.766648,406.36808 c -0.627285,-0.0624 -1.291335,-0.22895 -1.475668,-0.37018 -0.18433,-0.14124 -1.034639,-0.33681 -1.889577,-0.4346 -0.854934,-0.0978 -1.638711,-0.3044 -1.741721,-0.45909 -0.103011,-0.15468 -0.470961,-0.27164 -0.817659,-0.25989 -0.346698,0.0118 -0.634682,-0.10609 -0.639964,-0.26188 -0.0053,-0.15579 -0.597348,-0.35691 -1.315702,-0.44694 -0.718354,-0.09 -1.310602,-0.2965 -1.316105,-0.45881 -0.0055,-0.16232 -0.451702,-0.37654 -0.991553,-0.47608 -0.539851,-0.0995 -0.986109,-0.31549 -0.991684,-0.47992 -0.0056,-0.16443 -0.154084,-0.29407 -0.330021,-0.2881 -0.470423,0.0159 -3.693371,-1.81919 -4.531283,-2.58009 -0.397143,-0.36067 -1.148954,-0.95798 -1.670692,-1.3274 -0.521738,-0.36938 -1.278401,-0.92897 -1.681475,-1.24353 -0.403071,-0.31454 -1.191128,-0.90203 -1.751234,-1.30552 -0.560105,-0.4035 -1.022579,-0.8577 -1.027721,-1.00937 -0.0051,-0.15166 -0.65248,-0.90416 -1.438529,-1.6722 -0.78605,-0.76809 -1.963653,-2.0566 -2.616898,-2.86339 -0.6532411,-0.80676 -1.3772675,-1.66343 -1.6089448,-1.90369 -0.2316783,-0.24025 -0.4265412,-0.59341 -0.4330299,-0.78479 -0.00649,-0.19139 -0.1551582,-0.3431 -0.3303756,-0.33716 -0.1752163,0.006 -0.4226607,-0.35145 -0.5498804,-0.79419 -0.127217,-0.44276 -0.3616029,-0.80059 -0.5208604,-0.79519 -0.1592545,0.005 -0.2974635,-0.22339 -0.307127,-0.50841 -0.019435,-0.57321 -1.0814474,-2.47095 -1.4709508,-2.62847 -0.1359845,-0.055 -0.2572313,-0.39458 -0.2694372,-0.75459 -0.012206,-0.36 -0.2365622,-1.10833 -0.4985662,-1.66298 -1.5650334,-3.31288 -1.8060943,-4.69564 -2.2001207,-12.62041 -0.2419265,-4.86567 -0.2773933,-8.72426 -0.095151,-10.35482 0.2778159,-2.48584 0.4099702,-3.0185 1.3341466,-5.37736 0.2237442,-0.57111 0.3964081,-1.34511 0.383698,-1.71998 -0.012711,-0.3749 0.088556,-0.68542 0.2250415,-0.69005 0.2608171,-0.009 1.295294,-2.41716 1.2764902,-2.97176 -0.00601,-0.17739 0.1193669,-0.32695 0.2786214,-0.33234 0.1592575,-0.005 0.3688684,-0.37829 0.465805,-0.82863 0.096939,-0.45036 0.3196086,-0.82369 0.4948249,-0.82963 0.1752173,-0.006 0.3111455,-0.23001 0.3020615,-0.49794 -0.00908,-0.26794 0.1197799,-0.49177 0.2863611,-0.49742 0.1665843,-0.006 0.3785312,-0.26888 0.470994,-0.58495 0.092465,-0.31609 0.5890066,-1.10106 1.1034314,-1.74439 0.5144198,-0.64333 1.5307224,-1.91315 2.2584464,-2.8218 1.681199,-2.09922 3.006782,-3.48314 4.356491,-4.54824 2.206322,-1.7411 23.1252,-23.91942 32.599686,-34.56242 4.88468,-5.4871 11.119628,-11.64756 15.375388,-15.19171 1.455004,-1.21169 3.588134,-3.0116 4.740308,-3.99978 4.899778,-4.20237 13.47294,-10.98099 15.521,-12.27213 5.766504,-3.6353 10.972725,-6.07241 16.125098,-7.54835 2.876089,-0.82391 4.200149,-1.01959 7.764399,-1.14756 5.55389,-0.19942 7.63256,0.10192 11.5652,1.67657 5.41733,2.16914 8.08787,5.02664 10.40439,11.13276 1.28658,3.39135 1.76418,8.90932 1.18082,13.64274 -0.2195,1.78083 -0.4436,4.40989 -0.498,5.84233 -0.16483,4.33885 -1.49251,9.89283 -5.05411,21.1427 -1.48668,4.6958 -2.29737,6.87654 -4.40686,11.85435 -1.11486,2.63076 -2.20261,5.30125 -2.41726,5.93442 -0.21461,0.63317 -1.36195,3.37883 -2.54961,6.10148 -2.17732,4.9914 -5.24234,9.89027 -14.02863,22.42239 -1.47691,2.10657 -3.467968,5.02715 -4.424602,6.49019 -0.956594,1.46304 -3.072438,4.20536 -4.701883,6.09405 -3.66417,4.24713 -12.138837,14.99718 -12.403716,15.73398 -0.107286,0.2985 -0.564718,0.83179 -1.016514,1.18512 -0.451764,0.3533 -0.815401,0.81929 -0.808068,1.03555 0.01552,0.45789 -5.169281,6.19329 -5.612324,6.20831 -0.164168,0.006 -1.008563,0.72918 -1.876469,1.60803 -0.867908,0.87884 -2.269486,1.98712 -3.11458,2.46284 -0.845127,0.47571 -1.581566,0.9762 -1.636552,1.11219 -0.05502,0.13598 -0.307056,0.25426 -0.560079,0.26284 -0.253056,0.009 -0.455138,0.16174 -0.449082,0.34036 0.0061,0.17862 -0.143154,0.32999 -0.331582,0.33638 -0.350063,0.0119 -2.903373,1.17005 -3.900669,1.76935 -0.304339,0.18287 -0.774525,0.33998 -1.044858,0.34915 -0.270362,0.009 -0.487072,0.14911 -0.481584,0.31097 0.0055,0.16186 -0.753735,0.42476 -1.687161,0.58425 -0.933427,0.15949 -1.795739,0.45849 -1.916252,0.66446 -0.221811,0.37911 -16.614112,1.19559 -19.080327,0.95037 z"
       class="UnoptimicedTransforms"
       transform="matrix(0.78381728,0,0,0.78381728,-22.136174,-244.74112)" />
    <path
       style="display:inline;fill:#e47b96;fill-opacity:1;stroke-width:0.32495"
       d="m 16.82001,440.58886 c -4.012565,-0.53493 -15.4700881,-4.73043 -22.421582,-8.21036 -3.573438,-1.78885 -10.530796,-7.32197 -15.604124,-12.40975 -4.998908,-5.01317 -7.31186,-8.31184 -11.417317,-16.28307 l -2.836401,-5.50719 -0.139882,-4.96787 c -0.08389,-2.9796 0.0071,-5.71494 0.227358,-6.83449 0.487975,-2.48034 2.735703,-9.38616 3.63154,-11.15736 1.611591,-3.1864 5.80831,-7.37579 12.523577,-12.50165 0.856297,-0.65364 3.027096,-2.50937 4.823997,-4.12385 4.483205,-4.02812 9.050537,-7.63468 13.1448579,-10.37979 1.89486417,-1.27046 3.6153599,-2.46559 3.8233282,-2.65592 0.2079683,-0.19029 0.8560849,-0.71154 1.4402619,-1.15835 0.584176,-0.44681 1.656955,-1.35683 2.383957,-2.02226 0.726998,-0.66543 1.421044,-1.21379 1.542319,-1.21857 0.121278,-0.005 0.413733,-0.1925 0.6499,-0.4172 0.236171,-0.2247 1.049191,-0.69994 1.806712,-1.05609 0.757521,-0.35614 1.378989,-0.7456 1.38104,-0.86544 0.002,-0.11984 0.44241,-0.31426 0.978578,-0.43202 0.536168,-0.11776 0.974852,-0.34698 0.974852,-0.50939 0,-0.16241 0.58491,-0.38884 1.299801,-0.50315 0.714891,-0.11432 1.299802,-0.33539 1.299802,-0.49126 0,-0.15588 0.292455,-0.28343 0.649901,-0.28343 0.357445,0 0.649901,-0.13251 0.649901,-0.29447 0,-0.16195 0.767695,-0.39897 1.70599,-0.52674 0.938294,-0.12777 1.810328,-0.39738 1.937851,-0.59914 0.327859,-0.51875 20.330198,-0.51875 20.658057,0 0.127523,0.20176 0.999557,0.47137 1.937852,0.59914 0.938294,0.12777 1.70599,0.36479 1.70599,0.52674 0,0.16196 0.202626,0.29447 0.450283,0.29447 0.247645,0 0.869113,0.21844 1.38104,0.48541 0.511927,0.26702 1.186654,0.48636 1.499419,0.48743 0.312765,0 0.568663,0.13661 0.568663,0.30113 0,0.16452 0.418926,0.39114 0.930951,0.50361 0.511992,0.11247 1.230685,0.48375 1.597034,0.82505 0.366381,0.34133 1.044163,0.71547 1.50621,0.83145 0.462015,0.11594 0.840062,0.33135 0.840062,0.47865 0,0.1473 0.274193,0.35485 0.609347,0.46124 0.335154,0.10635 1.107854,0.66458 1.717136,1.24046 0.609282,0.57588 1.760776,1.55343 2.55892,2.17236 0.798111,0.6189 1.499874,1.24037 1.559437,1.38104 0.0596,0.14064 0.252812,0.25573 0.429422,0.25573 0.383247,0 1.2495,0.82154 1.2495,1.185 0,0.14113 0.333106,0.55371 0.740204,0.91685 0.407098,0.36313 1.245665,1.31826 1.863429,2.12251 0.617796,0.80425 1.283554,1.6085 1.479499,1.78722 0.408983,0.37301 2.740827,3.9255 2.740827,4.17552 0,0.0913 0.423963,1.09011 0.942097,2.21957 2.665536,5.81031 2.932288,7.42937 2.945741,17.87909 0.0117,9.20442 -0.07406,10.04795 -1.421171,13.95652 -0.286476,0.83122 -1.541728,5.54729 -2.789407,10.48014 -1.247713,4.93284 -2.504231,9.51695 -2.792332,10.1869 -0.288069,0.66995 -1.379317,3.58352 -2.425008,6.4746 -2.074484,5.73553 -2.994321,7.57245 -5.965408,11.91287 -1.690555,2.46966 -2.34455,3.12112 -4.672398,4.6541 -4.328568,2.8506 -7.11388,4.2083 -11.280428,5.49872 l -3.899405,1.20764 -9.586039,0.0838 c -5.272321,0.0461 -10.463405,-0.0332 -11.535742,-0.17612 z m 268.67552,0 c 4.01256,-0.53493 15.47008,-4.73043 22.42158,-8.21036 3.57344,-1.78885 10.53079,-7.32197 15.60412,-12.40975 4.99891,-5.01317 7.31186,-8.31184 11.41732,-16.28307 l 2.8364,-5.50719 0.13988,-4.96787 c 0.0839,-2.9796 -0.007,-5.71494 -0.22736,-6.83449 -0.48797,-2.48034 -2.7357,-9.38616 -3.63154,-11.15736 -1.61159,-3.1864 -5.80831,-7.37579 -12.52357,-12.50165 -0.8563,-0.65364 -3.0271,-2.50937 -4.824,-4.12385 -4.48321,-4.02812 -9.05054,-7.63468 -13.14486,-10.37979 -1.89486,-1.27046 -3.61536,-2.46559 -3.82333,-2.65592 -0.20796,-0.19029 -0.85608,-0.71154 -1.44026,-1.15835 -0.58417,-0.44681 -1.65695,-1.35683 -2.38396,-2.02226 -0.72699,-0.66543 -1.42104,-1.21379 -1.54231,-1.21857 -0.12128,-0.005 -0.41374,-0.1925 -0.6499,-0.4172 -0.23618,-0.2247 -1.0492,-0.69994 -1.80672,-1.05609 -0.75752,-0.35614 -1.37899,-0.7456 -1.38104,-0.86544 -0.002,-0.11984 -0.44241,-0.31426 -0.97857,-0.43202 -0.53617,-0.11776 -0.97486,-0.34698 -0.97486,-0.50939 0,-0.16241 -0.58491,-0.38884 -1.2998,-0.50315 -0.71489,-0.11432 -1.2998,-0.33539 -1.2998,-0.49126 0,-0.15588 -0.29245,-0.28343 -0.6499,-0.28343 -0.35745,0 -0.6499,-0.13251 -0.6499,-0.29447 0,-0.16195 -0.7677,-0.39897 -1.70599,-0.52674 -0.9383,-0.12777 -1.81033,-0.39738 -1.93785,-0.59914 -0.32786,-0.51875 -20.3302,-0.51875 -20.65806,0 -0.12752,0.20176 -0.99956,0.47137 -1.93785,0.59914 -0.9383,0.12777 -1.70599,0.36479 -1.70599,0.52674 0,0.16196 -0.20263,0.29447 -0.45028,0.29447 -0.24765,0 -0.86912,0.21844 -1.38104,0.48541 -0.51193,0.26702 -1.18666,0.48636 -1.49942,0.48743 -0.31277,0 -0.56867,0.13661 -0.56867,0.30113 0,0.16452 -0.41892,0.39114 -0.93095,0.50361 -0.51199,0.11247 -1.23068,0.48375 -1.59703,0.82505 -0.36638,0.34133 -1.04416,0.71547 -1.50621,0.83145 -0.46202,0.11594 -0.84006,0.33135 -0.84006,0.47865 0,0.1473 -0.2742,0.35485 -0.60935,0.46124 -0.33515,0.10635 -1.10785,0.66458 -1.71714,1.24046 -0.60928,0.57588 -1.76077,1.55343 -2.55892,2.17236 -0.79811,0.6189 -1.49987,1.24037 -1.55943,1.38104 -0.0596,0.14064 -0.25282,0.25573 -0.42943,0.25573 -0.38324,0 -1.2495,0.82154 -1.2495,1.185 0,0.14113 -0.3331,0.55371 -0.7402,0.91685 -0.4071,0.36313 -1.24566,1.31826 -1.86343,2.12251 -0.61779,0.80425 -1.28355,1.6085 -1.4795,1.78722 -0.40898,0.37301 -2.74082,3.9255 -2.74082,4.17552 0,0.0913 -0.42397,1.09011 -0.9421,2.21957 -2.66554,5.81031 -2.93229,7.42937 -2.94574,17.87909 -0.0117,9.20442 0.0741,10.04795 1.42117,13.95652 0.28647,0.83122 1.54173,5.54729 2.78941,10.48014 1.24771,4.93284 2.50423,9.51695 2.79233,10.1869 0.28807,0.66995 1.37931,3.58352 2.42501,6.4746 2.07448,5.73553 2.99432,7.57245 5.9654,11.91287 1.69056,2.46966 2.34455,3.12112 4.6724,4.6541 4.32857,2.8506 7.11388,4.2083 11.28043,5.49872 l 3.8994,1.20764 9.58604,0.0838 c 5.27232,0.0461 10.46341,-0.0332 11.53575,-0.17612 z"
       id="path734"
       inkscape:label="sweater_forearm"
       inkscape:transform-center-x="20.901731"
       inkscape:transform-center-y="20.316783"
       inkscape:path-effect="#path-effect3380"
       inkscape:original-d="m 16.82001,440.58886 c -4.012565,-0.53493 -15.4700881,-4.73043 -22.421582,-8.21036 -3.573438,-1.78885 -10.530796,-7.32197 -15.604124,-12.40975 -4.998908,-5.01317 -7.31186,-8.31184 -11.417317,-16.28307 l -2.836401,-5.50719 -0.139882,-4.96787 c -0.08389,-2.9796 0.0071,-5.71494 0.227358,-6.83449 0.487975,-2.48034 2.735703,-9.38616 3.63154,-11.15736 1.611591,-3.1864 5.80831,-7.37579 12.523577,-12.50165 0.856297,-0.65364 3.027096,-2.50937 4.823997,-4.12385 4.483205,-4.02812 9.050537,-7.63468 13.1448579,-10.37979 1.89486417,-1.27046 3.6153599,-2.46559 3.8233282,-2.65592 0.2079683,-0.19029 0.8560849,-0.71154 1.4402619,-1.15835 0.584176,-0.44681 1.656955,-1.35683 2.383957,-2.02226 0.726998,-0.66543 1.421044,-1.21379 1.542319,-1.21857 0.121278,-0.005 0.413733,-0.1925 0.6499,-0.4172 0.236171,-0.2247 1.049191,-0.69994 1.806712,-1.05609 0.757521,-0.35614 1.378989,-0.7456 1.38104,-0.86544 0.002,-0.11984 0.44241,-0.31426 0.978578,-0.43202 0.536168,-0.11776 0.974852,-0.34698 0.974852,-0.50939 0,-0.16241 0.58491,-0.38884 1.299801,-0.50315 0.714891,-0.11432 1.299802,-0.33539 1.299802,-0.49126 0,-0.15588 0.292455,-0.28343 0.649901,-0.28343 0.357445,0 0.649901,-0.13251 0.649901,-0.29447 0,-0.16195 0.767695,-0.39897 1.70599,-0.52674 0.938294,-0.12777 1.810328,-0.39738 1.937851,-0.59914 0.327859,-0.51875 20.330198,-0.51875 20.658057,0 0.127523,0.20176 0.999557,0.47137 1.937852,0.59914 0.938294,0.12777 1.70599,0.36479 1.70599,0.52674 0,0.16196 0.202626,0.29447 0.450283,0.29447 0.247645,0 0.869113,0.21844 1.38104,0.48541 0.511927,0.26702 1.186654,0.48636 1.499419,0.48743 0.312765,0 0.568663,0.13661 0.568663,0.30113 0,0.16452 0.418926,0.39114 0.930951,0.50361 0.511992,0.11247 1.230685,0.48375 1.597034,0.82505 0.366381,0.34133 1.044163,0.71547 1.50621,0.83145 0.462015,0.11594 0.840062,0.33135 0.840062,0.47865 0,0.1473 0.274193,0.35485 0.609347,0.46124 0.335154,0.10635 1.107854,0.66458 1.717136,1.24046 0.609282,0.57588 1.760776,1.55343 2.55892,2.17236 0.798111,0.6189 1.499874,1.24037 1.559437,1.38104 0.0596,0.14064 0.252812,0.25573 0.429422,0.25573 0.383247,0 1.2495,0.82154 1.2495,1.185 0,0.14113 0.333106,0.55371 0.740204,0.91685 0.407098,0.36313 1.245665,1.31826 1.863429,2.12251 0.617796,0.80425 1.283554,1.6085 1.479499,1.78722 0.408983,0.37301 2.740827,3.9255 2.740827,4.17552 0,0.0913 0.423963,1.09011 0.942097,2.21957 2.665536,5.81031 2.932288,7.42937 2.945741,17.87909 0.0117,9.20442 -0.07406,10.04795 -1.421171,13.95652 -0.286476,0.83122 -1.541728,5.54729 -2.789407,10.48014 -1.247713,4.93284 -2.504231,9.51695 -2.792332,10.1869 -0.288069,0.66995 -1.379317,3.58352 -2.425008,6.4746 -2.074484,5.73553 -2.994321,7.57245 -5.965408,11.91287 -1.690555,2.46966 -2.34455,3.12112 -4.672398,4.6541 -4.328568,2.8506 -7.11388,4.2083 -11.280428,5.49872 l -3.899405,1.20764 -9.586039,0.0838 c -5.272321,0.0461 -10.463405,-0.0332 -11.535742,-0.17612 z"
       class="UnoptimicedTransforms"
       transform="matrix(0.78381728,0,0,0.78381728,-22.136174,-244.74112)" />
    <path
       style="display:inline;fill:#e47b96;stroke-width:0.32495;fill-opacity:1"
       d="m 25.0673,450.74475 c -1.444623,-0.29151 -2.212068,-0.69806 -8.936139,-4.73384 -3.038287,-1.82359 -7.4251172,-4.38547 -9.7485132,-5.69307 -2.323395,-1.30763 -6.85645502,-3.91152 -10.073465,-5.78645 -3.217009,-1.8749 -8.9930038,-4.93554 -12.8355428,-6.80137 -8.746445,-4.24704 -15.602061,-8.40923 -16.622688,-10.09202 -0.399052,-0.65792 -1.224027,-1.85426 -1.83328,-2.65851 -1.05024,-1.38637 -1.097546,-1.56197 -0.911411,-3.38332 0.119868,-1.17288 0.82462,-3.47635 1.80961,-5.91465 2.107005,-5.21581 6.028735,-13.1406 6.841098,-13.82407 0.3517,-0.2959 1.494804,-1.68506 2.540235,-3.08703 2.394736,-3.21145 5.147219,-5.80751 7.049677,-6.64906 1.21626,-0.53803 2.251081,-0.66063 5.930596,-0.70277 4.1032828,-0.047 4.6611058,0.0201 7.0242068,0.84639 4.26708698,1.49175 11.803011,5.28552 16.1130792,8.11167 2.236575,1.46654 5.629415,3.61741 7.539649,4.77973 1.910232,1.16231 5.785266,3.67148 8.611188,5.57592 2.825919,1.9044 6.673426,4.31716 8.550015,5.36168 4.64727,2.58664 7.613096,5.51177 8.912355,8.79007 0.881805,2.225 0.919187,2.52463 0.750034,6.01158 -0.27054,5.57696 -1.290784,8.5988 -5.517805,16.34295 -0.585317,1.07234 -1.827671,3.0289 -2.760782,4.34787 -0.933115,1.31901 -2.372151,3.55054 -3.197864,4.959 -0.825709,1.40843 -2.031587,2.9979 -2.67973,3.53215 -1.057476,0.87168 -1.39599,0.96754 -3.297818,0.934 -1.165659,-0.0205 -2.631176,-0.14064 -3.256705,-0.26685 z m 252.18094,0 c 1.44462,-0.29151 2.21206,-0.69806 8.93613,-4.73384 3.03829,-1.82359 7.42512,-4.38547 9.74852,-5.69307 2.32339,-1.30763 6.85645,-3.91152 10.07346,-5.78645 3.21701,-1.8749 8.99301,-4.93554 12.83555,-6.80137 8.74644,-4.24704 15.60206,-8.40923 16.62268,-10.09202 0.39906,-0.65792 1.22403,-1.85426 1.83328,-2.65851 1.05024,-1.38637 1.09755,-1.56197 0.91141,-3.38332 -0.11986,-1.17288 -0.82462,-3.47635 -1.80961,-5.91465 -2.107,-5.21581 -6.02873,-13.1406 -6.84109,-13.82407 -0.3517,-0.2959 -1.49481,-1.68506 -2.54024,-3.08703 -2.39473,-3.21145 -5.14722,-5.80751 -7.04968,-6.64906 -1.21626,-0.53803 -2.25108,-0.66063 -5.93059,-0.70277 -4.10328,-0.047 -4.66111,0.0201 -7.02421,0.84639 -4.26709,1.49175 -11.80301,5.28552 -16.11308,8.11167 -2.23657,1.46654 -5.62941,3.61741 -7.53965,4.77973 -1.91023,1.16231 -5.78526,3.67148 -8.61118,5.57592 -2.82592,1.9044 -6.67343,4.31716 -8.55002,5.36168 -4.64727,2.58664 -7.6131,5.51177 -8.91235,8.79007 -0.88181,2.225 -0.91919,2.52463 -0.75004,6.01158 0.27054,5.57696 1.29079,8.5988 5.51781,16.34295 0.58531,1.07234 1.82767,3.0289 2.76078,4.34787 0.93311,1.31901 2.37215,3.55054 3.19786,4.959 0.82571,1.40843 2.03159,2.9979 2.67973,3.53215 1.05748,0.87168 1.39599,0.96754 3.29782,0.934 1.16566,-0.0205 2.63118,-0.14064 3.25671,-0.26685 z"
       id="path736"
       inkscape:label="sweater_hand"
       inkscape:path-effect="#path-effect3378"
       inkscape:original-d="m 25.0673,450.74475 c -1.444623,-0.29151 -2.212068,-0.69806 -8.936139,-4.73384 -3.038287,-1.82359 -7.4251172,-4.38547 -9.7485132,-5.69307 -2.323395,-1.30763 -6.85645502,-3.91152 -10.073465,-5.78645 -3.217009,-1.8749 -8.9930038,-4.93554 -12.8355428,-6.80137 -8.746445,-4.24704 -15.602061,-8.40923 -16.622688,-10.09202 -0.399052,-0.65792 -1.224027,-1.85426 -1.83328,-2.65851 -1.05024,-1.38637 -1.097546,-1.56197 -0.911411,-3.38332 0.119868,-1.17288 0.82462,-3.47635 1.80961,-5.91465 2.107005,-5.21581 6.028735,-13.1406 6.841098,-13.82407 0.3517,-0.2959 1.494804,-1.68506 2.540235,-3.08703 2.394736,-3.21145 5.147219,-5.80751 7.049677,-6.64906 1.21626,-0.53803 2.251081,-0.66063 5.930596,-0.70277 4.1032828,-0.047 4.6611058,0.0201 7.0242068,0.84639 4.26708698,1.49175 11.803011,5.28552 16.1130792,8.11167 2.236575,1.46654 5.629415,3.61741 7.539649,4.77973 1.910232,1.16231 5.785266,3.67148 8.611188,5.57592 2.825919,1.9044 6.673426,4.31716 8.550015,5.36168 4.64727,2.58664 7.613096,5.51177 8.912355,8.79007 0.881805,2.225 0.919187,2.52463 0.750034,6.01158 -0.27054,5.57696 -1.290784,8.5988 -5.517805,16.34295 -0.585317,1.07234 -1.827671,3.0289 -2.760782,4.34787 -0.933115,1.31901 -2.372151,3.55054 -3.197864,4.959 -0.825709,1.40843 -2.031587,2.9979 -2.67973,3.53215 -1.057476,0.87168 -1.39599,0.96754 -3.297818,0.934 -1.165659,-0.0205 -2.631176,-0.14064 -3.256705,-0.26685 z"
       class="UnoptimicedTransforms"
       transform="matrix(0.78381728,0,0,0.78381728,-22.136175,-244.74112)" />
    <path
       style="display:inline;fill:#e789a1;stroke-width:0.254701;fill-opacity:1"
       d="m 82.229598,128.05618 c -12.791631,-0.21324 -21.416647,-0.91685 -28.399239,-2.31679 -5.839499,-1.17074 -12.080585,-2.62855 -16.68297,-3.89681 -3.694449,-1.01809 -12.099038,-3.86581 -12.90092,-4.37124 -0.301338,-0.18996 -0.90307,-1.05612 -1.337184,-1.92488 -0.688365,-1.37753 -0.789018,-1.84302 -0.787088,-3.64012 0.002,-1.89076 0.512539,-7.09467 0.897073,-9.14443 0.133907,-0.71377 -0.01032,-1.12326 -0.876487,-2.48872 -0.570222,-0.898892 -1.037854,-1.889602 -1.039186,-2.201612 -0.0034,-0.78563 -1.125588,-3.69259 -2.04778,-5.3044 -0.421676,-0.73703 -1.165517,-2.69543 -1.652979,-4.35201 -1.030944,-3.50357 -1.140852,-5.7843 -0.493813,-10.247124 0.437713,-3.01901 2.032899,-8.1769 3.335587,-10.78528 1.65018,-3.30416 4.132888,-9.03531 5.027754,-11.60621 0.497194,-1.42839 1.130337,-2.91336 1.406984,-3.29994 0.276649,-0.38659 0.806918,-1.73442 1.178375,-2.9952 0.371457,-1.26077 1.186908,-3.89693 1.812109,-5.85813 0.625201,-1.9612 2.001334,-7.06161 3.058071,-11.33423 1.056733,-4.272606 2.539913,-9.743016 3.295944,-12.156476 1.71343,-5.46966 2.733663,-9.4995 3.402841,-13.4410402 0.652495,-3.84322 6.736455,-27.9274798 8.172974,-32.3539598 1.209068,-3.72567 1.821903,-5.04948 4.376544,-9.45412 l 1.794165,-3.09342 2.091201,-1.17382 c 2.678778,-1.50361 5.393819,-2.82358 7.647442,-3.71796 4.125129,-1.6371 11.37761,-2.77956 12.102265,-1.90644 0.172228,0.20753 0.462256,0.37734 0.64447,0.37734 0.504182,0 1.849362,1.22351 2.042479,1.85777 0.09411,0.30905 0.310352,0.73382 0.480542,0.94395 0.175975,0.21728 0.440662,2.04746 0.613706,4.24363 0.61949,7.86188 2.382585,17.8853 4.867301,27.6711796 3.099284,12.2062602 2.895602,11.6412602 7.708271,21.3815104 2.405302,4.86799 4.441462,8.85088 4.524852,8.85088 0.0834,0 2.119551,-3.98289 4.524848,-8.85088 4.81267,-9.7402502 4.60899,-9.1752502 7.70827,-21.3815104 2.48471,-9.7858796 4.2478,-19.8092996 4.86729,-27.6711796 0.17305,-2.19617 0.43773,-4.02635 0.61371,-4.24363 0.17019,-0.21013 0.38643,-0.6349 0.48054,-0.94395 0.19312,-0.63426 1.5383,-1.85777 2.04248,-1.85777 0.18221,0 0.47224,-0.16981 0.64447,-0.37734 0.72466,-0.87312 7.97714,0.26934 12.10226,1.90644 2.25363,0.89438 4.96867,2.21435 7.64745,3.71796 l 2.0912,1.17382 1.79417,3.09342 c 2.55464,4.40464 3.16747,5.72845 4.37654,9.45412 1.43652,4.42648 7.52048,28.5107398 8.17298,32.3539598 0.66917,3.9415402 1.6894,7.9713802 3.40284,13.4410402 0.75603,2.41346 2.23921,7.88387 3.29594,12.156476 1.05673,4.27262 2.43286,9.37303 3.05808,11.33423 0.62519,1.9612 1.44064,4.59736 1.8121,5.85813 0.37146,1.26078 0.90172,2.60861 1.17837,2.9952 0.27666,0.38658 0.9098,1.87155 1.40698,3.29994 0.89487,2.5709 3.37757,8.30205 5.02776,11.60621 1.3027,2.60838 2.89787,7.76627 3.3356,10.78528 0.21586,1.48888 0.39247,4.093794 0.39247,5.788654 0,3.47502 -0.38582,4.86905 -2.32652,8.4063 -1.17489,2.14138 -2.25697,4.874 -2.26053,5.70858 -0.002,0.31201 -0.46896,1.30272 -1.03919,2.201612 -0.86619,1.36546 -1.0104,1.77495 -0.87648,2.48872 0.38453,2.04976 0.89503,7.25367 0.89707,9.14443 0.002,1.7971 -0.0987,2.26259 -0.78708,3.64012 -0.43412,0.86876 -1.03585,1.73492 -1.33719,1.92488 -0.80187,0.50543 -9.20648,3.35315 -12.90092,4.37124 -7.97938,2.19884 -20.18838,4.79033 -23.81462,5.05486 -1.26078,0.092 -5.0431,0.38256 -8.40516,0.64574 -7.01721,0.54932 -25.480507,0.77817 -41.389032,0.513 z"
       id="path730"
       inkscape:label="sweater_torso" />
  </g>
</svg>
