<?xml version="1.0" encoding="UTF-8" standalone="no"?>
<!-- Created with Inkscape (http://www.inkscape.org/) -->

<svg
   width="173.5968mm"
   height="116.58785mm"
   viewBox="0 0 173.59681 116.58786"
   version="1.1"
   id="svg379"
   inkscape:version="1.2.2 (b0a8486541, 2022-12-01)"
   sodipodi:docname="top_icon.svg"
   xmlns:inkscape="http://www.inkscape.org/namespaces/inkscape"
   xmlns:sodipodi="http://sodipodi.sourceforge.net/DTD/sodipodi-0.dtd"
   xmlns="http://www.w3.org/2000/svg"
   xmlns:svg="http://www.w3.org/2000/svg">
  <sodipodi:namedview
     id="namedview381"
     pagecolor="#ffffff"
     bordercolor="#000000"
     borderopacity="0.25"
     inkscape:showpageshadow="2"
     inkscape:pageopacity="0.0"
     inkscape:pagecheckerboard="0"
     inkscape:deskcolor="#d1d1d1"
     inkscape:document-units="mm"
     showgrid="false"
     inkscape:zoom="0.51654111"
     inkscape:cx="397.83862"
     inkscape:cy="358.15155"
     inkscape:window-width="1920"
     inkscape:window-height="1012"
     inkscape:window-x="0"
     inkscape:window-y="0"
     inkscape:window-maximized="1"
     inkscape:current-layer="layer1" />
  <defs
     id="defs376">
    <inkscape:path-effect
       effect="mirror_symmetry"
       start_point="96.343896,-45.309582"
       end_point="96.343896,128.16655"
       center_point="96.343896,41.428486"
       id="path-effect6575"
       is_visible="true"
       lpeversion="1.2"
       lpesatellites=""
       mode="vertical"
       discard_orig_path="false"
       fuse_paths="false"
       oposite_fuse="false"
       split_items="false"
       split_open="false"
       link_styles="false" />
    <inkscape:path-effect
       effect="mirror_symmetry"
       start_point="96.343903,-22.659168"
       end_point="96.343903,227.26754"
       center_point="96.343903,102.30419"
       id="path-effect3349"
       is_visible="true"
       lpeversion="1.2"
       lpesatellites=""
       mode="vertical"
       discard_orig_path="false"
       fuse_paths="false"
       oposite_fuse="false"
       split_items="false"
       split_open="false"
       link_styles="false" />
    <inkscape:path-effect
       effect="mirror_symmetry"
       start_point="96.343903,-22.659168"
       end_point="96.343903,227.26754"
       center_point="96.343903,102.30419"
       id="path-effect3347"
       is_visible="true"
       lpeversion="1.2"
       lpesatellites=""
       mode="vertical"
       discard_orig_path="false"
       fuse_paths="false"
       oposite_fuse="false"
       split_items="false"
       split_open="false"
       link_styles="false" />
    <inkscape:path-effect
       effect="mirror_symmetry"
       start_point="151.15777,254.43626"
       end_point="151.15777,475.75842"
       center_point="151.15777,365.09734"
       id="path-effect3376"
       is_visible="true"
       lpeversion="1.2"
       lpesatellites=""
       mode="vertical"
       discard_orig_path="false"
       fuse_paths="false"
       oposite_fuse="false"
       split_items="false"
       split_open="false"
       link_styles="false" />
    <inkscape:path-effect
       effect="mirror_symmetry"
       start_point="151.15777,254.43626"
       end_point="151.15777,475.75842"
       center_point="151.15777,365.09734"
       id="path-effect3378"
       is_visible="true"
       lpeversion="1.2"
       lpesatellites=""
       mode="vertical"
       discard_orig_path="false"
       fuse_paths="false"
       oposite_fuse="false"
       split_items="false"
       split_open="false"
       link_styles="false" />
    <inkscape:path-effect
       effect="mirror_symmetry"
       start_point="151.15777,254.43626"
       end_point="151.15777,475.75842"
       center_point="151.15777,365.09734"
       id="path-effect3380"
       is_visible="true"
       lpeversion="1.2"
       lpesatellites=""
       mode="vertical"
       discard_orig_path="false"
       fuse_paths="false"
       oposite_fuse="false"
       split_items="false"
       split_open="false"
       link_styles="false" />
    <inkscape:path-effect
       effect="mirror_symmetry"
       start_point="157.03183,243.78321"
       end_point="157.03183,417.25934"
       center_point="157.03183,330.52128"
       id="path-effect3047"
       is_visible="true"
       lpeversion="1.2"
       lpesatellites=""
       mode="vertical"
       discard_orig_path="false"
       fuse_paths="true"
       oposite_fuse="false"
       split_items="false"
       split_open="false"
       link_styles="false" />
  </defs>
  <g
     inkscape:label="Layer 1"
     inkscape:groupmode="layer"
     id="layer1"
     transform="translate(-9.5454956,0.0719693)">
    <path
       style="display:inline;fill:#c69bca;fill-opacity:1;stroke-width:0.264583"
       d="m 45.481502,70.344947 -2.82359,4.45465 c -8.50444,-4.05795 -14.86236,-8.1823 -20.01739,-12.85679 -8.5745,-7.80895 -11.32964,-12.82133 -10.46944,-13.94796 l 2.70644,-3.54469 c -0.76754,-2.37203 -2.23578,-4.15223 -3.64065,-6.98861 -1.5351498,-3.07184 -2.5349298,-6.61063 -0.70563,-11.03133 1.85975,-3.54753 6.5259,-7.6465 10.47284,-9.91475 2.82099,-1.58636 6.08556,-4.08571 10.63222,-8.1400302 4.64558,-4.14252 15.61338,-6.58419 21.47065,-6.69609 11.39802,-0.21777 14.06144,2.37962 14.14805,6.81521 -1.12736,9.0130502 0.1484,11.6004302 0.60301,31.9816902 0.33343,9.41545 -0.0463,6.99379 -0.57509,21.9992 -1.28675,5.06008 -2.91165,8.67704 -6.84243,9.78042 -7.09016,1.47475 -13.63144,-3.56966 -14.95899,-1.91092 z m 101.724788,0 2.82359,4.45465 c 8.50444,-4.05795 14.86236,-8.1823 20.01739,-12.85679 8.5745,-7.80895 11.32964,-12.82133 10.46944,-13.94796 l -2.70644,-3.54469 c 0.76754,-2.37203 2.23578,-4.15223 3.64065,-6.98861 1.53515,-3.07184 2.53493,-6.61063 0.70563,-11.03133 -1.85975,-3.54753 -6.5259,-7.6465 -10.47284,-9.91475 -2.82099,-1.58636 -6.08556,-4.08571 -10.63222,-8.1400302 -4.64558,-4.14252 -15.61338,-6.58419 -21.47065,-6.69609 -11.39802,-0.21777 -14.06144,2.37962 -14.14805,6.81521 1.12736,9.0130502 -0.1484,11.6004302 -0.60301,31.9816902 -0.33343,9.41545 0.0463,6.99379 0.57509,21.9992 1.28675,5.06008 2.91165,8.67704 6.84243,9.78042 7.09016,1.47475 13.63144,-3.56966 14.95899,-1.91092 z"
       id="path2375-3"
       sodipodi:nodetypes="cccsccccssccccc"
       inkscape:transform-center-x="20.087631"
       inkscape:transform-center-y="17.825528"
       inkscape:path-effect="#path-effect6575"
       inkscape:original-d="m 45.481502,70.344947 -2.82359,4.45465 c -8.50444,-4.05795 -14.86236,-8.1823 -20.01739,-12.85679 -8.5745,-7.80895 -11.32964,-12.82133 -10.46944,-13.94796 l 2.70644,-3.54469 c -0.76754,-2.37203 -2.23578,-4.15223 -3.64065,-6.98861 -1.5351498,-3.07184 -2.5349298,-6.61063 -0.70563,-11.03133 1.85975,-3.54753 6.5259,-7.6465 10.47284,-9.91475 2.82099,-1.58636 6.08556,-4.08571 10.63222,-8.1400302 4.64558,-4.14252 15.61338,-6.58419 21.47065,-6.69609 11.39802,-0.21777 14.06144,2.37962 14.14805,6.81521 -1.12736,9.0130502 0.1484,11.6004302 0.60301,31.9816902 0.33343,9.41545 -0.0463,6.99379 -0.57509,21.9992 -1.28675,5.06008 -2.91165,8.67704 -6.84243,9.78042 -7.09016,1.47475 -13.63144,-3.56966 -14.95899,-1.91092 z"
       class="UnoptimicedTransforms" />
    <path
       id="rect6522"
       style="display:inline;fill:#d0a4d2;fill-opacity:1;stroke-width:2.64583"
       d="m 64.938852,-0.07173316 c -0.23997,-7.3e-4 -0.50483,0.0108 -0.81081,0.0439 -1.22388,0.13239 -3.10734,0.60737 -6.69364,1.99831996 -1.97446,0.7658 -4.48897,8.3951402 -5.09168,12.3884002 -2.26971,15.03808 -4.06809,29.24459 -8.93744,64.11339 l 0.004,2.87683 c 0.004,5.62957 -0.89344,9.62151 -3.44682,15.34377 -1.69596,3.800723 -1.73886,3.607893 1.76527,7.738543 l 1.38286,1.63091 -0.13487,1.94717 c -0.20617,3.00285 1.39286,4.99039 4.0137,4.99039 0.45116,0 1.28834,0.22522 1.86138,0.49971 3.19696,1.53135 11.43146,2.29321 27.63294,2.55695 6.03911,0.0983 11.45697,0.26244 12.03906,0.36484 0.56978,0.10022 3.5911,0.11426 7.82019,0.0723 4.229088,0.0419 7.250428,0.0279 7.820198,-0.0723 0.58209,-0.1024 5.99995,-0.26655 12.03906,-0.36484 16.20148,-0.26375 24.43598,-1.0256 27.63294,-2.55695 0.57303,-0.27449 1.41022,-0.49971 1.86138,-0.49971 2.62086,0 4.21988,-1.98754 4.01371,-4.99039 l -0.13488,-1.94717 1.38286,-1.63091 c 3.50414,-4.13065 3.46175,-3.93782 1.76579,-7.738543 -2.55339,-5.72226 -3.45137,-9.7142 -3.44734,-15.34377 l 0.002,-2.87683 c -4.86934,-34.8688 -6.66618,-49.07531 -8.93589,-64.11339 -0.60271,-3.99326 -3.11722,-11.6226002 -5.09168,-12.3884002 -7.17261,-2.78190996 -7.5314,-1.89989996 -9.43353,-1.94147996 -2.18909,-0.0478 -1.38484,-0.34221 -1.54512,7.67963996 -0.19004,9.5114302 -1.39542,14.2756102 -2.14251,14.2756102 -0.18622,0 -1.09116,-0.17169 -2.0097,-0.38086 -5.05445,-1.15102 -14.43726,-1.72057 -23.777358,-1.70894 -9.3401,-0.0116 -18.72445,0.55792 -23.77891,1.70894 -0.91853,0.20917 -1.82192,0.38086 -2.00814,0.38086 -0.74709,0 -1.95247,-4.76418 -2.14251,-14.2756102 -0.16028,-8.02184996 0.64397,-7.72743996 -1.54512,-7.67963996 -0.7133,0.0156 -1.20919,-0.0986 -1.92908,-0.10077 z" />
  </g>
</svg>
