<?xml version="1.0" encoding="UTF-8" standalone="no"?>
<!-- Created with Inkscape (http://www.inkscape.org/) -->

<svg
   width="124.58813"
   height="93.552261"
   viewBox="0 0 32.963943 24.752369"
   version="1.1"
   id="svg5"
   xml:space="preserve"
   inkscape:version="1.2.2 (b0a8486541, 2022-12-01)"
   sodipodi:docname="bow.svg"
   xmlns:inkscape="http://www.inkscape.org/namespaces/inkscape"
   xmlns:sodipodi="http://sodipodi.sourceforge.net/DTD/sodipodi-0.dtd"
   xmlns="http://www.w3.org/2000/svg"
   xmlns:svg="http://www.w3.org/2000/svg"><sodipodi:namedview
     id="namedview7"
     pagecolor="#2c2c2c"
     bordercolor="#000000"
     borderopacity="0.25"
     inkscape:showpageshadow="2"
     inkscape:pageopacity="0"
     inkscape:pagecheckerboard="0"
     inkscape:deskcolor="#d1d1d1"
     inkscape:document-units="mm"
     showgrid="false"
     inkscape:zoom="0.5"
     inkscape:cx="-123"
     inkscape:cy="42"
     inkscape:window-width="1920"
     inkscape:window-height="1012"
     inkscape:window-x="0"
     inkscape:window-y="0"
     inkscape:window-maximized="1"
     inkscape:current-layer="layer2" /><defs
     id="defs2"><inkscape:path-effect
       effect="mirror_symmetry"
       start_point="337.06288,161.32024"
       end_point="337.06288,331.13644"
       center_point="337.06288,246.22834"
       id="path-effect1675"
       is_visible="true"
       lpeversion="1.2"
       lpesatellites=""
       mode="vertical"
       discard_orig_path="false"
       fuse_paths="true"
       oposite_fuse="false"
       split_items="false"
       split_open="false"
       link_styles="false" /></defs><g
     inkscape:groupmode="layer"
     id="layer2"
     inkscape:label="Layer 2"
     transform="translate(-62.5971,-53.269108)"><path
       style="display:inline;fill:#ffffff;stroke-width:0.264583"
       d="m 66.927442,77.215141 c -0.90863,-1.15513 -0.009,-4.3606 2.79256,-9.94573 0.49082,-0.97864 0.8925,-1.81208 0.89261,-1.85209 1.1e-4,-0.04 -1.1293,-0.0315 -2.5098,0.0188 -6.52942,0.23818 -7.32,-2.95914 -2.00369,-8.10347 3.96529,-3.83703 9.63703,-5.23883 12.04471,-2.97693 0.72158,0.67788 1.1489,0.67788 1.87047,0 2.40769,-2.2619 8.07943,-0.8601 12.04472,2.97693 5.31631,5.14433 4.52573,8.34165 -2.00369,8.10347 -1.3805,-0.0504 -2.50991,-0.0588 -2.5098,-0.0188 1.1e-4,0.04 0.40179,0.87345 0.89261,1.85209 3.65522,7.28802 4.08602,10.64287 1.36666,10.64287 -1.21022,0 -1.82078,-0.63638 -2.53847,-2.64583 -1.39533,-3.90676 -3.08384,-7.37553 -7.43674,-15.27751 -0.85639,-1.55464 -0.33089,-2.15012 -3.95549,4.48226 -1.93365,3.53823 -3.95341,7.91449 -4.98229,10.79525 -0.96267,2.69535 -2.70382,3.55122 -3.96437,1.94869 z m 4.26425,-17.27353 c 2.78793,-1.86468 3.26934,-2.4379 1.76324,-2.09951 -1.41955,0.31896 -2.44586,0.94972 -3.78529,2.32643 -1.52394,1.56637 -0.48478,1.44975 2.02205,-0.22692 z m 17.7968,0.22692 c -1.33942,-1.37671 -2.36574,-2.00747 -3.78528,-2.32643 -1.5061,-0.33839 -1.02469,0.23483 1.76324,2.09951 2.50683,1.67667 3.54599,1.79329 2.02204,0.22692 z"
       id="path2641" /></g></svg>
