<?xml version="1.0" encoding="UTF-8" standalone="no"?>
<!-- Created with Inkscape (http://www.inkscape.org/) -->

<svg
   width="602.24048"
   height="877.0636"
   viewBox="0 0 159.34279 232.05641"
   version="1.1"
   id="svg5"
   xml:space="preserve"
   inkscape:version="1.2.2 (b0a8486541, 2022-12-01)"
   sodipodi:docname="dress.svg"
   xmlns:inkscape="http://www.inkscape.org/namespaces/inkscape"
   xmlns:sodipodi="http://sodipodi.sourceforge.net/DTD/sodipodi-0.dtd"
   xmlns="http://www.w3.org/2000/svg"
   xmlns:svg="http://www.w3.org/2000/svg"><sodipodi:namedview
     id="namedview7"
     pagecolor="#2c2c2c"
     bordercolor="#000000"
     borderopacity="0.25"
     inkscape:showpageshadow="2"
     inkscape:pageopacity="0"
     inkscape:pagecheckerboard="0"
     inkscape:deskcolor="#d1d1d1"
     inkscape:document-units="mm"
     showgrid="false"
     inkscape:zoom="0.70710678"
     inkscape:cx="193.04015"
     inkscape:cy="475.17576"
     inkscape:window-width="1920"
     inkscape:window-height="1012"
     inkscape:window-x="0"
     inkscape:window-y="0"
     inkscape:window-maximized="1"
     inkscape:current-layer="layer1" /><defs
     id="defs2"><inkscape:path-effect
       effect="mirror_symmetry"
       start_point="337.06288,161.32024"
       end_point="337.06288,331.13644"
       center_point="337.06288,246.22834"
       id="path-effect1675"
       is_visible="true"
       lpeversion="1.2"
       lpesatellites=""
       mode="vertical"
       discard_orig_path="false"
       fuse_paths="true"
       oposite_fuse="false"
       split_items="false"
       split_open="false"
       link_styles="false" /><inkscape:path-effect
       effect="mirror_symmetry"
       start_point="151.93321,230.31691"
       end_point="151.93321,462.37332"
       center_point="151.93321,346.34512"
       id="path-effect2939"
       is_visible="true"
       lpeversion="1.2"
       lpesatellites=""
       mode="vertical"
       discard_orig_path="false"
       fuse_paths="true"
       oposite_fuse="false"
       split_items="false"
       split_open="false"
       link_styles="false" /></defs><g
     inkscape:label="Layer 1"
     inkscape:groupmode="layer"
     id="layer1"
     transform="translate(-185.71291,-252.25468)"><path
       style="display:inline;fill:#ffffff;stroke-width:0.264583"
       d="m 128.31445,262.80664 c -6.52729,0.16271 -10.96716,0.86561 -16.14843,2.41797 -3.41204,5.02588 -4.02912,7.23201 -5.17579,12.29101 -4.15451,19.15882 -6.37046,35.60514 -10.197261,57.31055 -3.27156,18.74294 -5.410581,31.03769 -9.455078,52.05078 -3.725844,15.81351 -5.682747,27.53937 -6.794922,36.90625 -0.370639,3.12157 -0.58099,3.95024 -1.679688,6.61524 -0.690753,1.67549 -1.414333,3.46332 -1.609375,3.97265 -0.195043,0.50932 -1.04214,2.23521 -1.880859,3.83594 -4.638217,8.85222 -4.294729,10.88825 2.414062,14.32813 1.688623,0.86583 8.209299,1.23663 11.113282,0.63281 0.800365,-0.16642 2.325195,-0.47059 3.388671,-0.67578 1.063475,-0.20519 3.210907,-0.73515 4.773438,-1.17774 4.25556,-1.20541 5.09156,-0.9026 9.7832,3.53125 6.04738,5.71509 13.36098,6.58466 20.94727,2.49024 4.09362,-2.20937 3.99129,-2.17188 5.83594,-2.17188 h 1.75976 l 2.35352,1.86914 c 3.4686,2.75355 6.5068,4.39976 9.10937,4.9375 1.68475,0.3481 3.38467,0.46914 5.08203,0.36914 1.69737,0.1 3.39728,-0.021 5.08203,-0.36914 2.60258,-0.53774 5.63883,-2.18395 9.10743,-4.9375 l 2.35547,-1.86914 h 1.75781 c 1.84465,0 1.74232,-0.0375 5.83594,2.17188 7.58629,4.09442 14.89988,3.22485 20.94726,-2.49024 4.69164,-4.43385 5.52765,-4.73666 9.7832,-3.53125 1.56254,0.44259 3.71192,0.97255 4.77539,1.17774 1.06348,0.20519 2.58831,0.50936 3.38868,0.67578 2.90398,0.60382 9.42466,0.23302 11.11328,-0.63281 6.70879,-3.43988 7.05032,-5.47591 2.41211,-14.32813 -0.83872,-1.60073 -1.68387,-3.32662 -1.87891,-3.83594 -0.19504,-0.50933 -0.92057,-2.29716 -1.61133,-3.97265 -1.09869,-2.665 -1.30905,-3.49367 -1.67968,-6.61524 -1.11218,-9.36688 -3.06908,-21.09274 -6.79493,-36.90625 -4.04449,-21.01309 -6.18156,-33.30784 -9.45312,-52.05078 -3.8268,-21.70541 -6.04276,-38.15173 -10.19727,-57.31055 -1.14667,-5.059 -1.76374,-7.26513 -5.17578,-12.29101 -5.18127,-1.55236 -9.62115,-2.25526 -16.14844,-2.41797 0.56868,4.9551 0.44713,8.55812 0.33399,13.42578 l -1.29492,-0.18554 c -1.25175,-0.1801 -7.47388,-0.91507 -12.93946,-1.52735 -1.79872,-0.2015 -5.81717,-0.29588 -9.71875,-0.28515 -3.90157,-0.0107 -7.92197,0.0837 -9.7207,0.28515 -5.46558,0.61228 -11.68575,1.34725 -12.9375,1.52735 l -1.29687,0.18554 c -0.11314,-4.86766 -0.23275,-8.47068 0.33593,-13.42578 z m 17.9159,181.83304 c -0.0845,-0.21107 -0.14715,-0.14838 -0.15985,0.15985 -0.0115,0.27891 0.0511,0.43518 0.13897,0.34727 0.0879,-0.0879 0.0973,-0.31613 0.0209,-0.50712 z m 11.40571,0 c 0.0845,-0.21107 0.14715,-0.14838 0.15985,0.15985 0.0115,0.27891 -0.0511,0.43518 -0.13897,0.34727 -0.0879,-0.0879 -0.0973,-0.31613 -0.0209,-0.50712 z"
       id="path2009-7"
       inkscape:path-effect="#path-effect2939"
       inkscape:original-d="m 146.85066,461.97014 c -2.60257,-0.53774 -5.6396,-2.18417 -9.1082,-4.93772 l -2.35403,-1.86874 h -1.75894 c -1.84465,0 -1.74251,-0.038 -5.83613,2.17137 -7.58629,4.09442 -14.89959,3.22506 -20.94697,-2.49003 -4.69164,-4.43385 -5.52786,-4.73559 -9.783419,-3.53018 -1.562531,0.44259 -3.711082,0.9726 -4.774557,1.17779 -1.063476,0.20519 -2.588436,0.50923 -3.388801,0.67565 -2.903983,0.60382 -9.423877,0.23185 -11.1125,-0.63398 -6.708791,-3.43988 -7.051614,-5.47508 -2.413397,-14.3273 0.838719,-1.60073 1.684523,-3.32714 1.879566,-3.83646 0.195042,-0.50933 0.919783,-2.2969 1.610536,-3.97239 1.098698,-2.665 1.308949,-3.49301 1.679588,-6.61458 1.112175,-9.36688 3.069256,-21.09224 6.7951,-36.90574 4.044497,-21.01309 6.182842,-33.30881 9.454402,-52.05175 3.826802,-21.70541 6.042442,-38.15208 10.196952,-57.3109 1.14667,-5.059 1.76425,-7.26378 5.17629,-12.28966 5.18127,-1.55236 9.6212,-2.25546 16.14849,-2.41817 -0.56868,4.9551 -0.44899,8.55747 -0.33585,13.42513 l 1.29635,-0.18651 c 1.25175,-0.18009 7.47244,-0.91388 12.93802,-1.52616 3.41571,-0.38265 14.84053,-0.38265 18.25625,0 5.46558,0.61228 11.68627,1.34607 12.93801,1.52616 l 1.29635,0.18651 -0.17858,-1.43045 c -0.58914,-4.71919 -1.33882,-9.55178 -1.74859,-11.27169 l -0.47232,-1.98249 0.96173,0.12524 c 6.86465,0.89395 14.19846,3.05947 14.7116,4.34403 0.41376,1.03577 2.91499,8.09607 4.15205,11.72009 1.55154,4.54528 5.84227,25.80074 9.34677,46.30208 0.23632,1.38245 1.48702,6.74026 2.77935,11.90625 4.83503,19.32773 8.08739,34.14498 9.64056,43.92083 0.21964,1.38245 0.87111,4.53761 1.44771,7.01146 2.91576,12.50974 5.68293,27.53886 6.79511,36.90574 0.37063,3.12157 0.58088,3.94958 1.67958,6.61458 0.69075,1.67549 1.4155,3.46306 1.61054,3.97239 0.19504,0.50932 1.04084,2.23573 1.87956,3.83646 4.63822,8.85222 4.2954,10.88742 -2.41339,14.3273 -1.68862,0.86583 -8.20852,1.2378 -11.1125,0.63398 -0.80037,-0.16642 -2.32533,-0.47046 -3.3888,-0.67565 -1.06348,-0.20519 -3.21203,-0.7352 -4.77456,-1.17779 -4.25556,-1.20541 -5.09178,-0.90367 -9.78342,3.53018 -6.04738,5.71509 -13.36068,6.58445 -20.94697,2.49003 -4.09362,-2.20938 -3.99148,-2.17137 -5.83613,-2.17137 h -1.75894 l -2.35403,1.86874 c -5.63709,4.475 -11.96681,6.20277 -18.08944,4.93772 z m -0.62031,-17.33046 c -0.0845,-0.21107 -0.14715,-0.14838 -0.15985,0.15985 -0.0115,0.27891 0.0511,0.43518 0.13897,0.34727 0.0879,-0.0879 0.0973,-0.31613 0.0209,-0.50712 z m 10.31875,0 c -0.0845,-0.21107 -0.14715,-0.14838 -0.15985,0.15985 -0.0115,0.27891 0.0511,0.43518 0.13897,0.34727 0.0879,-0.0879 0.0973,-0.31613 0.0209,-0.50712 z"
       class="UnoptimicedTransforms"
       sodipodi:nodetypes="sscsssssssssssccccccsssscsscsssssssssssssssssscssssssssssss"
       transform="translate(113.4511,21.93777)" /></g></svg>
