<?xml version="1.0" encoding="UTF-8" standalone="no"?>
<!-- Created with Inkscape (http://www.inkscape.org/) -->

<svg
   width="90.936485mm"
   height="247.34352mm"
   viewBox="0 0 90.936484 247.34351"
   version="1.1"
   id="svg2053"
   inkscape:export-filename="hair_front.svg"
   inkscape:export-xdpi="96"
   inkscape:export-ydpi="96"
   inkscape:version="1.2.2 (b0a8486541, 2022-12-01)"
   sodipodi:docname="pants_thigh.svg"
   xmlns:inkscape="http://www.inkscape.org/namespaces/inkscape"
   xmlns:sodipodi="http://sodipodi.sourceforge.net/DTD/sodipodi-0.dtd"
   xmlns="http://www.w3.org/2000/svg"
   xmlns:svg="http://www.w3.org/2000/svg">
  <sodipodi:namedview
     id="namedview2055"
     pagecolor="#5a5a5a"
     bordercolor="#000000"
     borderopacity="0.25"
     inkscape:showpageshadow="2"
     inkscape:pageopacity="0"
     inkscape:pagecheckerboard="0"
     inkscape:deskcolor="#d1d1d1"
     inkscape:document-units="mm"
     showgrid="false"
     inkscape:zoom="0.51654111"
     inkscape:cx="-101.6376"
     inkscape:cy="396.87064"
     inkscape:window-width="1920"
     inkscape:window-height="1012"
     inkscape:window-x="0"
     inkscape:window-y="0"
     inkscape:window-maximized="1"
     inkscape:current-layer="layer1" />
  <defs
     id="defs2050" />
  <g
     inkscape:label="Layer 1"
     inkscape:groupmode="layer"
     id="layer1"
     transform="translate(-39.66848,74.027306)">
    <path
       style="display:inline;fill:#ffffff;fill-opacity:1;stroke-width:0.264583"
       d="m 71.446387,173.18611 c -9.734878,-0.93774 -18.951743,-6.07573 -24.746413,-13.795 -4.96236,-6.61053 -7.63042,-15.61542 -6.91742,-23.34679 1.05351,-11.42361 2.80249,-25.22042 4.21775,-33.27164 0.44123,-2.51008 1.17289,-6.94503 1.62592,-9.85545 0.79911,-5.1337 2.85414,-15.73602 3.40688,-17.57675 0.29429,-0.98004 2.84456,-13.87691 4.39673,-22.23454 0.95796,-5.15808 2.22603,-9.86443 3.4598,-12.84079 0.36193,-0.87313 1.01056,-2.48047 1.44139,-3.57188 2.67266,-6.77049 5.776813,-9.80247 14.111983,-13.78386 16.94492,-8.09393 36.603363,1.09866 41.190393,19.26127 0.68699,2.72018 0.7691,3.4881 0.76824,7.18467 -5.3e-4,2.27643 -0.35872,11.10412 -0.79598,19.61709 -0.43726,8.51297 -0.96849,18.93094 -1.18051,23.15104 -0.21202,4.22011 -0.50322,9.3398 -0.64712,11.37709 -0.14389,2.03729 -0.33531,6.08541 -0.42536,8.99583 -0.0901,2.91042 -0.50386,9.57792 -0.91955,14.81667 -0.4157,5.23875 -0.8294,10.71562 -0.91934,12.17083 -0.93748,15.1684 -10.341053,27.52651 -24.455123,32.13877 -4.26784,1.39466 -9.32933,1.976 -13.61227,1.56344 z"
       id="path283"
       inkscape:label="pants_thigh"
       inkscape:transform-center-x="8.1016625"
       inkscape:transform-center-y="46.98875" />
  </g>
</svg>
