<?xml version="1.0" encoding="UTF-8" standalone="no"?>
<!-- Created with Inkscape (http://www.inkscape.org/) -->

<svg
   width="443.55478"
   height="641.82495"
   viewBox="0 0 117.3572 169.81618"
   version="1.1"
   id="svg5"
   xml:space="preserve"
   inkscape:version="1.2.2 (b0a8486541, 2022-12-01)"
   sodipodi:docname="pants_torso.svg"
   xmlns:inkscape="http://www.inkscape.org/namespaces/inkscape"
   xmlns:sodipodi="http://sodipodi.sourceforge.net/DTD/sodipodi-0.dtd"
   xmlns="http://www.w3.org/2000/svg"
   xmlns:svg="http://www.w3.org/2000/svg"><sodipodi:namedview
     id="namedview7"
     pagecolor="#2c2c2c"
     bordercolor="#000000"
     borderopacity="0.25"
     inkscape:showpageshadow="2"
     inkscape:pageopacity="0"
     inkscape:pagecheckerboard="0"
     inkscape:deskcolor="#d1d1d1"
     inkscape:document-units="mm"
     showgrid="false"
     inkscape:zoom="0.35355339"
     inkscape:cx="-229.1026"
     inkscape:cy="503.46003"
     inkscape:window-width="1920"
     inkscape:window-height="1012"
     inkscape:window-x="0"
     inkscape:window-y="0"
     inkscape:window-maximized="1"
     inkscape:current-layer="layer1" /><defs
     id="defs2"><inkscape:path-effect
       effect="mirror_symmetry"
       start_point="337.06288,161.32024"
       end_point="337.06288,331.13644"
       center_point="337.06288,246.22834"
       id="path-effect1675"
       is_visible="true"
       lpeversion="1.2"
       lpesatellites=""
       mode="vertical"
       discard_orig_path="false"
       fuse_paths="true"
       oposite_fuse="false"
       split_items="false"
       split_open="false"
       link_styles="false" /><inkscape:path-effect
       effect="mirror_symmetry"
       start_point="337.06288,161.32024"
       end_point="337.06288,331.13644"
       center_point="337.06288,246.22834"
       id="path-effect1675-6"
       is_visible="true"
       lpeversion="1.2"
       lpesatellites=""
       mode="vertical"
       discard_orig_path="false"
       fuse_paths="true"
       oposite_fuse="false"
       split_items="false"
       split_open="false"
       link_styles="false" /></defs><g
     inkscape:label="Layer 1"
     inkscape:groupmode="layer"
     id="layer1"
     transform="translate(-206.7061,-283.36032)"><path
       style="display:inline;fill:#ffffff;fill-opacity:1;stroke-width:0.264583"
       d="m 261.0627,453.06606 c -0.0242,-0.023 -2.66142,-0.36028 -5.86048,-0.7494 -8.61111,-1.04742 -12.53879,-2.29499 -23.18037,-7.36289 -6.17727,-2.94183 -15.80086,-10.34042 -19.12035,-14.69967 -2.11025,-2.77124 -2.79733,-4.22022 -5.2151,-10.99803 -0.41237,-1.15604 -0.82987,-2.74297 -0.92777,-3.52652 -0.22261,-1.78167 0.29398,-8.06636 0.95098,-11.5695 1.23844,-6.60341 1.63081,-9.12023 1.67963,-10.77362 0.0584,-1.97636 0.49498,-2.80849 2.01737,-3.84461 1.08552,-0.7388 2.37893,-0.76324 4.72413,-0.0893 6.04969,1.73857 10.05637,2.42817 21.60461,3.71844 16.72785,1.86897 23.59031,2.48599 27.64896,2.48599 4.05865,0 10.92111,-0.61702 27.64896,-2.48599 11.54825,-1.29027 15.55493,-1.97987 21.60462,-3.71844 2.34519,-0.67397 3.6386,-0.64953 4.72412,0.0893 1.52239,1.03612 1.95902,1.86825 2.01737,3.84461 0.0488,1.65339 0.44119,4.17021 1.67963,10.77362 0.657,3.50314 1.17358,9.78783 0.95098,11.5695 -0.0979,0.78355 -0.5154,2.37048 -0.92778,3.52652 -2.41776,6.77781 -3.10484,8.22679 -5.21509,10.99803 -3.31948,4.35925 -12.94307,11.75784 -19.12035,14.69967 -6.74682,3.21308 -8.96233,4.12164 -13.07495,5.36193 -3.65835,1.10329 -5.12843,1.39574 -9.9986,1.98906 -3.65895,0.44576 -7.3002,0.71492 -10.13809,0.7494 -2.43563,0.0296 -4.44823,0.0349 -4.47243,0.0119 z"
       id="path287-7"
       inkscape:label="pants_torso" /></g></svg>
