<?xml version="1.0" encoding="UTF-8" standalone="no"?>
<!-- Created with Inkscape (http://www.inkscape.org/) -->

<svg
   width="101.27673mm"
   height="305.15335mm"
   viewBox="0 0 101.27673 305.15334"
   version="1.1"
   id="svg2053"
   inkscape:export-filename="hair_front.svg"
   inkscape:export-xdpi="96"
   inkscape:export-ydpi="96"
   inkscape:version="1.2.2 (b0a8486541, 2022-12-01)"
   sodipodi:docname="pants_calf.svg"
   xmlns:inkscape="http://www.inkscape.org/namespaces/inkscape"
   xmlns:sodipodi="http://sodipodi.sourceforge.net/DTD/sodipodi-0.dtd"
   xmlns="http://www.w3.org/2000/svg"
   xmlns:svg="http://www.w3.org/2000/svg">
  <sodipodi:namedview
     id="namedview2055"
     pagecolor="#5a5a5a"
     bordercolor="#000000"
     borderopacity="0.25"
     inkscape:showpageshadow="2"
     inkscape:pageopacity="0"
     inkscape:pagecheckerboard="0"
     inkscape:deskcolor="#d1d1d1"
     inkscape:document-units="mm"
     showgrid="false"
     inkscape:zoom="0.5165411"
     inkscape:cx="-318.46449"
     inkscape:cy="693.07166"
     inkscape:window-width="1920"
     inkscape:window-height="1012"
     inkscape:window-x="0"
     inkscape:window-y="0"
     inkscape:window-maximized="1"
     inkscape:current-layer="layer1" />
  <defs
     id="defs2050" />
  <g
     inkscape:label="Layer 1"
     inkscape:groupmode="layer"
     id="layer1"
     transform="translate(-5.5724306,-25.655462)">
    <path
       style="display:inline;fill:#ffffff;fill-opacity:1;stroke-width:0.264583"
       d="m 43.690115,310.01695 c -0.7276,-0.21358 -1.55913,-0.33198 -1.84785,-0.26312 -0.28871,0.0689 -1.24121,-0.0401 -2.11666,-0.24203 -0.87546,-0.20198 -3.32972,-0.67031 -5.45393,-1.04073 -4.53594,-0.79099 -11.89841,-2.94641 -14.91433,-4.36629 -5.62925,-2.65022 -12.16141,-9.58009 -13.37058,-14.18463 -0.83448,-3.17772 -0.39233,-12.63973 1.18072,-25.26771 0.49851,-4.00182 1.09963,-9.00245 1.33584,-11.1125 0.58874,-5.25915 2.05867,-15.75728 3.29715,-23.54791 0.56677,-3.56526 1.40676,-8.86354 1.86665,-11.77396 0.82576,-5.22586 1.43514,-8.40161 3.30004,-17.19792 0.52448,-2.47385 1.42138,-7.21581 1.99312,-10.53768 0.57173,-3.32187 1.26759,-7.01281 1.54633,-8.20208 0.27875,-1.18928 0.82621,-3.94826 1.21658,-6.13107 1.39674,-7.81019 2.68568,-11.37269 5.83942,-16.13958 8.62293,-13.03359 25.115465,-18.70872 39.982375,-13.75806 10.66762,3.5523 18.77709,11.79542 22.34481,22.71304 1.62025,4.95816 1.86517,8.89705 1.30223,20.94293 -0.56342,12.05593 -0.39571,30.39879 0.54792,59.92813 0.15578,4.87494 0.38217,12.25682 0.50308,16.40416 0.12091,4.14735 0.43372,10.51719 0.69513,14.15521 0.26141,3.63802 0.47942,9.1149 0.48446,12.17083 0.0106,6.42953 0.011,6.42808 -2.44028,8.58581 -2.21006,1.94537 -5.58553,4.43864 -6.81097,5.03088 -2.88728,1.39537 -7.23511,2.29073 -16.27187,3.35089 -4.97931,0.58416 -7.33811,0.71258 -14.41979,0.78506 -6.85962,0.0702 -8.717775,0.0129 -9.789595,-0.30167 z"
       id="path285"
       inkscape:label="pants_calf"
       inkscape:transform-center-y="49.179552"
       inkscape:transform-center-x="6.71264" />
  </g>
</svg>
