<?xml version="1.0" encoding="UTF-8" standalone="no"?>
<!-- Created with Inkscape (http://www.inkscape.org/) -->

<svg
   width="613.19965"
   height="655.66248"
   viewBox="0 0 162.24241 173.47736"
   version="1.1"
   id="svg5"
   xml:space="preserve"
   inkscape:version="1.2.2 (b0a8486541, 2022-12-01)"
   sodipodi:docname="sweater_torso.svg"
   xmlns:inkscape="http://www.inkscape.org/namespaces/inkscape"
   xmlns:sodipodi="http://sodipodi.sourceforge.net/DTD/sodipodi-0.dtd"
   xmlns="http://www.w3.org/2000/svg"
   xmlns:svg="http://www.w3.org/2000/svg"><sodipodi:namedview
     id="namedview7"
     pagecolor="#2c2c2c"
     bordercolor="#000000"
     borderopacity="0.25"
     inkscape:showpageshadow="2"
     inkscape:pageopacity="0"
     inkscape:pagecheckerboard="0"
     inkscape:deskcolor="#d1d1d1"
     inkscape:document-units="mm"
     showgrid="false"
     inkscape:zoom="0.5"
     inkscape:cx="-77"
     inkscape:cy="-2"
     inkscape:window-width="1920"
     inkscape:window-height="1012"
     inkscape:window-x="0"
     inkscape:window-y="0"
     inkscape:window-maximized="1"
     inkscape:current-layer="layer1" /><defs
     id="defs2"><inkscape:path-effect
       effect="mirror_symmetry"
       start_point="392.14496,161.41563"
       end_point="392.14496,331.04105"
       center_point="392.14496,246.22834"
       id="path-effect1675"
       is_visible="true"
       lpeversion="1.2"
       lpesatellites=""
       mode="vertical"
       discard_orig_path="false"
       fuse_paths="true"
       oposite_fuse="false"
       split_items="false"
       split_open="false"
       link_styles="false" /></defs><g
     inkscape:label="Layer 1"
     inkscape:groupmode="layer"
     id="layer1"
     transform="translate(-184.26311,-281.54419)"><path
       style="display:inline;fill:#ffffff;stroke-width:0.254701"
       d="m 251.12617,454.91057 c -19.77194,0.12601 -39.54937,-3.4314 -57.98313,-10.58484 -5.01644,-6.46919 1.40371,-15.13834 -3.82206,-21.74214 -4.47353,-7.43339 -4.99964,-16.58354 -1.69225,-24.58367 5.59238,-12.60158 11.13702,-25.28708 13.99575,-38.85647 3.21478,-11.65076 6.44727,-23.27286 8.88769,-35.11549 3.47864,-12.01417 4.78538,-25.4662 12.56632,-35.61453 6.48697,-3.68167 13.81172,-7.46394 21.42936,-6.56722 7.15203,6.55256 6.68924,17.85783 8.79142,27.74741 2.29676,10.51911 4.80939,18.92368 8.16873,30.68986 1.75227,4.12273 3.33379,9.89015 5.97961,2.97784 3.24191,-7.02143 6.93034,-18.20329 8.83644,-28.15998 2.59742,-9.85783 4.73692,-20.26432 6.81956,-30.07607 3.92344,-6.96813 13.38485,-1.71617 18.93404,0.3579 3.99101,1.45901 7.26775,3.78896 8.74045,7.87271 5.63813,10.59511 7.05498,22.80513 10.3273,34.23586 2.88513,14.52889 7.45062,28.64092 11.10716,42.98594 2.95999,11.98937 10.34691,22.41519 12.76081,34.54476 2.24768,8.59451 -2.84738,16.11771 -6.04705,23.59388 0.81852,6.54164 2.98488,17.086 -6.65615,17.70278 -17.45497,6.09874 -35.90852,8.76123 -54.36517,8.6009 -8.9255,0.14023 -17.85341,0.13375 -26.77883,-0.009 z"
       id="path730"
       inkscape:label="sweater_torso"
       sodipodi:nodetypes="ccccccccccccccccccccccc" /></g></svg>
