<?xml version="1.0" encoding="UTF-8" standalone="no"?>
<!-- Created with Inkscape (http://www.inkscape.org/) -->

<svg
   width="65.123268mm"
   height="86.545654mm"
   viewBox="0 0 65.123267 86.545651"
   version="1.1"
   id="svg2053"
   inkscape:export-filename="hair_front.svg"
   inkscape:export-xdpi="96"
   inkscape:export-ydpi="96"
   inkscape:version="1.2.2 (b0a8486541, 2022-12-01)"
   sodipodi:docname="sweater_hand.svg"
   xmlns:inkscape="http://www.inkscape.org/namespaces/inkscape"
   xmlns:sodipodi="http://sodipodi.sourceforge.net/DTD/sodipodi-0.dtd"
   xmlns="http://www.w3.org/2000/svg"
   xmlns:svg="http://www.w3.org/2000/svg">
  <sodipodi:namedview
     id="namedview2055"
     pagecolor="#5a5a5a"
     bordercolor="#000000"
     borderopacity="0.25"
     inkscape:showpageshadow="2"
     inkscape:pageopacity="0"
     inkscape:pagecheckerboard="0"
     inkscape:deskcolor="#d1d1d1"
     inkscape:document-units="mm"
     showgrid="false"
     inkscape:zoom="2.0661644"
     inkscape:cx="113.97931"
     inkscape:cy="164.55612"
     inkscape:window-width="1920"
     inkscape:window-height="1012"
     inkscape:window-x="0"
     inkscape:window-y="0"
     inkscape:window-maximized="1"
     inkscape:current-layer="layer1" />
  <defs
     id="defs2050" />
  <g
     inkscape:label="Layer 1"
     inkscape:groupmode="layer"
     id="layer1"
     transform="translate(-59.601965,-21.393229)">
    <path
       style="display:inline;fill:#ffffff;stroke-width:0.254701"
       d="m 107.94004,91.733246 c -3.60993,-1.210667 -6.63561,-3.715895 -9.988343,-5.480269 -8.470322,-4.879635 -16.872196,-9.901476 -25.706716,-14.107466 -3.409554,-1.921394 -7.165885,-3.536576 -9.935924,-6.361908 -2.367158,-2.277523 -2.723307,-5.438029 -1.14247,-8.312947 1.657814,-4.077474 3.392445,-8.183886 5.771709,-11.894293 2.64627,-2.835636 4.653519,-6.876218 8.646048,-7.982222 3.607226,-0.345293 7.429798,-0.564461 10.760918,1.133947 7.638688,3.113813 14.341368,7.985254 21.307598,12.312914 3.78136,2.680297 7.84777,4.919137 11.708,7.468079 3.12026,2.181137 5.46149,5.912016 4.81258,9.827909 -0.12641,6.162866 -3.47384,11.654499 -6.78004,16.636391 -2.04399,2.279207 -2.85437,6.669972 -6.39564,6.973141 -1.02159,-0.004 -2.04819,-0.04851 -3.05772,-0.213276 z"
       id="path736"
       inkscape:label="sweater_hand" />
  </g>
</svg>
