<?xml version="1.0" encoding="UTF-8" standalone="no"?>
<!-- Created with Inkscape (http://www.inkscape.org/) -->

<svg
   width="98.613144mm"
   height="108.784mm"
   viewBox="0 0 98.613144 108.784"
   version="1.1"
   id="svg3354"
   inkscape:version="1.2.2 (b0a8486541, 2022-12-01)"
   sodipodi:docname="top.svg"
   xmlns:inkscape="http://www.inkscape.org/namespaces/inkscape"
   xmlns:sodipodi="http://sodipodi.sourceforge.net/DTD/sodipodi-0.dtd"
   xmlns="http://www.w3.org/2000/svg"
   xmlns:svg="http://www.w3.org/2000/svg">
  <sodipodi:namedview
     id="namedview3356"
     pagecolor="#ffffff"
     bordercolor="#000000"
     borderopacity="0.25"
     inkscape:showpageshadow="2"
     inkscape:pageopacity="0.0"
     inkscape:pagecheckerboard="0"
     inkscape:deskcolor="#d1d1d1"
     inkscape:document-units="mm"
     showgrid="false"
     inkscape:zoom="0.73049944"
     inkscape:cx="115.67428"
     inkscape:cy="213.55253"
     inkscape:window-width="1920"
     inkscape:window-height="1012"
     inkscape:window-x="0"
     inkscape:window-y="0"
     inkscape:window-maximized="1"
     inkscape:current-layer="layer1" />
  <defs
     id="defs3351" />
  <g
     inkscape:label="Layer 1"
     inkscape:groupmode="layer"
     id="layer1"
     transform="translate(-56.613663,-92.035034)">
    <path
       style="display:inline;fill:#ffffff;fill-opacity:0.99048;stroke-width:0.264583"
       d="m 92.549674,196.36438 -2.823597,4.45465 C 81.221644,196.76108 74.863719,192.63673 69.708688,187.96224 61.134185,180.15328 58.379051,175.1409 59.239252,174.01428 l 2.706439,-3.54469 c -0.767543,-2.37203 -2.235782,-4.15223 -3.640654,-6.98861 -1.535149,-3.07185 -2.53493,-6.61064 -0.705626,-11.03134 1.859749,-3.54753 6.525903,-7.6465 10.472841,-9.91475 2.820989,-1.58636 6.085555,-4.08571 10.632222,-8.14003 4.645575,-4.14252 15.61338,-6.58419 21.470646,-6.69609 11.39802,-0.21777 14.06144,2.37962 14.14805,6.81521 -1.12736,9.01305 0.1484,11.60043 0.60301,31.98169 0.33343,9.41545 -0.0463,6.99379 -0.57509,21.9992 -1.28675,5.06008 -2.91165,8.67704 -6.84243,9.78042 -7.09016,1.47475 -13.631436,-3.56966 -14.958986,-1.91091 z"
       id="path2375"
       sodipodi:nodetypes="cccsccccssccccc"
       inkscape:transform-center-x="20.087631"
       inkscape:transform-center-y="17.825528" />
  </g>
</svg>
