<?xml version="1.0" encoding="UTF-8" standalone="no"?>
<!-- Created with Inkscape (http://www.inkscape.org/) -->

<svg
   width="272.93365mm"
   height="377.54626mm"
   viewBox="0 0 272.93365 377.54626"
   version="1.1"
   id="svg4370"
   inkscape:version="1.2.2 (b0a8486541, 2022-12-01)"
   sodipodi:docname="flower_petals.svg"
   xmlns:inkscape="http://www.inkscape.org/namespaces/inkscape"
   xmlns:sodipodi="http://sodipodi.sourceforge.net/DTD/sodipodi-0.dtd"
   xmlns="http://www.w3.org/2000/svg"
   xmlns:svg="http://www.w3.org/2000/svg">
  <sodipodi:namedview
     id="namedview4372"
     pagecolor="#ffffff"
     bordercolor="#000000"
     borderopacity="0.25"
     inkscape:showpageshadow="2"
     inkscape:pageopacity="0.0"
     inkscape:pagecheckerboard="0"
     inkscape:deskcolor="#d1d1d1"
     inkscape:document-units="mm"
     showgrid="false"
     inkscape:zoom="0.36524972"
     inkscape:cx="381.93048"
     inkscape:cy="714.5796"
     inkscape:window-width="1920"
     inkscape:window-height="1012"
     inkscape:window-x="0"
     inkscape:window-y="0"
     inkscape:window-maximized="1"
     inkscape:current-layer="layer1" />
  <defs
     id="defs4367" />
  <g
     inkscape:label="Layer 1"
     inkscape:groupmode="layer"
     id="layer1"
     transform="translate(74.444702,-25.197813)">
    <path
       style="display:inline;fill:#ffffff;fill-opacity:1;stroke-width:2.64583"
       d="m 153.28495,54.560914 c -2.36363,-4.25356 -0.82787,-9.37326 0.97816,-13.54039 3.22471,-6.6197 9.61445,-12.33453 17.17822,-12.9167 6.47692,0.62114 10.41788,7.36849 10.56233,13.41563 0.50133,6.50518 -1.49288,13.07774 -5.26284,18.37014 2.94832,-5.238 10.15403,-4.98345 15.09983,-3.17997 4.68533,1.36304 8.22188,5.51998 8.71063,10.38875 1.50151,7.10623 -1.285,15.08513 -7.62402,18.93387 -5.91506,3.99852 -15.20352,3.20496 -19.21552,-3.09036 2.77299,2.3645 3.18686,6.48179 4.42288,9.76034 1.39407,4.69993 0.32367,10.960306 -4.75195,12.932206 -8.17425,3.28167 -17.86382,-0.26895 -23.56363,-6.578916 -3.40468,-3.66746 -4.46021,-9.16871 -2.49637,-13.80177 0.0151,-2.20934 3.69763,-4.60578 0.055,-2.94362 -6.93333,0.62498 -13.49595,-3.57489 -17.86969,-8.66148 -3.71379,-4.21171 -5.66988,-10.59858 -2.78909,-15.78279 2.59166,-5.93142 9.74111,-7.5199 15.60222,-6.88583 3.97454,0.0157 7.37019,2.21086 10.96383,3.58089 z"
       id="path4201"
       inkscape:transform-center-x="-101.12088"
       inkscape:transform-center-y="-146.47896" />
  </g>
</svg>
