<?xml version="1.0" encoding="UTF-8" standalone="no"?>
<!-- Created with Inkscape (http://www.inkscape.org/) -->

<svg
   width="1142.3785"
   height="1874.1436"
   viewBox="0 0 302.25432 495.86715"
   version="1.1"
   id="svg5"
   xml:space="preserve"
   inkscape:version="1.2.2 (b0a8486541, 2022-12-01)"
   sodipodi:docname="hair_back.svg"
   xmlns:inkscape="http://www.inkscape.org/namespaces/inkscape"
   xmlns:sodipodi="http://sodipodi.sourceforge.net/DTD/sodipodi-0.dtd"
   xmlns="http://www.w3.org/2000/svg"
   xmlns:svg="http://www.w3.org/2000/svg"><sodipodi:namedview
     id="namedview7"
     pagecolor="#2c2c2c"
     bordercolor="#000000"
     borderopacity="0.25"
     inkscape:showpageshadow="2"
     inkscape:pageopacity="0"
     inkscape:pagecheckerboard="0"
     inkscape:deskcolor="#d1d1d1"
     inkscape:document-units="px"
     showgrid="false"
     inkscape:zoom="0.25"
     inkscape:cx="-348"
     inkscape:cy="612"
     inkscape:window-width="1920"
     inkscape:window-height="1012"
     inkscape:window-x="0"
     inkscape:window-y="0"
     inkscape:window-maximized="1"
     inkscape:current-layer="layer1"
     showguides="true"
     shape-rendering="crispEdges" /><defs
     id="defs2"><inkscape:path-effect
       effect="mirror_symmetry"
       start_point="264.18598,163.17178"
       end_point="264.18598,629.36761"
       center_point="264.18598,396.2697"
       id="path-effect1346"
       is_visible="true"
       lpeversion="1.2"
       lpesatellites=""
       mode="vertical"
       discard_orig_path="false"
       fuse_paths="true"
       oposite_fuse="false"
       split_items="false"
       split_open="false"
       link_styles="false" /></defs><g
     inkscape:label="Layer 1"
     inkscape:groupmode="layer"
     id="layer1"
     transform="translate(-155.2974,-151.1722)"><path
       style="display:inline;fill:#ffffff;stroke-width:0.264583"
       d="m 272.3726,410.41574 c -4.87495,-0.11376 -9.87557,-0.33466 -11.1125,-0.49088 -1.23693,-0.15623 -4.39209,-0.40864 -7.01146,-0.56091 -2.61938,-0.15227 -5.47688,-0.39145 -6.35,-0.53152 -0.87313,-0.14007 -2.27253,-0.25557 -3.10978,-0.25667 -1.60227,-0.002 -11.24121,-1.12333 -13.7041,-1.59409 -0.7933,-0.15164 -3.04972,-0.44948 -5.01425,-0.66187 -5.02474,-0.54325 -9.46996,-1.15282 -10.57148,-1.44967 -0.51584,-0.13901 -3.37866,-0.67656 -6.36184,-1.19455 -2.98318,-0.51799 -6.0788,-1.10833 -6.87917,-1.31186 -5.89077,-1.49805 -6.83301,-1.807 -8.13651,-2.66791 -1.46855,-0.96992 -2.60811,-2.34331 -3.6684,-4.42113 l -0.64323,-1.26053 -1.39476,1.05305 c -7.78506,5.87778 -25.92619,-0.67346 -30.20192,-10.90672 -3.19449,-7.64551 -3.95573,-51.77345 -1.32239,-76.65755 1.86951,-17.66621 5.69335,-34.45406 12.68585,-55.6948 2.9874,-9.07468 8.83067,-21.49763 14.68505,-31.22083 0.9638,-1.60073 2.32671,-3.92245 3.02869,-5.15937 2.49658,-4.39914 7.76899,-11.10201 16.54545,-21.03438 13.90616,-15.73769 44.54805,-34.362 64.43571,-39.16436 26.45204,-6.3875 64.28843,-5.09605 85.32812,2.91246 16.78757,6.38998 43.68019,24.21296 50.87422,32.03572 7.81178,7.75776 15.25346,15.90177 20.40439,24.72139 0.7102,1.23693 2.21136,3.79677 3.3359,5.68854 8.15731,13.72265 13.8771,27.00333 17.94748,41.67188 0.14134,0.50932 0.79195,2.77151 1.44584,5.02708 9.19964,31.73438 12.59898,80.92396 7.71858,111.69117 -2.21781,13.98176 -21.63302,23.75425 -31.54074,15.8758 l -1.38411,-1.10063 -0.81373,1.61195 c -1.28659,2.54874 -3.65669,4.84255 -5.54617,5.36764 -3.71797,1.03324 -9.60709,2.38047 -12.83229,2.93558 -2.18281,0.3757 -4.77886,0.86877 -5.769,1.09573 -2.0047,0.4595 -5.66634,0.97603 -11.03204,1.55623 -1.96453,0.21243 -4.22094,0.5103 -5.01424,0.66194 -2.4629,0.47076 -12.10183,1.59199 -13.7041,1.59409 -0.83726,10e-4 -2.23666,0.11678 -3.10978,0.25706 -0.87313,0.14029 -3.6711,0.3772 -6.21771,0.52647 -2.54662,0.14927 -6.47568,0.45393 -8.73125,0.67702 -4.76186,0.47097 -61.41236,0.7492 -77.25833,0.37943 z"
       id="path1618-7"
       inkscape:label="hair_back"
       sodipodi:nodetypes="sssscssssssscsssssssssccsscsscsssssscssss" /></g></svg>
