<?xml version="1.0" encoding="UTF-8" standalone="no"?>
<!-- Created with Inkscape (http://www.inkscape.org/) -->

<svg
   width="302.68332mm"
   height="516.05127mm"
   viewBox="0 0 302.68332 516.05127"
   version="1.1"
   id="svg867"
   inkscape:version="1.2.2 (b0a8486541, 2022-12-01)"
   sodipodi:docname="hair_front_smooth.svg"
   xmlns:inkscape="http://www.inkscape.org/namespaces/inkscape"
   xmlns:sodipodi="http://sodipodi.sourceforge.net/DTD/sodipodi-0.dtd"
   xmlns="http://www.w3.org/2000/svg"
   xmlns:svg="http://www.w3.org/2000/svg">
  <sodipodi:namedview
     id="namedview869"
     pagecolor="#ffffff"
     bordercolor="#000000"
     borderopacity="0.25"
     inkscape:showpageshadow="2"
     inkscape:pageopacity="0.0"
     inkscape:pagecheckerboard="0"
     inkscape:deskcolor="#d1d1d1"
     inkscape:document-units="mm"
     showgrid="false"
     inkscape:zoom="0.51654111"
     inkscape:cx="504.31611"
     inkscape:cy="710.49524"
     inkscape:window-width="1920"
     inkscape:window-height="1012"
     inkscape:window-x="0"
     inkscape:window-y="0"
     inkscape:window-maximized="1"
     inkscape:current-layer="layer1" />
  <defs
     id="defs864" />
  <g
     inkscape:label="Layer 1"
     inkscape:groupmode="layer"
     id="layer1"
     transform="translate(49.457466,41.968597)">
    <path
       id="path739"
       style="display:inline;fill:#ffffff;stroke-width:2.64583"
       d="m 97.776421,-31.478802 c -35.977175,2.66376 -72.681385,18.001877 -94.887285,47.304793 -14.28062,22.603075 -21.65722,49.756717 -20.07461,76.476127 1.48785,9.208892 4.69809,22.037672 15.74814,23.270042 13.79886,-1.05513 22.68117,-13.35847 33.43409,-20.585442 12.30407,-10.58315 10.50788,-7.51211 24.23017,-21.81913 8.88943,-7.3118 11.1456,-11.56461 18.57278,-22.013294 13.330905,20.960314 44.238494,36.882274 65.837134,46.076551 21.09665,8.092415 42.32429,16.857235 64.94793,19.511265 12.63766,-1.52572 14.18801,-11.80523 15.42746,-24.980002 0.92946,-29.29196 -5.51082,-49.293144 -16.41964,-70.199833 C 197.21521,10.161282 187.7264,0.09283287 177.45659,-8.7200511 154.70031,-25.848032 128.1707,-30.447617 97.776421,-31.478802 Z"
       sodipodi:nodetypes="ccccccccccccc" />
  </g>
</svg>
