<?xml version="1.0" encoding="UTF-8" standalone="no"?>
<!-- Created with Inkscape (http://www.inkscape.org/) -->

<svg
   width="75.912193mm"
   height="305.15338mm"
   viewBox="0 0 75.912192 305.15337"
   version="1.1"
   id="svg2053"
   inkscape:export-filename="hair_front.svg"
   inkscape:export-xdpi="96"
   inkscape:export-ydpi="96"
   inkscape:version="1.2.2 (b0a8486541, 2022-12-01)"
   sodipodi:docname="calf.svg"
   xmlns:inkscape="http://www.inkscape.org/namespaces/inkscape"
   xmlns:sodipodi="http://sodipodi.sourceforge.net/DTD/sodipodi-0.dtd"
   xmlns="http://www.w3.org/2000/svg"
   xmlns:svg="http://www.w3.org/2000/svg">
  <sodipodi:namedview
     id="namedview2055"
     pagecolor="#5a5a5a"
     bordercolor="#000000"
     borderopacity="0.25"
     inkscape:showpageshadow="2"
     inkscape:pageopacity="0"
     inkscape:pagecheckerboard="0"
     inkscape:deskcolor="#d1d1d1"
     inkscape:document-units="mm"
     showgrid="false"
     inkscape:zoom="0.25827055"
     inkscape:cx="230.37857"
     inkscape:cy="483.98859"
     inkscape:window-width="1920"
     inkscape:window-height="1012"
     inkscape:window-x="0"
     inkscape:window-y="0"
     inkscape:window-maximized="1"
     inkscape:current-layer="layer1" />
  <defs
     id="defs2050" />
  <g
     inkscape:label="Layer 1"
     inkscape:groupmode="layer"
     id="layer1"
     transform="translate(-18.254702,-25.655462)">
    <path
       style="display:inline;fill:#ffffff;stroke-width:0.264583"
       d="m 46.10368,330.67229 c -0.58208,-0.0511 -1.84157,-0.20756 -2.79886,-0.34775 -0.95729,-0.14019 -3.33853,-0.74658 -5.29166,-1.34754 -1.95313,-0.60096 -3.99104,-1.31648 -4.52869,-1.59006 -0.53765,-0.27357 -1.81706,-1.35034 -2.84314,-2.39282 -1.08652,-1.10389 -2.46157,-2.90023 -3.29274,-4.30157 -0.78493,-1.32338 -1.80116,-3.1542 -2.25828,-4.06847 -0.45713,-0.91429 -1.34813,-3.53366 -1.98002,-5.82084 -0.63189,-2.28718 -1.57324,-6.00397 -2.09188,-8.25955 -0.59086,-2.56959 -1.18927,-6.32411 -1.60249,-10.05416 -0.36271,-3.27422 -0.72356,-6.72703 -0.80187,-7.67292 -0.0783,-0.94588 -0.21953,-4.04151 -0.31379,-6.87917 -0.0943,-2.83765 -0.0374,-8.0764 0.12627,-11.64166 0.16373,-3.56526 0.35381,-7.61339 0.42241,-8.99584 0.0686,-1.38244 0.19059,-4.00182 0.27109,-5.82083 0.0805,-1.81901 0.20881,-4.25979 0.28514,-5.42396 0.0763,-1.16416 0.37724,-5.0271 0.6687,-8.58429 0.29146,-3.55719 0.57683,-6.54352 0.63415,-6.63627 0.0573,-0.0928 0.34571,-2.36154 0.64086,-5.04175 0.29514,-2.6802 0.71839,-7.07576 0.94055,-9.76789 0.22216,-2.69214 0.58837,-6.6212 0.8138,-8.73125 0.22544,-2.11006 0.64587,-5.74146 0.93431,-8.0698 0.28843,-2.32833 0.87106,-6.61458 1.29473,-9.525 0.42367,-2.91041 1.13639,-7.67291 1.58382,-10.58333 0.44742,-2.91042 1.04091,-6.1251 1.31886,-7.14375 0.27795,-1.01864 1.03028,-3.05866 1.67185,-4.53338 0.64157,-1.47471 1.74257,-3.5583 2.44668,-4.6302 0.7041,-1.07191 2.41907,-3.0878 3.81103,-4.47976 1.39196,-1.39196 3.4018,-3.1029 4.46631,-3.80209 1.06451,-0.69919 2.8643,-1.66299 3.99954,-2.14177 1.13524,-0.47879 2.94319,-1.1168 4.01766,-1.41781 1.07447,-0.30101 3.18567,-0.68703 4.69157,-0.85781 2.08363,-0.23631 3.41289,-0.23732 5.56194,-0.004 1.55316,0.16845 3.60794,0.53049 4.56617,0.80451 0.95823,0.27403 2.76633,0.91576 4.01801,1.42606 1.25168,0.51031 3.14403,1.49809 4.20521,2.19507 1.06118,0.69698 3.06691,2.40611 4.45715,3.79807 1.39025,1.39196 2.99273,3.24338 3.56107,4.11426 0.56834,0.87088 1.41173,2.35916 1.87421,3.30729 0.46247,0.94813 1.1459,2.64215 1.51872,3.76448 0.37282,1.12233 0.82433,2.7892 1.00336,3.70416 0.17902,0.91496 0.32299,3.21138 0.31993,5.10315 -0.004,2.55254 -0.2583,5.17955 -0.98554,10.18646 -0.53898,3.71078 -1.27266,8.49209 -1.63039,10.62513 -0.35773,2.13304 -0.89162,5.05007 -1.18641,6.48229 -0.2948,1.43222 -0.83263,5.04482 -1.19517,8.028 -0.36255,2.98317 -0.94823,7.09083 -1.30151,9.12812 -0.35327,2.03729 -1.00627,6.85932 -1.4511,10.71563 -0.44483,3.8563 -1.51867,13.26223 -2.38631,20.90208 -0.86764,7.63984 -1.82242,16.03375 -2.12173,18.65312 -0.29931,2.61938 -0.84134,7.14375 -1.20452,10.05417 -0.36317,2.91042 -0.77484,6.3037 -0.91482,7.54062 -0.13997,1.23693 -0.37222,4.21349 -0.5161,6.61459 -0.14388,2.40109 -0.33145,8.77093 -0.41684,14.15521 -0.0854,5.38427 -0.27071,10.86114 -0.41184,12.17083 -0.16236,1.50672 -0.42913,2.62417 -0.72639,3.04271 -0.26083,0.36725 -1.8169,1.33861 -3.49848,2.1839 -2.98451,1.50024 -3.07502,1.52623 -6.2037,1.78175 -1.74625,0.14262 -4.96093,0.24117 -7.14375,0.21902 -2.18281,-0.0222 -4.445,-0.0821 -5.02708,-0.13316 z"
       id="path2282"
       inkscape:label="calf"
       inkscape:transform-center-x="4.8707451"
       inkscape:transform-center-y="62.137684" />
  </g>
</svg>
