<?xml version="1.0" encoding="UTF-8" standalone="no"?>
<!-- Created with Inkscape (http://www.inkscape.org/) -->

<svg
   width="597.76306"
   height="877.0636"
   viewBox="0 0 158.15814 232.05641"
   version="1.1"
   id="svg5"
   xml:space="preserve"
   inkscape:version="1.2.2 (b0a8486541, 2022-12-01)"
   sodipodi:docname="dress.svg"
   xmlns:inkscape="http://www.inkscape.org/namespaces/inkscape"
   xmlns:sodipodi="http://sodipodi.sourceforge.net/DTD/sodipodi-0.dtd"
   xmlns="http://www.w3.org/2000/svg"
   xmlns:svg="http://www.w3.org/2000/svg"><sodipodi:namedview
     id="namedview7"
     pagecolor="#2c2c2c"
     bordercolor="#000000"
     borderopacity="0.25"
     inkscape:showpageshadow="2"
     inkscape:pageopacity="0"
     inkscape:pagecheckerboard="0"
     inkscape:deskcolor="#d1d1d1"
     inkscape:document-units="mm"
     showgrid="false"
     inkscape:zoom="0.35355339"
     inkscape:cx="-671.75144"
     inkscape:cy="661.85195"
     inkscape:window-width="1920"
     inkscape:window-height="1012"
     inkscape:window-x="0"
     inkscape:window-y="0"
     inkscape:window-maximized="1"
     inkscape:current-layer="layer1" /><defs
     id="defs2"><inkscape:path-effect
       effect="mirror_symmetry"
       start_point="337.06288,161.32024"
       end_point="337.06288,331.13644"
       center_point="337.06288,246.22834"
       id="path-effect1675"
       is_visible="true"
       lpeversion="1.2"
       lpesatellites=""
       mode="vertical"
       discard_orig_path="false"
       fuse_paths="true"
       oposite_fuse="false"
       split_items="false"
       split_open="false"
       link_styles="false" /></defs><g
     inkscape:label="Layer 1"
     inkscape:groupmode="layer"
     id="layer1"
     transform="translate(-186.30524,-252.25468)"><path
       style="display:inline;fill:#ffffff;stroke-width:0.264583"
       d="m 260.89369,483.90768 c -2.60257,-0.53774 -5.6396,-2.18417 -9.1082,-4.93772 l -2.35403,-1.86874 h -1.75894 c -1.84465,0 -1.74251,-0.038 -5.83613,2.17137 -7.58629,4.09442 -14.89959,3.22506 -20.94697,-2.49003 -4.69164,-4.43385 -5.52786,-4.73559 -9.78342,-3.53018 -1.56253,0.44259 -3.71108,0.9726 -4.77456,1.17779 -1.06347,0.20519 -2.58844,0.50923 -3.3888,0.67565 -2.90398,0.60382 -9.42388,0.23185 -11.1125,-0.63398 -6.70879,-3.43988 -7.05161,-5.47508 -2.4134,-14.3273 0.83872,-1.60073 1.68453,-3.32714 1.87957,-3.83646 0.19504,-0.50933 0.91978,-2.2969 1.61053,-3.97239 1.0987,-2.665 1.30895,-3.49301 1.67959,-6.61458 1.11218,-9.36688 3.87934,-24.396 6.7951,-36.90574 0.57661,-2.47385 1.22808,-5.62901 1.44772,-7.01146 1.55316,-9.77585 4.80553,-24.5931 9.64056,-43.92083 1.29232,-5.16599 2.54303,-10.5238 2.77935,-11.90625 3.5045,-20.50134 7.79523,-41.7568 9.34677,-46.30208 1.23706,-3.62402 3.73829,-10.68432 4.15205,-11.72009 0.51314,-1.28456 7.84695,-3.45008 14.7116,-4.34403 l 0.96173,-0.12524 -0.47232,1.98249 c -0.40977,1.71991 -1.15945,6.5525 -1.74859,11.27169 l -0.17858,1.43045 1.29635,-0.18651 c 1.25175,-0.18009 7.47244,-0.91388 12.93802,-1.52616 3.41571,-0.38265 14.84053,-0.38265 18.25625,0 5.46558,0.61228 11.68627,1.34607 12.93801,1.52616 l 1.29635,0.18651 -0.17858,-1.43045 c -0.58914,-4.71919 -1.33882,-9.55178 -1.74859,-11.27169 l -0.47232,-1.98249 0.96173,0.12524 c 6.86465,0.89395 14.19846,3.05947 14.7116,4.34403 0.41376,1.03577 2.91499,8.09607 4.15205,11.72009 1.55154,4.54528 5.84227,25.80074 9.34677,46.30208 0.23632,1.38245 1.48702,6.74026 2.77935,11.90625 4.83503,19.32773 8.08739,34.14498 9.64056,43.92083 0.21964,1.38245 0.87111,4.53761 1.44771,7.01146 2.91576,12.50974 5.68293,27.53886 6.79511,36.90574 0.37063,3.12157 0.58088,3.94958 1.67958,6.61458 0.69075,1.67549 1.4155,3.46306 1.61054,3.97239 0.19504,0.50932 1.04084,2.23573 1.87956,3.83646 4.63822,8.85222 4.2954,10.88742 -2.41339,14.3273 -1.68862,0.86583 -8.20852,1.2378 -11.1125,0.63398 -0.80037,-0.16642 -2.32533,-0.47046 -3.3888,-0.67565 -1.06348,-0.20519 -3.21203,-0.7352 -4.77456,-1.17779 -4.25556,-1.20541 -5.09178,-0.90367 -9.78342,3.53018 -6.04738,5.71509 -13.36068,6.58445 -20.94697,2.49003 -4.09362,-2.20938 -3.99148,-2.17137 -5.83613,-2.17137 h -1.75894 l -2.35403,1.86874 c -5.63709,4.475 -11.96681,6.20277 -18.08944,4.93772 z m -0.62031,-17.33046 c -0.0845,-0.21107 -0.14715,-0.14838 -0.15985,0.15985 -0.0115,0.27891 0.0511,0.43518 0.13897,0.34727 0.0879,-0.0879 0.0973,-0.31613 0.0209,-0.50712 z m 10.31875,0 c -0.0845,-0.21107 -0.14715,-0.14838 -0.15985,0.15985 -0.0115,0.27891 0.0511,0.43518 0.13897,0.34727 0.0879,-0.0879 0.0973,-0.31613 0.0209,-0.50712 z"
       id="path2009" /></g></svg>
