<?xml version="1.0" encoding="UTF-8" standalone="no"?>
<!-- Created with Inkscape (http://www.inkscape.org/) -->

<svg
   width="111.00089mm"
   height="132.69991mm"
   viewBox="0 0 111.00089 132.6999"
   version="1.1"
   id="svg2053"
   inkscape:export-filename="hair_front.svg"
   inkscape:export-xdpi="96"
   inkscape:export-ydpi="96"
   inkscape:version="1.2.2 (b0a8486541, 2022-12-01)"
   sodipodi:docname="forearm.svg"
   xmlns:inkscape="http://www.inkscape.org/namespaces/inkscape"
   xmlns:sodipodi="http://sodipodi.sourceforge.net/DTD/sodipodi-0.dtd"
   xmlns="http://www.w3.org/2000/svg"
   xmlns:svg="http://www.w3.org/2000/svg">
  <sodipodi:namedview
     id="namedview2055"
     pagecolor="#5a5a5a"
     bordercolor="#000000"
     borderopacity="0.25"
     inkscape:showpageshadow="2"
     inkscape:pageopacity="0"
     inkscape:pagecheckerboard="0"
     inkscape:deskcolor="#d1d1d1"
     inkscape:document-units="mm"
     showgrid="false"
     inkscape:zoom="0.25827055"
     inkscape:cx="211.01902"
     inkscape:cy="251.67406"
     inkscape:window-width="1920"
     inkscape:window-height="1012"
     inkscape:window-x="0"
     inkscape:window-y="0"
     inkscape:window-maximized="1"
     inkscape:current-layer="layer1" />
  <defs
     id="defs2050" />
  <g
     inkscape:label="Layer 1"
     inkscape:groupmode="layer"
     id="layer1"
     transform="translate(-36.331486,1.922707)">
    <path
       style="display:inline;fill:#ffffff;stroke-width:0.264583"
       d="m 55.92746,129.86948 c -0.77651,-0.13807 -2.32432,-0.55608 -3.43958,-0.92892 -1.11526,-0.37283 -2.77248,-1.09287 -3.68271,-1.60008 -0.91022,-0.5072 -2.51757,-1.61831 -3.57187,-2.46911 -1.05431,-0.85081 -2.57176,-2.33963 -3.37213,-3.3085 -0.80036,-0.96887 -1.90336,-2.55856 -2.4511,-3.53263 -0.54774,-0.97407 -1.3481,-2.90214 -1.77857,-4.28459 -0.43048,-1.38244 -0.96879,-5.49278 -1.0615,-6.51142 0.0661,-6.53128 1.47893,-11.47881 6.82817,-18.22712 1.96781,-2.47385 4.53981,-5.62901 5.71555,-7.01145 1.17574,-1.38245 4.09718,-4.77573 6.49208,-7.54063 2.39491,-2.7649 6.21596,-7.11745 8.49122,-9.67235 2.27528,-2.5549 5.01345,-5.76959 6.08485,-7.14375 1.0714,-1.37417 2.87134,-3.63733 3.99988,-5.02926 1.12854,-1.39193 2.8758,-3.26303 3.88281,-4.15801 1.007,-0.89497 2.64937,-2.03734 3.6497,-2.5386 1.00034,-0.50126 2.53316,-1.15038 3.40629,-1.44248 0.87312,-0.29211 2.58398,-0.6758 3.80191,-0.85265 1.26588,-0.18382 3.0072,-0.24787 4.06525,-0.14954 1.01796,0.0946 2.64085,0.36407 3.60642,0.5988 0.96558,0.23473 2.70809,0.86805 3.87225,1.40739 1.16417,0.53934 2.92716,1.64806 3.91776,2.46382 0.9906,0.81576 2.4581,2.28474 3.26112,3.2644 0.80301,0.97966 1.8761,2.60744 2.38465,3.61728 0.50855,1.00985 1.17162,2.74521 1.47349,3.85635 0.41839,1.54006 0.54885,2.80639 0.54885,5.32756 0,2.51979 -0.13051,3.78765 -0.54811,5.32467 -0.30146,1.10955 -1.08189,3.07408 -1.73428,4.36562 -0.65239,1.29154 -1.86983,3.41981 -2.70541,4.7295 -0.83558,1.30969 -2.55437,4.10766 -3.81953,6.21771 -1.26516,2.11005 -3.54885,5.74146 -5.07486,8.06979 -1.526,2.32833 -3.41145,5.3049 -4.18987,6.61458 -0.77843,1.30969 -2.83957,4.58391 -4.58031,7.27604 -1.74075,2.69214 -3.88098,5.96636 -4.75607,7.27605 -0.87509,1.30968 -2.49503,3.34189 -3.59987,4.51601 -1.10484,1.17412 -2.76699,2.99658 -3.69365,4.04991 -0.92666,1.05334 -2.53401,2.5145 -3.57188,3.24703 -1.03786,0.73253 -2.56609,1.67719 -3.39605,2.09924 -0.82997,0.42204 -2.55638,1.07959 -3.83646,1.46122 -1.87152,0.55794 -3.00121,0.71103 -5.76702,0.7815 -1.89177,0.0482 -4.07491,-0.0253 -4.85142,-0.16338 z"
       id="path501"
       sodipodi:nodetypes="sssssssccssssssssssssssssssssssssssssssss"
       inkscape:label="forearm"
       inkscape:transform-center-x="17.520804"
       inkscape:transform-center-y="22.307826" />
  </g>
</svg>
