<?xml version="1.0" encoding="UTF-8" standalone="no"?>
<!-- Created with Inkscape (http://www.inkscape.org/) -->

<svg
   width="302.68332mm"
   height="516.05127mm"
   viewBox="0 0 302.68332 516.05126"
   version="1.1"
   id="svg2053"
   inkscape:export-filename="bitmap.svg"
   inkscape:export-xdpi="96"
   inkscape:export-ydpi="96"
   inkscape:version="1.2.2 (b0a8486541, 2022-12-01)"
   sodipodi:docname="arm.svg"
   xmlns:inkscape="http://www.inkscape.org/namespaces/inkscape"
   xmlns:sodipodi="http://sodipodi.sourceforge.net/DTD/sodipodi-0.dtd"
   xmlns="http://www.w3.org/2000/svg"
   xmlns:svg="http://www.w3.org/2000/svg">
  <sodipodi:namedview
     id="namedview2055"
     pagecolor="#5a5a5a"
     bordercolor="#000000"
     borderopacity="0.25"
     inkscape:showpageshadow="2"
     inkscape:pageopacity="0"
     inkscape:pagecheckerboard="0"
     inkscape:deskcolor="#d1d1d1"
     inkscape:document-units="mm"
     showgrid="false"
     inkscape:zoom="0.51654111"
     inkscape:cx="169.39601"
     inkscape:cy="501.41218"
     inkscape:window-width="1920"
     inkscape:window-height="1012"
     inkscape:window-x="0"
     inkscape:window-y="0"
     inkscape:window-maximized="1"
     inkscape:current-layer="layer1" />
  <defs
     id="defs2050" />
  <g
     inkscape:label="Layer 1"
     inkscape:groupmode="layer"
     id="layer1"
     transform="translate(84.884399,114.85019)">
    <path
       style="display:inline;fill:#ffffff;stroke-width:0.264583"
       d="m 170.30621,41.63888 c -4.96554,-0.60596 -8.45414,-3.32389 -17.57729,-13.6943 -1.15217,-1.30969 -3.25481,-3.57188 -4.67252,-5.02708 -8.01373,-8.22568 -9.10657,-10.36552 -8.49005,-16.62405 0.51477,-5.22569 0.43375,-5.69642 -0.69511,-4.03851 -0.60078,0.88235 -3.09704,3.28885 -4.90104,4.72482 -4.21332,3.35375 -8.77968,2.68393 -20.44594,-2.99912 -5.97586,-2.91106 -6.1202,-3.17923 -7.10987,-13.21002 -1.10169,-11.166091 -2.22531,-17.18116 -2.2488,-12.038541 C 104.07599,-1.66004 98.978513,3.90801 82.861423,2.00279 75.305663,1.10962 58.261153,0.94233 52.434343,1.70415 c -1.74625,0.22831 -4.63151,0.55723 -6.41168,0.73094 -11.65955,1.1377 -16.55119,-4.85927 -17.16242,-21.040498 -0.16606,-4.396169 -0.32085,-5.281597 -0.67359,-3.853138 -0.47891,1.939369 -1.30415,8.018086 -1.81396,13.361456 -0.93564,9.8067 -1.07487,10.07625 -6.64229,12.85904 C 8.696904,9.27688 3.090306,10.30839 -0.191252,7.42714 -0.681901,6.99634 -1.483895,6.4744 -1.973459,6.26727 -2.897011,5.87652 -4.388459,4.42971 -5.896825,2.46131 -7.189534,0.77434 -7.412446,3.31727 -6.442282,8.6838 c 0.185261,1.02479 0.15109,1.75218 -0.133676,2.84547 -0.870476,3.34198 -1.441738,4.14122 -6.724086,9.40755 -1.972548,1.96656 -5.115722,5.30031 -6.984828,7.40833 -18.619118,20.99904 -25.864817,16.64886 -31.295304,-18.78911 -3.844727,-25.089707 12.735724,-64.971898 34.164514,-82.178448 20.485315,-16.448973 38.693625,-24.933562 63.500005,-29.589312 2.03729,-0.38237 4.12526,-0.80806 4.63994,-0.94599 3.15765,-0.8462 27.68006,-0.84789 31.25399,-0.002 0.63125,0.14938 2.75508,0.57291 4.71961,0.94117 32.112557,6.019689 61.491737,22.78825 77.323767,44.133583 14.01626,18.897248 23.40548,51.135177 20.35532,69.890097 -3.06983,18.87583 -8.55548,30.50693 -14.07076,29.83388 z"
       id="path844"
       inkscape:label="hair_front" />
  </g>
</svg>
