<?xml version="1.0" encoding="UTF-8" standalone="no"?>
<!-- Created with Inkscape (http://www.inkscape.org/) -->

<svg
   width="65.123268mm"
   height="86.545654mm"
   viewBox="0 0 65.123267 86.545651"
   version="1.1"
   id="svg2053"
   inkscape:export-filename="hair_front.svg"
   inkscape:export-xdpi="96"
   inkscape:export-ydpi="96"
   inkscape:version="1.2.2 (b0a8486541, 2022-12-01)"
   sodipodi:docname="hand.svg"
   xmlns:inkscape="http://www.inkscape.org/namespaces/inkscape"
   xmlns:sodipodi="http://sodipodi.sourceforge.net/DTD/sodipodi-0.dtd"
   xmlns="http://www.w3.org/2000/svg"
   xmlns:svg="http://www.w3.org/2000/svg">
  <sodipodi:namedview
     id="namedview2055"
     pagecolor="#5a5a5a"
     bordercolor="#000000"
     borderopacity="0.25"
     inkscape:showpageshadow="2"
     inkscape:pageopacity="0"
     inkscape:pagecheckerboard="0"
     inkscape:deskcolor="#d1d1d1"
     inkscape:document-units="mm"
     showgrid="false"
     inkscape:zoom="0.73049944"
     inkscape:cx="96.509314"
     inkscape:cy="106.77626"
     inkscape:window-width="1920"
     inkscape:window-height="1012"
     inkscape:window-x="0"
     inkscape:window-y="0"
     inkscape:window-maximized="1"
     inkscape:current-layer="layer1" />
  <defs
     id="defs2050" />
  <g
     inkscape:label="Layer 1"
     inkscape:groupmode="layer"
     id="layer1"
     transform="translate(-59.601965,-21.393229)">
    <path
       style="display:inline;fill:#ffffff;stroke-width:0.264583"
       d="m 73.17681,105.25157 c -0.8599,-1.25833 -1.19572,-2.89941 -1.78686,-4.09611 -0.5138,-1.03106 -1.27635,-1.86832 -2.97657,-3.2682 -1.25719,-1.03512 -2.80312,-2.36949 -3.43541,-2.96526 -0.63228,-0.59578 -1.59685,-1.73808 -2.14348,-2.53844 -0.54663,-0.80037 -1.50091,-2.5863 -2.12062,-3.96875 -1.04909,-2.34031 -1.12561,-2.66854 -1.11033,-4.7625 0.009,-1.23693 0.19636,-3.43958 0.41629,-4.89479 0.21993,-1.45521 0.70426,-3.81735 1.07629,-5.24921 0.37203,-1.43185 1.09386,-3.68425 1.60406,-5.00533 0.5102,-1.32108 2.01048,-4.49226 3.33394,-7.04707 1.32347,-2.5548 2.99156,-5.48162 3.70686,-6.50404 0.71531,-1.02241 1.8594,-2.63284 2.54244,-3.57873 0.68303,-0.94588 2.03737,-2.50729 3.00964,-3.4698 0.97227,-0.9625 2.61248,-2.31157 3.64491,-2.99793 1.03243,-0.68636 2.86746,-1.64725 4.07785,-2.13532 1.21038,-0.48806 3.2635,-1.08825 4.56248,-1.33375 1.76061,-0.33274 3.13627,-0.40836 5.40449,-0.29707 1.8583,0.0912 3.79726,0.36374 4.98114,0.70019 1.06614,0.303 2.68982,0.8916 3.60817,1.308 0.91836,0.41641 2.42732,1.27086 3.35324,1.8988 0.92592,0.62793 2.26432,1.68329 2.97423,2.34523 0.70991,0.66194 1.81882,1.88894 2.46424,2.72667 0.64542,0.83773 1.69134,2.5046 2.32428,3.70417 0.63293,1.19956 1.40831,3.01446 1.72305,4.0331 0.31475,1.01865 0.70446,2.74506 0.86602,3.83646 0.16157,1.09141 0.2878,4.24656 0.28051,7.01146 -0.007,2.7649 -0.15813,6.27724 -0.33521,7.80521 -0.17709,1.52797 -0.72486,4.35268 -1.21728,6.27715 -0.49241,1.92446 -1.44193,4.78196 -2.11003,6.34999 -0.66811,1.56804 -1.31151,3.08911 -1.42977,3.38015 -0.11826,0.29104 -0.70355,1.14644 -1.30063,1.90088 -0.94319,1.19177 -1.24411,1.39549 -2.29389,1.55291 -0.74434,0.11163 -1.68696,0.0482 -2.45495,-0.16507 -0.90925,-0.25255 -1.64494,-0.74446 -2.71817,-1.81749 -0.9571,-0.95693 -1.69092,-2.00305 -2.0992,-2.99258 -0.36723,-0.89003 -0.79122,-1.52136 -1.02173,-1.52136 -0.21671,0 -0.85157,0.50602 -1.4108,1.12448 -0.55923,0.61846 -1.79593,2.01745 -2.74824,3.10885 -0.9523,1.09141 -2.75444,3.45292 -4.00475,5.24781 -2.17979,3.24173 -4.75422,5.63969 -7.96905,7.75726 -3.06276,2.07435 -7.475,1.47439 -9.26716,-1.45997 z"
       id="path600"
       inkscape:label="hand"
       sodipodi:nodetypes="ccsssssssssssssssssssssssscssssssssssssccc"
       inkscape:transform-center-x="4.5836291"
       inkscape:transform-center-y="9.8490269" />
  </g>
</svg>
