<?xml version="1.0" encoding="UTF-8" standalone="no"?>
<!-- Created with Inkscape (http://www.inkscape.org/) -->

<svg
   width="808.18799"
   height="1762"
   viewBox="0 0 213.83307 466.19583"
   version="1.1"
   id="svg5"
   xml:space="preserve"
   inkscape:version="1.2.2 (b0a8486541, 2022-12-01)"
   sodipodi:docname="head.svg"
   xmlns:inkscape="http://www.inkscape.org/namespaces/inkscape"
   xmlns:sodipodi="http://sodipodi.sourceforge.net/DTD/sodipodi-0.dtd"
   xmlns="http://www.w3.org/2000/svg"
   xmlns:svg="http://www.w3.org/2000/svg"><sodipodi:namedview
     id="namedview7"
     pagecolor="#2c2c2c"
     bordercolor="#000000"
     borderopacity="0.25"
     inkscape:showpageshadow="2"
     inkscape:pageopacity="0"
     inkscape:pagecheckerboard="0"
     inkscape:deskcolor="#d1d1d1"
     inkscape:document-units="px"
     showgrid="false"
     inkscape:zoom="0.35355339"
     inkscape:cx="-31.112698"
     inkscape:cy="995.60635"
     inkscape:window-width="1920"
     inkscape:window-height="1012"
     inkscape:window-x="0"
     inkscape:window-y="0"
     inkscape:window-maximized="1"
     inkscape:current-layer="layer1"
     showguides="true"
     shape-rendering="crispEdges" /><defs
     id="defs2"><inkscape:path-effect
       effect="mirror_symmetry"
       start_point="264.18598,163.17178"
       end_point="264.18598,629.36762"
       center_point="264.18598,396.2697"
       id="path-effect1346"
       is_visible="true"
       lpeversion="1.2"
       lpesatellites=""
       mode="vertical"
       discard_orig_path="false"
       fuse_paths="true"
       oposite_fuse="false"
       split_items="false"
       split_open="false"
       link_styles="false" /></defs><g
     inkscape:label="Layer 1"
     inkscape:groupmode="layer"
     id="layer1"
     transform="translate(-155.08288,-166.00786)"><path
       style="display:inline;fill:#ffffff;stroke-width:0.264583"
       d="m 254.24134,398.85059 c -7.73767,-0.45886 -13.25635,-1.16503 -18.53746,-2.37206 -2.25557,-0.51552 -6.00604,-1.28948 -8.33437,-1.7199 -30.75007,-5.68456 -47.96267,-18.93221 -55.01276,-42.3405 -1.76071,-5.84601 -5.17137,-19.41119 -7.14833,-28.43091 -0.95687,-4.36562 -2.50601,-11.15219 -3.44254,-15.08125 -9.59353,-40.2481 -8.91983,-63.79237 2.41844,-84.51905 13.90902,-25.42609 27.36467,-37.37537 55.54705,-49.32851 27.48415,-11.657 55.06902,-12.02603 81.8501,-1.09499 28.88525,11.78988 43.02849,23.64819 56.49211,47.36547 12.89022,22.7072 14.11406,45.48148 4.59243,85.46042 -0.72782,3.05593 -2.33174,10.08062 -3.56428,15.61041 -6.12832,27.49487 -9.54193,38.3532 -14.2652,45.37604 -6.85554,10.19323 -15.29685,16.40481 -29.22848,21.50792 -9.214,3.37506 -12.36259,4.26599 -20.24062,5.72737 -2.32834,0.4319 -5.06677,0.97872 -6.08542,1.21514 -6.18771,1.43617 -10.88086,2.08963 -17.85937,2.48668 -8.57283,0.48776 -10.95646,0.50687 -17.1813,0.13772 z"
       id="path1830"
       inkscape:label="head"
       inkscape:transform-center-y="-116.53713" /></g></svg>
