<?xml version="1.0" encoding="UTF-8" standalone="no"?>
<!-- Created with Inkscape (http://www.inkscape.org/) -->

<svg
   width="326"
   height="326"
   viewBox="0 0 86.254167 86.254165"
   version="1.1"
   id="svg5"
   xml:space="preserve"
   sodipodi:docname="neck.svg"
   inkscape:version="1.2.2 (b0a8486541, 2022-12-01)"
   xmlns:inkscape="http://www.inkscape.org/namespaces/inkscape"
   xmlns:sodipodi="http://sodipodi.sourceforge.net/DTD/sodipodi-0.dtd"
   xmlns="http://www.w3.org/2000/svg"
   xmlns:svg="http://www.w3.org/2000/svg"><sodipodi:namedview
     id="namedview2288"
     pagecolor="#ffffff"
     bordercolor="#000000"
     borderopacity="0.25"
     inkscape:showpageshadow="2"
     inkscape:pageopacity="0.0"
     inkscape:pagecheckerboard="0"
     inkscape:deskcolor="#d1d1d1"
     showgrid="false"
     inkscape:zoom="0.88930608"
     inkscape:cx="78.150821"
     inkscape:cy="159.67506"
     inkscape:window-width="1920"
     inkscape:window-height="1012"
     inkscape:window-x="0"
     inkscape:window-y="0"
     inkscape:window-maximized="1"
     inkscape:current-layer="svg5" /><defs
     id="defs2" /><g
     id="layer1"
     transform="translate(-219.1158,-288.42868)"><path
       style="display:inline;fill:#ffffff;stroke-width:0.287867"
       d="m 246.32422,291.39258 c -1.98425,-0.15353 -1.62432,1.86517 -2.03711,15.6289 -0.15769,5.25798 -0.88362,12.24796 0.18555,17.11133 1.02493,2.46333 3.02013,3.5325 14.54101,4.46289 0.90479,0.12425 3.03266,0.14833 5.41602,0.10157 2.38335,0.0468 4.51123,0.0227 5.41601,-0.10157 11.52088,-0.93039 13.51609,-1.99956 14.54102,-4.46289 1.06917,-4.86337 0.34324,-11.85335 0.18555,-17.11133 -0.55039,-18.35164 0.27262,-15.82434 -4.91797,-15.10546 -3.15765,0.43731 -9.22671,0.71034 -15.22461,0.78125 -5.99791,-0.0709 -12.06696,-0.34394 -15.22461,-0.78125 -1.29765,-0.17972 -2.21944,-0.47227 -2.88086,-0.52344 z"
       id="path1788"
       class="UnoptimicedTransforms"
       transform="translate(-2.186568,2.8360752)" /></g></svg>
