<?xml version="1.0" encoding="UTF-8" standalone="no"?>
<!-- Created with Inkscape (http://www.inkscape.org/) -->

<svg
   width="107.80376mm"
   height="59.302612mm"
   viewBox="0 0 107.80376 59.302613"
   version="1.1"
   id="svg5792"
   inkscape:version="1.2.2 (b0a8486541, 2022-12-01)"
   sodipodi:docname="eye_lash_1.svg"
   xmlns:inkscape="http://www.inkscape.org/namespaces/inkscape"
   xmlns:sodipodi="http://sodipodi.sourceforge.net/DTD/sodipodi-0.dtd"
   xmlns="http://www.w3.org/2000/svg"
   xmlns:svg="http://www.w3.org/2000/svg">
  <sodipodi:namedview
     id="namedview5794"
     pagecolor="#ffffff"
     bordercolor="#000000"
     borderopacity="0.25"
     inkscape:showpageshadow="2"
     inkscape:pageopacity="0.0"
     inkscape:pagecheckerboard="0"
     inkscape:deskcolor="#d1d1d1"
     inkscape:document-units="mm"
     showgrid="false"
     inkscape:zoom="0.73"
     inkscape:cx="39.041096"
     inkscape:cy="280.82192"
     inkscape:window-width="1920"
     inkscape:window-height="1012"
     inkscape:window-x="0"
     inkscape:window-y="0"
     inkscape:window-maximized="1"
     inkscape:current-layer="layer1" />
  <defs
     id="defs5789" />
  <g
     inkscape:label="Layer 1"
     inkscape:groupmode="layer"
     id="layer1"
     transform="translate(-76.58078,-74.192223)">
    <path
       style="display:inline;fill:#ffffff;fill-opacity:1;stroke-width:2.64583"
       d="m 160.11316,108.31594 c 0.19454,-6.17234 -0.46623,-10.414251 -2.16502,-14.702121 -6.21479,-11.18643 -15.89198,-17.88355 -27.62081,-19.15231 -17.42779,-1.82971 -27.20554,6.00181 -41.727353,13.28306 -2.490504,1.24874 -5.307019,2.13696 -8.077512,2.5678 -2.496339,0.38821 -2.861607,0.53184 -3.941683,0.13515 3.416116,4.54094 13.496808,7.2894 18.659842,6.93113 7.393896,-0.63381 13.945796,-4.30073 21.086986,-5.84995 6.25124,-1.35615 12.71489,-2.91074 19.10639,-1.96929 4.3571,0.64179 10.6991,2.27401 14.09684,4.88462 5.71991,4.39481 8.17285,6.788851 10.58232,13.871911 z"
       id="path5446"
       sodipodi:nodetypes="cccssccsssc"
       inkscape:transform-center-x="12.11923"
       inkscape:transform-center-y="-12.589448" />
  </g>
</svg>
