<?xml version="1.0" encoding="UTF-8" standalone="no"?>
<!-- Created with Inkscape (http://www.inkscape.org/) -->

<svg
   width="70.797363mm"
   height="46.714249mm"
   viewBox="0 0 70.797363 46.714249"
   version="1.1"
   id="svg5792"
   inkscape:version="1.2.2 (b0a8486541, 2022-12-01)"
   sodipodi:docname="eye_iris_1.svg"
   xmlns:inkscape="http://www.inkscape.org/namespaces/inkscape"
   xmlns:sodipodi="http://sodipodi.sourceforge.net/DTD/sodipodi-0.dtd"
   xmlns="http://www.w3.org/2000/svg"
   xmlns:svg="http://www.w3.org/2000/svg">
  <sodipodi:namedview
     id="namedview5794"
     pagecolor="#ffffff"
     bordercolor="#000000"
     borderopacity="0.25"
     inkscape:showpageshadow="2"
     inkscape:pageopacity="0.0"
     inkscape:pagecheckerboard="0"
     inkscape:deskcolor="#d1d1d1"
     inkscape:document-units="mm"
     showgrid="false"
     inkscape:zoom="0.73049944"
     inkscape:cx="-30.800845"
     inkscape:cy="257.35817"
     inkscape:window-width="1920"
     inkscape:window-height="1012"
     inkscape:window-x="0"
     inkscape:window-y="0"
     inkscape:window-maximized="1"
     inkscape:current-layer="layer1" />
  <defs
     id="defs5789" />
  <g
     inkscape:label="Layer 1"
     inkscape:groupmode="layer"
     id="layer1"
     transform="translate(-95.083984,-80.486404)">
    <path
       id="path5769"
       style="display:inline;fill:#ffffff;fill-opacity:1;stroke-width:2.64583"
       d="m 126.41769,81.319658 c -4.67989,0.0123 -9.42995,0.49264 -13.9702,1.18959 -2.47948,13.626 5.47053,34.617512 15.96853,43.760122 7.80592,0.61444 18.57364,0.51283 25.14368,-1.16893 0.94481,-1.09042 1.76501,-2.31588 2.42983,-3.66644 2.08322,-4.23199 2.80368,-12.64768 2.38952,-21.39766 -0.40582,-1.219662 -1.04778,-2.507632 -2.03295,-4.028182 -1.734,-2.67627 -4.14575,-4.89495 -6.52415,-6.98872 -4.76384,-4.1937 -9.98644,-6.57589 -16.31012,-7.31738 -2.32079,-0.27212 -4.69808,-0.38824 -7.09414,-0.38189 z"
       inkscape:transform-center-x="-4.7584644"
       inkscape:transform-center-y="0.12348797" />
  </g>
</svg>
