<?xml version="1.0" encoding="UTF-8" standalone="no"?>
<!-- Created with Inkscape (http://www.inkscape.org/) -->

<svg
   width="99.510361mm"
   height="96.394768mm"
   viewBox="0 0 99.510361 96.394768"
   version="1.1"
   id="svg425"
   inkscape:version="1.2.2 (b0a8486541, 2022-12-01)"
   sodipodi:docname="eye_lash.svg"
   xmlns:inkscape="http://www.inkscape.org/namespaces/inkscape"
   xmlns:sodipodi="http://sodipodi.sourceforge.net/DTD/sodipodi-0.dtd"
   xmlns="http://www.w3.org/2000/svg"
   xmlns:svg="http://www.w3.org/2000/svg">
  <sodipodi:namedview
     id="namedview427"
     pagecolor="#ffffff"
     bordercolor="#000000"
     borderopacity="0.25"
     inkscape:showpageshadow="2"
     inkscape:pageopacity="0.0"
     inkscape:pagecheckerboard="0"
     inkscape:deskcolor="#d1d1d1"
     inkscape:document-units="mm"
     showgrid="false"
     inkscape:zoom="1.4609989"
     inkscape:cx="184.46284"
     inkscape:cy="197.12541"
     inkscape:window-width="1920"
     inkscape:window-height="1012"
     inkscape:window-x="0"
     inkscape:window-y="0"
     inkscape:window-maximized="1"
     inkscape:current-layer="layer1" />
  <defs
     id="defs422" />
  <g
     inkscape:label="Layer 1"
     inkscape:groupmode="layer"
     id="layer1"
     transform="translate(-28.227423,-196.97102)">
    <path
       style="display:inline;fill:#ffffff;stroke-width:0.264583"
       d="m 40.928535,245.83205 c -11.65232,-1.91985 -16.9883,-13.71526 -7.76416,-17.16301 1.42547,-0.53281 1.6396,-0.72562 2.73708,-2.46464 4.58527,-7.26562 17.23157,-15.92867 29.63333,-20.29962 l 2.77812,-0.97914 1.05834,-1.90481 c 4.49639,-8.09267 13.677926,-8.0891 18.910916,0.007 0.903,1.39712 1.36775,1.81898 2.94936,2.67718 4.81304,2.61161 10.417169,8.43143 13.474019,13.99259 4.58116,8.33425 3.78927,17.89664 -1.47247,12.76933 -2.71498,-2.64562 -5.865599,-4.89476 -10.049329,-6.52513 -14.389126,-5.60734 -32.451286,1.453 -41.547336,17.87046 -1.06196,1.91672 -1.07119,1.92486 -2.38125,2.09944 -1.86676,0.24877 -6.60766,0.20321 -8.32662,-0.08 z"
       id="path848"
       sodipodi:nodetypes="cssscsssssssscc"
       inkscape:label="eye_lash" />
  </g>
</svg>
