<?xml version="1.0" encoding="UTF-8" standalone="no"?>
<!-- Created with Inkscape (http://www.inkscape.org/) -->

<svg
   width="118.88269"
   height="36.433197"
   viewBox="0 0 31.454377 9.6396165"
   version="1.1"
   id="svg5"
   xml:space="preserve"
   inkscape:version="1.2.2 (b0a8486541, 2022-12-01)"
   sodipodi:docname="mouth_2.svg"
   inkscape:export-filename="forearm.svg"
   inkscape:export-xdpi="96"
   inkscape:export-ydpi="96"
   xmlns:inkscape="http://www.inkscape.org/namespaces/inkscape"
   xmlns:sodipodi="http://sodipodi.sourceforge.net/DTD/sodipodi-0.dtd"
   xmlns="http://www.w3.org/2000/svg"
   xmlns:svg="http://www.w3.org/2000/svg"><sodipodi:namedview
     id="namedview7"
     pagecolor="#2c2c2c"
     bordercolor="#000000"
     borderopacity="0.25"
     inkscape:showpageshadow="2"
     inkscape:pageopacity="0"
     inkscape:pagecheckerboard="0"
     inkscape:deskcolor="#d1d1d1"
     inkscape:document-units="px"
     showgrid="false"
     inkscape:zoom="1.4142136"
     inkscape:cx="-28.637824"
     inkscape:cy="39.597978"
     inkscape:window-width="1920"
     inkscape:window-height="1012"
     inkscape:window-x="0"
     inkscape:window-y="0"
     inkscape:window-maximized="1"
     inkscape:current-layer="layer6"
     showguides="true"
     inkscape:lockguides="true"><sodipodi:guide
       position="-37.854884,-331.07842"
       orientation="0,1"
       id="guide1344"
       inkscape:locked="true"
       inkscape:label=""
       inkscape:color="rgb(0,134,229)" /></sodipodi:namedview><defs
     id="defs2" /><g
     inkscape:groupmode="layer"
     id="layer6"
     inkscape:label="head"
     style="display:inline"
     transform="translate(-135.61447,-227.18074)"><path
       id="path643"
       style="display:inline;fill:#ffffff;stroke-width:2.64583"
       d="m 151.34159,227.18074 c -0.9064,0.34958 -1.7957,1.39019 -2.69751,2.61948 -1.54261,1.70185 -2.85514,3.26376 -5.88233,3.12125 -2.80947,-0.13226 -4.79721,-4.97127 -6.72465,-2.87114 -1.7743,1.93327 2.39445,6.15941 5.88646,6.66368 4.00974,0.57902 6.83845,-1.26924 9.41803,-4.01526 2.57957,2.74602 5.41036,4.59428 9.4201,4.01526 3.49201,-0.50427 7.65869,-4.73041 5.88439,-6.66368 -1.92742,-2.10013 -3.91311,2.73888 -6.72258,2.87114 -3.02719,0.14251 -4.34179,-1.4194 -5.8844,-3.12125 -0.90181,-1.22929 -1.79112,-2.2699 -2.69751,-2.61948 z" /></g></svg>
