<?xml version="1.0" encoding="UTF-8" standalone="no"?>
<!-- Created with Inkscape (http://www.inkscape.org/) -->

<svg
   width="299.46237"
   height="185.65198"
   viewBox="0 0 79.232752 49.120418"
   version="1.1"
   id="svg5"
   xml:space="preserve"
   inkscape:version="1.2.2 (b0a8486541, 2022-12-01)"
   sodipodi:docname="assets.svg"
   inkscape:export-filename="forearm.svg"
   inkscape:export-xdpi="96"
   inkscape:export-ydpi="96"
   xmlns:inkscape="http://www.inkscape.org/namespaces/inkscape"
   xmlns:sodipodi="http://sodipodi.sourceforge.net/DTD/sodipodi-0.dtd"
   xmlns="http://www.w3.org/2000/svg"
   xmlns:svg="http://www.w3.org/2000/svg"><sodipodi:namedview
     id="namedview7"
     pagecolor="#2c2c2c"
     bordercolor="#000000"
     borderopacity="0.25"
     inkscape:showpageshadow="2"
     inkscape:pageopacity="0"
     inkscape:pagecheckerboard="0"
     inkscape:deskcolor="#d1d1d1"
     inkscape:document-units="px"
     showgrid="false"
     inkscape:zoom="0.25000001"
     inkscape:cx="-289.99999"
     inkscape:cy="1180"
     inkscape:window-width="1920"
     inkscape:window-height="1012"
     inkscape:window-x="0"
     inkscape:window-y="0"
     inkscape:window-maximized="1"
     inkscape:current-layer="layer1"
     showguides="true"><sodipodi:guide
       position="58.245494,-373.17432"
       orientation="0,1"
       id="guide1344"
       inkscape:locked="false"
       inkscape:label=""
       inkscape:color="rgb(0,134,229)" /></sodipodi:namedview><defs
     id="defs2" /><g
     inkscape:groupmode="layer"
     id="layer6"
     inkscape:label="head"
     style="display:inline"
     transform="translate(-46.751496,-144.5136)"><path
       style="display:inline;fill:#ffffff;stroke-width:0.264583"
       d="m 59.203724,193.39211 c -11.65232,-1.91985 -16.9883,-13.71526 -7.76416,-17.16301 1.42547,-0.53281 1.6396,-0.72562 2.73708,-2.46464 4.58527,-7.26562 17.23157,-15.92867 29.63333,-20.29962 l 2.77812,-0.97914 1.05834,-1.90481 c 4.49639,-8.09267 13.677926,-8.0891 18.910916,0.007 0.903,1.39712 1.36775,1.81898 2.94936,2.67718 4.81304,2.61161 10.41717,8.43143 13.47402,13.99259 4.58116,8.33425 3.78927,17.89664 -1.47247,12.76933 -2.71498,-2.64562 -5.8656,-4.89476 -10.04933,-6.52513 -14.389126,-5.60734 -32.451286,1.453 -41.547336,17.87046 -1.06196,1.91672 -1.07119,1.92486 -2.38125,2.09944 -1.86676,0.24877 -6.60766,0.20321 -8.32662,-0.08 z"
       id="path848"
       sodipodi:nodetypes="cssscsssssssscc"
       inkscape:label="eye_lash" /></g></svg>
