<?xml version="1.0" encoding="UTF-8" standalone="no"?>
<!-- Created with Inkscape (http://www.inkscape.org/) -->

<svg
   width="78.134781mm"
   height="234.68558mm"
   viewBox="0 0 78.13478 234.68557"
   version="1.1"
   id="svg2053"
   inkscape:export-filename="hair_front.svg"
   inkscape:export-xdpi="96"
   inkscape:export-ydpi="96"
   inkscape:version="1.2.2 (b0a8486541, 2022-12-01)"
   sodipodi:docname="thigh.svg"
   xmlns:inkscape="http://www.inkscape.org/namespaces/inkscape"
   xmlns:sodipodi="http://sodipodi.sourceforge.net/DTD/sodipodi-0.dtd"
   xmlns="http://www.w3.org/2000/svg"
   xmlns:svg="http://www.w3.org/2000/svg">
  <sodipodi:namedview
     id="namedview2055"
     pagecolor="#5a5a5a"
     bordercolor="#000000"
     borderopacity="0.25"
     inkscape:showpageshadow="2"
     inkscape:pageopacity="0"
     inkscape:pagecheckerboard="0"
     inkscape:deskcolor="#d1d1d1"
     inkscape:document-units="mm"
     showgrid="false"
     inkscape:zoom="0.73049944"
     inkscape:cx="147.15959"
     inkscape:cy="443.53217"
     inkscape:window-width="1920"
     inkscape:window-height="1012"
     inkscape:window-x="0"
     inkscape:window-y="0"
     inkscape:window-maximized="1"
     inkscape:current-layer="layer1" />
  <defs
     id="defs2050" />
  <g
     inkscape:label="Layer 1"
     inkscape:groupmode="layer"
     id="layer1"
     transform="translate(-46.069332,67.698334)">
    <path
       style="display:inline;fill:#ffffff;stroke-width:0.264583"
       d="m 71.86416,166.91192 c -1.33726,-0.10288 -3.18273,-0.3755 -4.10105,-0.60584 -0.91831,-0.23033 -2.02685,-0.55096 -2.46341,-0.71251 -0.43657,-0.16155 -1.62719,-0.64657 -2.64584,-1.07782 -1.01864,-0.43126 -2.85694,-1.44803 -4.0851,-2.25951 -1.22816,-0.81147 -3.14033,-2.38272 -4.24927,-3.49166 -1.10894,-1.10894 -2.68019,-3.02111 -3.49167,-4.24927 -0.81147,-1.22816 -1.8342,-3.06646 -2.27273,-4.0851 -0.43852,-1.01865 -0.9777,-2.39203 -1.19817,-3.05195 -0.22047,-0.65993 -0.59055,-2.11829 -0.82242,-3.24081 -0.23668,-1.14585 -0.43869,-3.52057 -0.46061,-5.41472 -0.0215,-1.85557 0.0352,-3.73096 0.126,-4.16752 0.49127,-4.21085 0.7662,-8.42187 1.24357,-12.7 1.49882,-14.47751 2.72372,-26.7098 3.96045,-40.21667 0.83532,-9.85646 2.2642,-17.03925 3.43836,-26.06146 0.15876,-1.23692 0.65289,-4.4466 1.09807,-7.13261 0.44519,-2.686 1.10162,-5.90069 1.45874,-7.14374 0.35711,-1.24306 1.00587,-3.02817 1.44167,-3.96692 0.4358,-0.93874 1.46707,-2.72468 2.29172,-3.96875 0.82464,-1.24406 2.45681,-3.22079 3.62704,-4.39273 1.17023,-1.17194 3.24572,-2.86581 4.61221,-3.76416 1.36649,-0.89835 3.56914,-2.04706 4.89479,-2.55269 1.32565,-0.50562 3.06511,-1.09935 3.86548,-1.31939 0.80036,-0.22004 2.70611,-0.53088 4.23498,-0.69075 1.99935,-0.20908 3.55798,-0.21083 5.55162,-0.006 1.52451,0.15645 3.61353,0.52063 4.64226,0.80929 1.02874,0.28866 2.623,0.81977 3.54281,1.18024 0.91981,0.36047 2.34239,1.03031 3.16129,1.48852 0.8189,0.45821 2.27761,1.41401 3.24156,2.12398 0.96396,0.70998 2.61033,2.19377 3.65859,3.29733 1.04827,1.10355 2.53332,2.97862 3.3001,4.16681 0.76679,1.1882 1.82404,3.17345 2.34944,4.41166 0.52541,1.2382 1.20537,3.26227 1.51103,4.49791 0.33667,1.36099 0.61225,3.55039 0.69908,5.55392 0.12039,2.77808 0.008,4.32338 -0.7013,9.65729 -0.46454,3.4925 -1.00737,7.4811 -1.20629,8.86354 -1.43483,9.32152 -2.09016,19.3764 -3.40501,28.12745 -1.13243,8.13331 -1.73757,16.29721 -2.81516,24.26005 -0.58594,4.29287 -1.42698,10.30552 -1.86898,13.36146 -0.442,3.05594 -1.09454,7.1636 -1.45009,9.12813 -0.35554,1.96453 -0.95568,4.52437 -1.33364,5.68854 -0.37796,1.16416 -1.10317,2.9501 -1.61159,3.96875 -0.50842,1.01864 -1.4455,2.64062 -2.08239,3.60439 -0.63689,0.96377 -1.97276,2.58671 -2.96859,3.60653 -0.99584,1.01983 -2.57434,2.4172 -3.50777,3.10529 -0.93344,0.68807 -2.62256,1.71694 -3.7536,2.28637 -1.13103,0.56942 -2.67885,1.26385 -3.43958,1.54318 -0.76073,0.27933 -2.12197,0.69527 -3.02498,0.9243 -0.90301,0.22904 -2.74848,0.50385 -4.10104,0.61068 -1.35257,0.10684 -3.55333,0.11009 -4.89058,0.007 z"
       id="path2268"
       inkscape:label="thigh"
       sodipodi:nodetypes="sssssssssssccccssssssssscsssssssssccccsssssssssssss"
       inkscape:transform-center-x="5.0687954"
       inkscape:transform-center-y="44.092696" />
  </g>
</svg>
