<?xml version="1.0" encoding="UTF-8" standalone="no"?>
<!-- Created with Inkscape (http://www.inkscape.org/) -->

<svg
   width="416.36844"
   height="641.82501"
   viewBox="0 0 110.16415 169.8162"
   version="1.1"
   id="svg5"
   xml:space="preserve"
   inkscape:version="1.2.2 (b0a8486541, 2022-12-01)"
   sodipodi:docname="torso.svg"
   xmlns:inkscape="http://www.inkscape.org/namespaces/inkscape"
   xmlns:sodipodi="http://sodipodi.sourceforge.net/DTD/sodipodi-0.dtd"
   xmlns="http://www.w3.org/2000/svg"
   xmlns:svg="http://www.w3.org/2000/svg"><sodipodi:namedview
     id="namedview7"
     pagecolor="#2c2c2c"
     bordercolor="#000000"
     borderopacity="0.25"
     inkscape:showpageshadow="2"
     inkscape:pageopacity="0"
     inkscape:pagecheckerboard="0"
     inkscape:deskcolor="#d1d1d1"
     inkscape:document-units="mm"
     showgrid="false"
     inkscape:zoom="0.70710678"
     inkscape:cx="17.67767"
     inkscape:cy="219.2031"
     inkscape:window-width="1920"
     inkscape:window-height="1012"
     inkscape:window-x="0"
     inkscape:window-y="0"
     inkscape:window-maximized="1"
     inkscape:current-layer="layer1" /><defs
     id="defs2"><inkscape:path-effect
       effect="mirror_symmetry"
       start_point="392.14496,161.41563"
       end_point="392.14496,331.04105"
       center_point="392.14496,246.22834"
       id="path-effect1675"
       is_visible="true"
       lpeversion="1.2"
       lpesatellites=""
       mode="vertical"
       discard_orig_path="false"
       fuse_paths="true"
       oposite_fuse="false"
       split_items="false"
       split_open="false"
       link_styles="false" /></defs><g
     inkscape:label="Layer 1"
     inkscape:groupmode="layer"
     id="layer1"
     transform="translate(-210.30262,-283.36032)"><path
       style="display:inline;fill:#ffffff;stroke-width:0.264583"
       d="m 337.0625,161.44531 c -1.51235,0.0274 -3.07978,0.0735 -4.70508,0.13477 -44.55686,1.6802 -49.14683,0.45402 -42.87695,40.59765 1.99098,12.74751 0.45683,29.38719 -1.37109,43.07227 -0.42055,3.14851 -1.13462,7.54576 -1.58594,9.77148 -0.45132,2.22573 -1.23517,7.03163 -1.74219,10.67969 -0.50702,3.64806 -1.34468,9.13351 -1.86133,12.18945 l -0.93945,5.55665 0.2832,5.55468 c 0.48427,9.51405 1.31266,11.74843 7.78125,20.98633 3.54554,5.06344 10.71146,10.58615 19.38867,14.94336 5.30126,2.66199 14.78331,5.04089 23.36329,5.86133 1.87895,0.17967 2.9674,0.26536 4.26562,0.24414 1.29822,0.0212 2.38667,-0.0645 4.26562,-0.24414 8.57998,-0.82044 18.06203,-3.19934 23.36329,-5.86133 8.67721,-4.35721 15.84508,-9.87992 19.39062,-14.94336 6.46859,-9.2379 7.29503,-11.47228 7.7793,-20.98633 l 0.2832,-5.55468 -0.93945,-5.55665 c -0.51665,-3.05593 -1.35431,-8.54139 -1.86133,-12.18945 -0.50702,-3.64806 -1.29087,-8.45396 -1.74219,-10.67969 -0.45132,-2.22572 -1.16343,-6.62297 -1.58398,-9.77148 -1.82793,-13.68508 -3.36208,-30.32476 -1.3711,-43.07227 6.26988,-40.14363 1.67796,-38.91745 -42.8789,-40.59765 -1.6253,-0.0613 -3.19273,-0.10735 -4.70508,-0.13477 z"
       id="path400-7"
       inkscape:label="torso"
       sodipodi:nodetypes="sssscssssssssssscsssss"
       inkscape:path-effect="#path-effect1675"
       inkscape:original-d="m 332.79702,330.79358 c -8.57997,-0.82044 -18.06168,-3.19916 -23.36294,-5.86115 -8.67721,-4.35721 -15.84404,-9.88102 -19.38958,-14.94446 -6.46859,-9.2379 -7.2966,-11.47106 -7.78087,-20.98511 l -0.28282,-5.55625 0.93938,-5.55625 c 0.51665,-3.05594 1.35421,-8.54103 1.86123,-12.18909 0.50702,-3.64806 1.29112,-8.45387 1.74244,-10.6796 0.45132,-2.22572 1.16467,-6.62282 1.58522,-9.77133 1.82793,-13.68508 3.36145,-30.32539 1.37047,-43.0729 -6.26988,-40.14363 -1.6788,-38.91759 42.87806,-40.59779 33.03093,-1.24557 42.24646,3.89337 47.58334,40.24299 1.84006,12.53268 4.24781,29.74262 6.07574,43.4277 0.42055,3.14851 1.1339,7.54561 1.58522,9.77133 0.45132,2.22573 1.23542,7.03154 1.74244,10.6796 0.50702,3.64806 1.34458,9.13315 1.86123,12.18909 l 0.93938,5.55625 -0.28282,5.55625 c -0.48427,9.51405 -1.31228,11.74721 -7.78087,20.98511 -3.54554,5.06344 -10.71236,10.58725 -19.38958,14.94446 -5.11924,2.57059 -14.76183,5.03794 -22.41533,5.73564 -5.14881,0.46937 -5.79402,0.47791 -9.47934,0.12551 z"
       class="UnoptimicedTransforms"
       transform="translate(-71.67819,122.04008)" /></g></svg>
